<?xml version="1.0" standalone="no"?>
<!DOCTYPE svg PUBLIC "-//W3C//DTD SVG 1.1//EN" "http://www.w3.org/Graphics/SVG/1.1/DTD/svg11.dtd">
<svg xmlns="http://www.w3.org/2000/svg"><metadata>This SVG WebFont was generated by YouWorkForThem.
Copyright (c) 2015 by thmbnl. graphic design. All rights reserved</metadata><defs><font horiz-adv-x="0" id="ywftsvg"><font-face ascent="1638" bbox="-808.879 -494 2243 2030" cap-height="1516" descent="-410" font-family="" font-stretch="normal" font-weight="300" panose-1="0 0 4 0 0 0 0 0 0 0" underline-position="0" underline-thickness="0" unicode-range="U+0020-25CA" units-per-em="2048" x-height="1024"/><missing-glyph d="M788 1516v-1926h-610v1926h610zM641 1386h-317v-63h125v-72h-127v-63h319v63h-127v72h127v63zM514 1139h-192v-201h319v66h-127v135zM449 1073v-69h-64v69h64zM641 887h-319v-64h127v-71h-127v-64h192v135h127v64zM641 770h-63v-127h-256v-65h319v192zM641 537h-192v-109 h65v45h64v-92h-193v156h-63v-220h319v220zM641 203h-319v-217h319v217zM578 139v-90h-193v90h193zM641 -59h-319v-64h135l-135 -90v-63h319v63h-197l136 90h61v64z" horiz-adv-x="962"/><glyph d="M788 1516v-1926h-610v1926h610zM641 1386h-317v-63h125v-72h-127v-63h319v63h-127v72h127v63zM514 1139h-192v-201h319v66h-127v135zM449 1073v-69h-64v69h64zM641 887h-319v-64h127v-71h-127v-64h192v135h127v64zM641 770h-63v-127h-256v-65h319v192zM641 537h-192v-109 h65v45h64v-92h-193v156h-63v-220h319v220zM641 203h-319v-217h319v217zM578 139v-90h-193v90h193zM641 -59h-319v-64h135l-135 -90v-63h319v63h-197l136 90h61v64z" glyph-name=".notdef" horiz-adv-x="962"/><glyph glyph-name="glyph1"/><glyph glyph-name="glyph2" horiz-adv-x="681"/><glyph glyph-name="space" horiz-adv-x="645" unicode=" "/><glyph d="M172 291q-37 0 -37 37v1151q0 37 37 37h68q37 0 36 -37v-1151q0 -37 -36 -37h-68zM207 0q-39 0 -66.5 28.5t-27.5 69.5t27.5 65.5t66.5 24.5t66.5 -24.5t27.5 -65.5t-28.5 -69.5t-65.5 -28.5z" glyph-name="exclam" horiz-adv-x="413" unicode="!"/><glyph d="M223 1153q-35 0 -41 33l-69 289q-10 41 32 41h56q33 0 41 -33l71 -289q10 -41 -32 -41h-58zM453 1153q-35 0 -41 33l-70 289q-10 41 33 41h55q33 0 41 -33l72 -289q10 -41 -33 -41h-57z" glyph-name="quotedbl" horiz-adv-x="645" unicode="&quot;"/><glyph d="M1423 1094q39 0 33 -41l-14 -70q-6 -33 -39 -33h-258l-70 -368h242q39 0 33 -41l-15 -70q-6 -33 -39 -33h-249l-78 -405q-6 -33 -39 -33h-72q-39 0 -33 41l74 397h-389l-78 -405q-6 -33 -39 -33h-67q-39 0 -33 41l78 397h-238q-39 0 -33 41l15 70q6 33 39 33h241l70 368 h-225q-39 0 -33 41l14 70q6 33 39 33h234l73 389q6 33 39 33h76q39 0 33 -41l-78 -381h389l80 389q6 33 39 33h65q39 0 33 -41l-74 -381h254zM928 582l73 368h-389l-73 -368h389z" glyph-name="numbersign" horiz-adv-x="1546" unicode="#"/><glyph d="M938 383q0 -158 -102.5 -270.5t-266.5 -126.5v-172q0 -37 -37 -37h-71q-37 0 -37 37v180q-158 31 -299 149q-23 20 -6 43l49 78q16 25 45 6q166 -131 305 -131q109 0 186.5 72t77.5 174q0 113 -90 189.5t-243 148.5q-61 29 -97.5 47t-91.5 57t-85 77t-52.5 99.5 t-18.5 131.5q6 141 95.5 244.5t224.5 136.5v165q0 37 37 37h71q37 0 37 -37v-155q117 -8 230 -78q23 -16 6 -43l-45 -66q-14 -25 -43 -8q-98 59 -193 60q-109 0 -189.5 -77t-80.5 -190q0 -96 61.5 -153.5t178.5 -110.5q74 -33 110.5 -50t111.5 -64.5t114.5 -92.5 t73.5 -116.5t34 -153.5z" glyph-name="dollar" horiz-adv-x="1040" unicode="$"/><glyph d="M430 864q-135 0 -231.5 95.5t-96.5 230.5t96.5 230.5t231.5 95.5t232.5 -95.5t97.5 -230.5t-97.5 -230.5t-232.5 -95.5zM453 0h-84q-20 0 -28.5 12.5t1.5 30.5l758 1446q12 27 45 27h84q20 0 28.5 -12.5t-2.5 -30.5l-757 -1446q-12 -27 -45 -27zM430 1370q-76 0 -129 -52 t-53 -128q0 -74 53 -127t129 -53t130 53t54 127q0 76 -53 128t-131 52zM1161 -4q-133 0 -229 95t-96 230.5t96 230.5t229 95q137 0 234.5 -95t97.5 -230.5t-97.5 -230.5t-234.5 -95zM1161 502q-74 0 -127 -52.5t-53 -127.5q0 -74 53 -127.5t127 -53.5q78 0 132.5 53.5 t54.5 127.5q0 76 -54.5 128t-132.5 52z" glyph-name="percent" horiz-adv-x="1585" unicode="%"/><glyph d="M1145 672q33 -16 16 -49l-170 -353l135 -159q27 -29 -4 -54l-53 -45q-31 -25 -53 4l-103 125q-139 -160 -350 -159q-190 0 -325.5 137t-135.5 330q0 121 57.5 225t162.5 168q-139 125 -140 303q0 158 112 270.5t269.5 112.5t268 -111.5t110.5 -269.5 q0 -154 -106.5 -265.5t-260.5 -117.5l318 -375l139 295q16 33 49 16zM563 1384q-98 0 -167.5 -70.5t-69.5 -168.5t69.5 -168t167.5 -70q96 0 166 70t70 168q0 96 -70 167.5t-166 71.5zM561 125q158 0 258 125l-403 483q-80 -43 -126 -120.5t-46 -168.5q0 -133 94 -226 t223 -93z" glyph-name="ampersand" horiz-adv-x="1269" unicode="&amp;"/><glyph d="M223 1153q-35 0 -41 33l-69 289q-10 41 32 41h56q33 0 41 -33l71 -289q10 -41 -32 -41h-58z" glyph-name="quotesingle" horiz-adv-x="415" unicode="'"/><glyph d="M489 -133l-61 -39q-29 -20 -51 10q-244 403 -244 811q0 225 66.5 444.5t187.5 391.5q20 31 51 10l51 -31q31 -18 11 -51q-227 -354 -228 -758q0 -201 53.5 -358.5t176.5 -380.5q18 -29 -13 -49z" glyph-name="parenleft" horiz-adv-x="612" unicode="("/><glyph d="M111 -84q123 223 176 381t53 358q0 403 -227 758q-20 33 10 51l51 31q31 20 51 -10q121 -172 187.5 -391.5t66.5 -444.5q0 -408 -243 -811q-23 -31 -52 -10l-61 39q-30 20 -12 49z" glyph-name="parenright" horiz-adv-x="612" unicode=")"/><glyph d="M811 1143q29 0 29 -29v-61q0 -29 -29 -29h-199l140 -143q20 -20 0 -41l-43 -43q-23 -23 -41 0l-140 143v-205q0 -29 -28 -28h-64q-29 0 -28 28v205l-144 -143q-20 -20 -41 0l-43 43q-20 20 0 41l139 143h-198q-29 0 -29 29v61q0 29 29 29h198l-139 139q-18 18 0 41l43 47 q18 23 41 0l144 -143v200q0 29 28 29h64q29 0 28 -29v-200l140 143q20 25 41 0l45 -47q20 -20 -2 -41l-140 -139h199z" glyph-name="asterisk" horiz-adv-x="931" unicode="*"/><glyph d="M1163 631q37 0 37 -37v-66q0 -37 -37 -36h-448v-459q0 -37 -37 -37h-66q-37 0 -37 37v459h-446q-37 0 -37 36v66q0 37 37 37h446v436q0 37 37 37h66q37 0 37 -37v-436h448z" glyph-name="plus" horiz-adv-x="1282" unicode="+"/><glyph d="M182 -133h-57q-43 0 -33 41l72 289q8 33 41 32h55q43 0 33 -41l-70 -288q-6 -33 -41 -33z" glyph-name="comma" horiz-adv-x="405" unicode=","/><glyph d="M625 539h-475q-37 0 -37 36v84q0 37 37 37h475q37 0 37 -37v-84q0 -36 -37 -36z" glyph-name="hyphen" horiz-adv-x="774" unicode="-"/><glyph d="M283 92q0 -37 -28 -64.5t-69 -27.5q-35 0 -64.5 28.5t-29.5 63.5q0 39 29 67.5t65 28.5q43 0 70 -27.5t27 -68.5z" glyph-name="period" horiz-adv-x="374" unicode="."/><glyph d="M88 43l559 1444q12 29 41 29h78q20 0 28.5 -12.5t0.5 -30.5l-562 -1444q-12 -29 -40 -29h-76q-20 0 -28.5 12.5t-0.5 30.5z" glyph-name="slash" horiz-adv-x="892" unicode="/"/><glyph d="M627 -12q-195 0 -334 138t-139 331v602q0 193 139 331t334 138q193 0 332 -138.5t139 -330.5v-602q0 -193 -139 -331t-332 -138zM297 1059v-602q0 -133 96 -229.5t234 -96.5q135 0 231 96.5t96 229.5v602q0 133 -96 229t-231 96q-137 0 -233.5 -96t-96.5 -229z" glyph-name="zero" horiz-adv-x="1251" unicode="0"/><glyph d="M487 1516q37 0 37 -37v-1442q0 -37 -37 -37h-69q-37 0 -37 37v1356h-238q-31 0 -30 30v62q0 31 30 31h344z" glyph-name="one" horiz-adv-x="708" unicode="1"/><glyph d="M1012 143q37 0 37 -37v-69q0 -37 -37 -37h-774q-37 0 -37 37v80q0 25 16 47l582 708q82 102 68.5 239.5t-111.5 219.5q-90 82 -228.5 64.5t-236.5 -135.5q-20 -31 -51 -7l-50 39q-29 23 -6 51q121 162 318.5 189t349.5 -98q147 -121 160.5 -320t-103.5 -332l-526 -639 h629z" glyph-name="two" horiz-adv-x="1202" unicode="2"/><glyph d="M793 848q106 -59 169.5 -167t63.5 -232q0 -190 -137 -325.5t-328 -135.5q-145 0 -265 84t-173 235q-12 33 22 47l66 25q31 12 47 -23q37 -100 117 -159.5t186 -59.5q135 0 227.5 92.5t92.5 219.5q0 131 -94.5 228t-229.5 97h-20q-31 0 -31 31v74q0 31 31 30h20 q98 0 169 71t71 169t-71 170t-169 72q-131 0 -209 -121q-20 -35 -51 -13l-51 35q-31 20 -15 49q53 88 139.5 137.5t186.5 49.5q158 0 270.5 -111.5t112.5 -269.5q0 -184 -147 -299z" glyph-name="three" horiz-adv-x="1189" unicode="3"/><glyph d="M1139 444q37 0 37 -36v-70q0 -37 -37 -37h-150v-264q0 -37 -37 -37h-69q-37 0 -37 37v264h-686q-37 0 -37 37v82q0 23 14 45l725 1028q14 23 45 23h45q37 0 37 -37v-1035h150zM295 444h551v779z" glyph-name="four" horiz-adv-x="1298" unicode="4"/><glyph d="M539 997q207 0 355 -148.5t148 -354.5q0 -209 -149.5 -357.5t-357.5 -148.5q-227 0 -379 176q-20 27 6 51l53 43q25 23 51 -6q104 -121 271 -121q152 0 257 106.5t105 256t-106.5 256t-255.5 106.5q-109 0 -193 -59q-27 -18 -53 2l-64 47q-23 16 -18 47l88 588 q6 35 39 35h553q37 0 37 -37v-70q0 -37 -37 -37h-467l-60 -407q89 32 177 32z" glyph-name="five" horiz-adv-x="1185" unicode="5"/><glyph d="M668 1001q209 0 356 -149.5t147 -359.5q0 -207 -147 -355.5t-356 -148.5t-356.5 148.5t-147.5 355.5q0 143 57 237l451 756q18 31 49 12l55 -33q33 -20 15 -51l-259 -432q77 20 136 20zM667.5 131q149.5 0 257 106.5t107.5 254.5q0 152 -107.5 259t-256.5 107 q-152 0 -258.5 -109.5t-106.5 -257t107.5 -254t257 -106.5z" glyph-name="six" horiz-adv-x="1284" unicode="6"/><glyph d="M858 1516q37 0 37 -37v-84q0 -27 -8 -45l-453 -1319q-8 -31 -41 -31h-82q-20 0 -28.5 12.5t-1.5 30.5l460 1329h-632q-37 0 -37 37v70q0 37 37 37h749z" glyph-name="seven" horiz-adv-x="987" unicode="7"/><glyph d="M842 858q106 -59 168.5 -167.5t62.5 -235.5q0 -195 -136 -331t-328.5 -136t-329 136t-136.5 331q0 127 62.5 235.5t169.5 167.5q-139 113 -139 293q0 156 109.5 266.5t265 110.5t265 -110.5t109.5 -264.5q0 -178 -143 -295zM608 1384q-94 0 -161.5 -67.5t-67.5 -163.5 t66.5 -162.5t163 -66.5t165 66.5t68.5 162.5q0 94 -69 162.5t-165 68.5zM610 131q133 0 227.5 95.5t94.5 228.5t-94.5 227t-227.5 94t-229 -94t-96 -227t96 -228.5t229 -95.5z" glyph-name="eight" horiz-adv-x="1216" unicode="8"/><glyph d="M616.5 1532q208.5 0 356 -148.5t147.5 -359.5q0 -139 -57 -233l-451 -766q-14 -25 -43 -25h-80q-23 0 -28.5 12.5t4.5 32.5l287 494q-76 -20 -140 -21q-205 0 -352 149.5t-147 358.5t147.5 357.5t356 148.5zM616 662q152 0 258.5 109.5t106.5 257t-107.5 254t-257 106.5 t-257 -106.5t-107.5 -256t107 -257t257 -107.5z" glyph-name="nine" horiz-adv-x="1212" unicode="9"/><glyph d="M283 930q0 -37 -30 -64.5t-66.5 -27.5t-65.5 27.5t-29 64.5t29 65.5t65.5 28.5t66.5 -28.5t30 -65.5zM283 96q0 -37 -29 -66.5t-68 -29.5q-37 0 -65.5 29.5t-28.5 66.5q0 39 27.5 66.5t66.5 27.5t68 -27.5t29 -66.5z" glyph-name="colon" horiz-adv-x="364" unicode=":"/><glyph d="M217 838q-37 0 -65.5 27.5t-28.5 64.5t28.5 65.5t65.5 28.5t66.5 -28.5t29.5 -65.5t-29.5 -64.5t-66.5 -27.5zM135 -133q-43 0 -33 41l72 289q8 33 41 32h55q43 0 33 -41l-70 -288q-6 -33 -40 -33h-58z" glyph-name="semicolon" horiz-adv-x="415" unicode=";"/><glyph d="M901 -14l-754 448q-25 16 -24 43v70q0 27 24 43l754 446q16 10 26.5 4t10.5 -24v-101q0 -25 -20 -36l-629 -367l629 -365q20 -12 20 -36v-105q0 -18 -10.5 -24t-26.5 4z" glyph-name="less" horiz-adv-x="1030" unicode="&lt;"/><glyph d="M1044 674h-884q-37 0 -37 37v65q0 37 37 37h884q37 0 37 -37v-65q0 -37 -37 -37zM1044 334h-884q-37 0 -37 37v65q0 37 37 37h884q37 0 37 -37v-65q0 -37 -37 -37z" glyph-name="equal" horiz-adv-x="1193" unicode="="/><glyph d="M92 6v105q0 25 21 36l628 365l-628 367q-20 12 -21 36v101q0 18 11.5 24.5t25.5 -4.5l754 -446q25 -16 24 -43v-70q0 -27 -24 -43l-754 -448q-14 -10 -25.5 -4t-11.5 24z" glyph-name="greater" horiz-adv-x="1030" unicode=">"/><glyph d="M952 1079q0 -168 -109.5 -294t-273.5 -154v-303q0 -37 -37 -37h-69q-37 0 -37 37v405q0 37 37 37h37q129 0 219 91t90 224q0 113 -69.5 192t-164 102.5t-193.5 -13.5t-153 -133q-20 -33 -49 -19l-63 29q-35 18 -19 49q57 111 166 176.5t236 65.5q186 0 319 -133.5 t133 -321.5zM602 96q0 -39 -28.5 -67.5t-67.5 -28.5t-66.5 28.5t-27.5 67.5t27.5 66.5t66.5 27.5t67.5 -27.5t28.5 -66.5z" glyph-name="question" horiz-adv-x="1054" unicode="?"/><glyph d="M874 1528q317 0 542.5 -225.5t225.5 -544.5q0 -131 -31.5 -241.5t-108.5 -185.5t-185.5 -75t-183 65.5t-82.5 137.5q-109 -88 -240 -88q-156 0 -267.5 110.5t-111.5 266t111.5 265t269.5 109.5q129 0 229 -82v25q0 37 37 37h68q37 0 37 -37v-537q4 -55 42 -93t91 -38 q94 0 139 110.5t45 250.5q0 262 -183 445t-443.5 183t-444.5 -183t-184 -445q0 -260 184 -444.5t442 -184.5q92 0 179 25q35 8 45 -27l14 -68q6 -37 -27 -45q-102 -27 -211 -26q-317 0 -543.5 227t-226.5 544.5t226.5 543t545.5 225.5zM809 512q96 0 164.5 69.5t68.5 166 t-68.5 164t-164.5 67.5t-165 -67.5t-69 -164t69 -166t165 -69.5z" glyph-name="at" horiz-adv-x="1744" unicode="@"/><glyph d="M1403 35q12 -35 -25 -35h-92q-29 0 -37 25l-110 276h-770l-111 -276q-8 -25 -37 -25h-92q-37 0 -25 35l580 1456q8 25 37 25h65q29 0 37 -25zM424 442h661l-331 832z" glyph-name="A" horiz-adv-x="1497" unicode="A"/><glyph d="M778 774q96 -55 152.5 -150.5t56.5 -207.5q0 -172 -122 -294t-294 -122h-401q-37 0 -37 37v1442q0 37 37 37h352q172 0 294 -122t122 -292q0 -203 -160 -328zM279 1372v-541h243q113 0 192 79t79 192q0 111 -79 190.5t-192 79.5h-243zM571 143q113 0 192 80t79 191 q0 113 -79 192.5t-192 79.5h-292v-543h292z" glyph-name="B" horiz-adv-x="1089" unicode="B"/><glyph d="M866 -12q-322 0 -548 225t-226 545q0 317 225.5 543.5t538.5 226.5q268 0 498 -182q27 -20 6 -52l-39 -51q-23 -33 -51 -6q-190 147 -410 147q-256 0 -440 -184t-184 -442t183 -442.5t441 -184.5q221 0 410 145q27 25 51 -6l41 -55q20 -29 -8 -51q-224 -176 -488 -176z " glyph-name="C" horiz-adv-x="1495" unicode="C"/><glyph d="M508 1516q313 0 535.5 -222.5t222.5 -536t-222.5 -535.5t-535.5 -222h-338q-37 0 -37 37v1442q0 37 37 37h338zM508 143q254 0 434 180.5t180 434.5t-180 434t-434 180h-232v-1229h232z" glyph-name="D" horiz-adv-x="1357" unicode="D"/><glyph d="M866 143q37 0 37 -37v-69q0 -37 -37 -37h-696q-37 0 -37 37v1442q0 37 37 37h696q37 0 37 -37v-70q0 -37 -37 -37h-590v-549h555q31 0 31 -30v-66q0 -31 -31 -31h-555v-553h590z" glyph-name="E" horiz-adv-x="1015" unicode="E"/><glyph d="M276 37q0 -37 -36 -37h-70q-37 0 -37 37v1442q0 37 37 37h661q37 0 37 -37v-70q0 -37 -37 -37h-555v-549h521q31 0 30 -30v-66q0 -31 -30 -31h-521v-659z" glyph-name="F" horiz-adv-x="960" unicode="F"/><glyph d="M1567 801q37 0 37 -37v-37q-12 -311 -228.5 -525t-523.5 -214q-319 0 -534.5 224t-215.5 544q0 317 226.5 544.5t541.5 227.5q254 0 488 -182q29 -23 6 -52l-41 -53q-20 -31 -51 -6q-193 150 -402 149q-258 0 -441 -184t-183 -444q0 -264 175 -444.5t431 -180.5 q236 0 404.5 156.5t195.5 386.5h-647q-31 0 -31 31v65q0 31 31 31h762z" glyph-name="G" horiz-adv-x="1716" unicode="G"/><glyph d="M934 1479q0 37 37 37h69q37 0 37 -37v-1442q0 -37 -37 -37h-69q-37 0 -37 37v657h-658v-657q0 -37 -36 -37h-70q-37 0 -37 37v1442q0 37 37 37h70q37 0 36 -37v-658h658v658z" glyph-name="H" horiz-adv-x="1200" unicode="H"/><glyph d="M133 37v1442q0 37 37 37h68q37 0 36 -37v-1442q0 -37 -36 -37h-68q-37 0 -37 37z" glyph-name="I" horiz-adv-x="397" unicode="I"/><glyph d="M459 1479q0 37 37 37h67q37 0 37 -37v-1145q0 -137 -97 -235.5t-237 -98.5h-127q-37 0 -37 37v67q0 37 37 37h127q80 0 136.5 57.5t56.5 135.5v1145z" glyph-name="J" horiz-adv-x="733" unicode="J"/><glyph d="M999 37q23 -37 -18 -37h-100q-25 0 -39 20l-490 715l-76 -100v-598q0 -37 -36 -37h-70q-37 0 -37 37v1442q0 37 37 37h70q37 0 36 -37v-639l502 657q12 18 37 19h88q18 0 23.5 -10.5t-4.5 -26.5l-484 -633z" glyph-name="K" horiz-adv-x="1118" unicode="K"/><glyph d="M829 0h-659q-37 0 -37 37v1442q0 37 37 37h70q37 0 36 -37v-1336h553q37 0 37 -37v-69q0 -37 -37 -37z" glyph-name="L" horiz-adv-x="948" unicode="L"/><glyph d="M1585 1516q37 0 37 -37v-1442q0 -37 -37 -37h-69q-37 0 -37 37v1147l-553 -1116q-8 -18 -29 -19h-39q-18 0 -29 19l-553 1116v-1147q0 -37 -36 -37h-70q-37 0 -37 37v1442q0 37 37 37h55q23 0 35 -23l617 -1245l616 1245q12 23 35 23h57z" glyph-name="M" horiz-adv-x="1744" unicode="M"/><glyph d="M1128 1479q0 37 37 37h70q37 0 37 -37v-1442q0 -37 -37 -37h-49q-27 0 -39 18l-871 1235v-1216q0 -37 -36 -37h-70q-37 0 -37 37v1442q0 37 37 37h49q27 0 39 -19l870 -1235v1217z" glyph-name="N" horiz-adv-x="1394" unicode="N"/><glyph d="M874 1530q317 0 544 -226.5t227 -543.5q0 -319 -226.5 -545.5t-544.5 -226.5q-319 0 -545.5 226t-226.5 546q0 317 226.5 543.5t545.5 226.5zM874 1386q-260 0 -444 -184t-184 -442q0 -260 184 -444.5t444 -184.5q258 0 442.5 184.5t184.5 444.5q0 258 -184.5 442 t-442.5 184z" glyph-name="O" horiz-adv-x="1746" unicode="O"/><glyph d="M573 1516q176 0 302 -125t126 -301.5t-125.5 -302t-302.5 -125.5h-297v-625q0 -37 -36 -37h-70q-37 0 -37 37v1442q0 37 37 37h403zM573 805q119 0 202 83t83 202q0 117 -83 199.5t-202 82.5h-297v-567h297z" glyph-name="P" horiz-adv-x="1073" unicode="P"/><glyph d="M1442 233l133 -133q25 -25 0 -53l-33 -35q-25 -29 -53 0l-137 138q-209 -166 -478 -166q-319 0 -545.5 226t-226.5 546q0 317 226.5 543.5t546 226.5t545 -226.5t225.5 -543.5q0 -304 -203 -523zM874 127q209 0 375 125l-123 123q-25 25 0 53l31 33q25 29 53 0l129 -127 q162 180 162 422q0 258 -183 442t-443.5 184t-444.5 -184t-184 -442q0 -260 184 -444.5t444 -184.5z" glyph-name="Q" horiz-adv-x="1746" unicode="Q"/><glyph d="M1004 37q20 -37 -21 -37h-94q-25 0 -37 20l-375 644h-203v-627q0 -37 -36 -37h-70q-37 0 -37 37v1442q0 37 37 37h403q176 0 301 -125t125 -301q0 -162 -106.5 -282t-263.5 -140zM274 1372v-565h297q117 0 200 83t83 199.5t-83 199.5t-200 83h-297z" glyph-name="R" horiz-adv-x="1097" unicode="R"/><glyph d="M522 -16q-205 0 -395 157q-25 23 -8 45l45 72q16 25 45 6q168 -133 307 -133q111 0 188.5 75t77.5 179q0 59 -26.5 109.5t-82 92.5t-101.5 68.5t-123 63.5q-66 31 -101 49t-91 58t-85 79t-50.5 99.5t-17.5 130.5q8 172 131 282.5t293 110.5q145 0 271 -80q25 -18 6 -43 l-45 -62q-16 -23 -41 -10q-106 59 -195 60q-106 0 -187 -79t-81 -192q0 -49 17.5 -88t55.5 -69.5t71.5 -49t93.5 -45.5q66 -29 108.5 -50t113 -68t113.5 -94.5t76 -120t33 -154.5q0 -170 -118 -284.5t-298 -114.5z" glyph-name="S" horiz-adv-x="1030" unicode="S"/><glyph d="M938 1516q37 0 37 -37v-70q0 -37 -37 -37h-338v-1335q0 -37 -37 -37h-69q-37 0 -37 37v1335h-338q-37 0 -37 37v70q0 37 37 37h819z" glyph-name="T" horiz-adv-x="1046" unicode="T"/><glyph d="M600.5 -12q-194.5 0 -331 137t-136.5 330v1024q0 37 37 37h70q37 0 36 -37v-1024q0 -133 95.5 -228.5t228.5 -95.5t228.5 95.5t95.5 228.5v1024q0 37 37 37h69q37 0 37 -37v-1024q0 -193 -136 -330t-330.5 -137z" glyph-name="U" horiz-adv-x="1189" unicode="U"/><glyph d="M1278 1516q37 0 25 -35l-535 -1456q-8 -25 -35 -25h-59q-27 0 -35 25l-535 1456q-12 35 25 35h92q27 0 35 -25l449 -1227l446 1227q8 25 35 25h92z" glyph-name="V" horiz-adv-x="1396" unicode="V"/><glyph d="M1761 1516q35 0 25 -35l-406 -1454q-6 -27 -34 -27h-56q-27 0 -33 27l-313 1179l-313 -1179q-6 -27 -33 -27h-55q-29 0 -35 27l-406 1454q-10 35 25 35h86q29 0 35 -27l332 -1182l311 1180q6 20 29 20h49q23 0 28 -20l312 -1180l331 1182q6 27 35 27h86z" glyph-name="W" horiz-adv-x="1878" unicode="W"/><glyph d="M786 760l492 -723q23 -37 -21 -37h-104q-25 0 -39 20l-416 615l-417 -615q-14 -20 -39 -20h-105q-43 0 -20 37l491 723l-489 719q-23 37 20 37h103q25 0 39 -21l417 -610l416 610q14 20 39 21h102q43 0 21 -37z" glyph-name="X" horiz-adv-x="1384" unicode="X"/><glyph d="M1120 1516q41 0 21 -37l-443 -756v-686q0 -37 -36 -37h-68q-37 0 -37 37v686l-442 756q-20 37 20 37h107q25 0 37 -21l348 -594l350 594q12 20 37 21h106z" glyph-name="Y" horiz-adv-x="1245" unicode="Y"/><glyph d="M1157 143q37 0 37 -37v-69q0 -37 -37 -37h-993q-37 0 -37 37v82q0 23 14 45l856 1218h-868q-37 0 -37 37v60q0 37 37 37h1014q37 0 37 -37v-62q0 -23 -15 -45l-860 -1229h852z" glyph-name="Z" horiz-adv-x="1275" unicode="Z"/><glyph d="M444 -225h-274q-37 0 -37 37v1749q0 37 37 36h274q37 0 37 -36v-70q0 -37 -37 -37h-168v-1536h168q37 0 37 -37v-69q0 -37 -37 -37z" glyph-name="bracketleft" horiz-adv-x="583" unicode="["/><glyph d="M776 0h-76q-29 0 -41 29l-561 1444q-8 18 0 30.5t29 12.5h78q29 0 41 -29l559 -1444q8 -18 -0.5 -30.5t-28.5 -12.5z" glyph-name="backslash" horiz-adv-x="892" unicode="\"/><glyph d="M102 -188v69q0 37 37 37h168v1536h-168q-37 0 -37 37v70q0 37 37 36h275q37 0 37 -36v-1749q0 -37 -37 -37h-275q-37 0 -37 37z" glyph-name="bracketright" horiz-adv-x="583" unicode="]"/><glyph d="M125 557l448 754q16 25 43 24h70q27 0 43 -24l447 -754q20 -37 -21 -37h-100q-25 0 -37 21l-367 628l-364 -628q-12 -20 -37 -21h-105q-40 0 -20 37z" glyph-name="asciicircum" horiz-adv-x="1300" unicode="^"/><glyph d="M1055 -135h-936q-37 0 -37 37v61q0 37 37 37h936q37 0 37 -37v-61q0 -37 -37 -37z" glyph-name="underscore" horiz-adv-x="1173" unicode="_"/><glyph d="M352 1202l-340 180q-33 18 -14 52l33 59q18 37 51 16l336 -182q31 -18 16 -49l-33 -61q-16 -33 -49 -15z" glyph-name="grave" horiz-adv-x="552" unicode="`"/><glyph d="M1122 1024q37 0 37 -37v-950q0 -37 -37 -37h-51q-37 0 -37 37v133q-74 -86 -179 -136t-222 -50q-219 0 -375 155.5t-156 374.5q0 217 156 371.5t375 154.5q117 0 222.5 -50t178.5 -136v133q0 37 37 37h51zM633 127q160 0 272.5 112.5t112.5 274.5q0 158 -112.5 270.5 t-272.5 112.5t-272.5 -112.5t-112.5 -270.5q0 -162 112.5 -274.5t272.5 -112.5z" glyph-name="a" horiz-adv-x="1282" unicode="a"/><glyph d="M649 1040q219 0 374 -154.5t155 -373.5t-155 -373.5t-374 -154.5q-117 0 -222 49t-179 135v-131q0 -37 -37 -37h-51q-37 0 -37 37v1360q0 37 37 37h67q37 0 37 -37v-523q156 166 385 166zM649 129q160 0 272.5 111.5t112.5 271.5t-112.5 272.5t-272.5 112.5 q-158 0 -271.5 -112.5t-113.5 -272.5t112.5 -271.5t272.5 -111.5z" glyph-name="b" horiz-adv-x="1269" unicode="b"/><glyph d="M631 -16q-219 0 -374 154.5t-155 373.5t155 373.5t374 154.5q195 0 344 -127q27 -20 6 -51l-41 -55q-23 -33 -51 -6q-117 96 -258 96q-158 0 -271.5 -113.5t-113.5 -271.5t113.5 -271.5t271.5 -113.5q141 0 258 96q29 25 51 -4l41 -55q20 -31 -6 -51q-154 -129 -344 -129 z" glyph-name="c" horiz-adv-x="1093" unicode="c"/><glyph d="M1110 1434q37 0 37 -37v-1360q0 -37 -37 -37h-51q-37 0 -37 37v131q-74 -86 -179.5 -135t-221.5 -49q-219 0 -374 154.5t-155 373.5t154.5 373.5t374.5 154.5q229 0 385 -166v523q0 37 36 37h68zM620.5 129q159.5 0 272.5 111.5t113 271.5t-114 272.5t-271 112.5 q-160 0 -272.5 -112.5t-112.5 -272.5t112.5 -271.5t272 -111.5z" glyph-name="d" horiz-adv-x="1269" unicode="d"/><glyph d="M1133 502q0 -37 -37 -37h-842q23 -150 128 -243t247 -93q166 0 311 133q27 27 51 -4l41 -51q23 -27 0 -51q-166 -172 -403 -172q-227 0 -377 162.5t-150 383.5q0 219 148.5 364.5t363.5 145.5t361 -149t158 -389zM254 586h723q-23 135 -125 226t-238 91q-131 0 -234 -86 t-126 -231z" glyph-name="e" horiz-adv-x="1224" unicode="e"/><glyph d="M446 1292q-78 0 -135 -57t-57 -135v-76h326q31 0 30 -31v-63q0 -31 -30 -31h-326v-862q0 -37 -37 -37h-67q-37 0 -37 37v1063q0 147 99 240.5t234 93.5h127q37 0 37 -37v-68q0 -37 -37 -37h-127z" glyph-name="f" horiz-adv-x="692" unicode="f"/><glyph d="M1102 1024q37 0 37 -37v-831q0 -156 -42 -274t-114 -182.5t-152.5 -95t-171.5 -30.5q-117 0 -227 55q-35 14 -18 49l26 56q16 35 49 18q78 -39 162 -39q160 0 254 115t94 328q-162 -172 -387 -172q-219 0 -374.5 154.5t-155.5 373.5t155.5 373.5t374.5 154.5 q242 0 400 -184v131q0 37 37 37h53zM612 127q158 0 270.5 113.5t112.5 271.5t-112.5 271.5t-270 113.5t-272.5 -113.5t-115 -271.5t113.5 -271.5t273.5 -113.5z" glyph-name="g" horiz-adv-x="1261" unicode="g"/><glyph d="M563 1040q182 0 310 -129t128 -309v-565q0 -37 -36 -37h-70q-37 0 -37 37v565q0 121 -87 208t-208 87q-123 0 -209 -87t-86 -208v-565q0 -37 -37 -37h-71q-37 0 -37 37v1360q0 37 37 37h71q37 0 37 -37v-471q125 114 295 114z" glyph-name="h" horiz-adv-x="1073" unicode="h"/><glyph d="M313 1221q0 -41 -26.5 -68t-69.5 -27q-39 0 -66.5 27t-27.5 68q0 37 28.5 65.5t65.5 28.5q41 0 68.5 -27.5t27.5 -66.5zM254 0h-72q-37 0 -37 37v950q0 37 37 37h72q37 0 37 -37v-950q0 -37 -37 -37z" glyph-name="i" horiz-adv-x="425" unicode="i"/><glyph d="M420 1223q0 -41 -26.5 -69t-65.5 -28q-41 0 -69 27t-28 66q0 41 28 69.5t69 28.5q39 0 65.5 -28.5t26.5 -65.5zM399 33q0 -287 -262 -441q-31 -18 -51 13l-37 59q-18 31 12 51q195 135 195 318v954q0 37 37 37h69q37 0 37 -37v-954z" glyph-name="j" horiz-adv-x="542" unicode="j"/><glyph d="M823 37q10 -16 4 -26.5t-24 -10.5h-96q-27 0 -39 18l-332 471l-70 -79v-373q0 -37 -37 -37h-69q-37 0 -37 37v1360q0 37 37 37h69q37 0 37 -37v-801l361 412q14 16 37 16h98q20 0 25.5 -10t-7.5 -27l-354 -401z" glyph-name="k" horiz-adv-x="931" unicode="k"/><glyph d="M449 143q27 0 26 -37v-69q0 -37 -37 -37h-18q-137 0 -217 76t-80 239v1082q0 37 37 37h69q37 0 37 -37v-1082q0 -84 43 -128t111 -44h29z" glyph-name="l" horiz-adv-x="536" unicode="l"/><glyph d="M1262 1040q176 0 301 -124.5t125 -301.5v-577q0 -37 -37 -37h-70q-37 0 -37 37v577q0 117 -83 201t-199 84q-119 0 -202 -84t-83 -201v-577q0 -37 -37 -37h-68q-37 0 -36 37v577q0 117 -83 201t-202 84t-202 -84t-83 -201v-577q0 -37 -37 -37h-69q-37 0 -37 37v950 q0 37 37 37h55q37 0 37 -37v-86q43 61 122 100t177 39q111 0 204 -51t150 -139q57 88 151.5 139t205.5 51z" glyph-name="m" horiz-adv-x="1789" unicode="m"/><glyph d="M553 1040q176 0 301 -124.5t125 -301.5v-577q0 -37 -37 -37h-70q-37 0 -36 37v577q0 117 -84 201t-201 84q-119 0 -202 -84t-83 -201v-577q0 -37 -37 -37h-69q-37 0 -37 37v950q0 37 37 37h53q37 0 37 -37v-72q125 125 303 125z" glyph-name="n" horiz-adv-x="1081" unicode="n"/><glyph d="M620.5 1040q219.5 0 374 -155.5t154.5 -372.5t-154.5 -372.5t-374 -155.5t-374 155.5t-154.5 372.5t154.5 372.5t374 155.5zM620.5 895q-159.5 0 -272 -111.5t-112.5 -271.5t112.5 -272.5t272 -112.5t271.5 112.5t112 272.5t-112 271.5t-271.5 111.5z" glyph-name="o" horiz-adv-x="1241" unicode="o"/><glyph d="M649 1040q219 0 374 -154.5t155 -373.5t-155 -373.5t-374 -154.5q-229 0 -385 166v-523q0 -37 -37 -37h-67q-37 0 -37 37v1360q0 37 37 37h51q37 0 37 -37v-131q74 86 179 135t222 49zM649 127q160 0 272.5 112.5t112.5 272.5t-112.5 271.5t-272.5 111.5t-272.5 -111.5 t-112.5 -271.5t113.5 -272.5t271.5 -112.5z" glyph-name="p" horiz-adv-x="1269" unicode="p"/><glyph d="M1110 1024q37 0 37 -37v-1360q0 -37 -37 -37h-68q-37 0 -36 37v523q-156 -166 -385 -166q-219 0 -374 154.5t-155 373.5t154.5 373.5t374.5 154.5q117 0 222 -49t179 -135v131q0 37 37 37h51zM621 127q158 0 271.5 112.5t113.5 272.5t-113 271.5t-272.5 111.5 t-272 -111.5t-112.5 -271.5t112.5 -272.5t272.5 -112.5z" glyph-name="q" horiz-adv-x="1269" unicode="q"/><glyph d="M618 1024q37 0 37 -37v-63q0 -37 -37 -37h-69q-121 0 -202 -69.5t-81 -188.5v-592q0 -37 -37 -37h-69q-37 0 -37 37v950q0 37 37 37h53q37 0 37 -37v-67q84 104 270 104h98z" glyph-name="r" horiz-adv-x="727" unicode="r"/><glyph d="M686 922l-27 -45q-18 -31 -51 -11q-92 51 -182 52q-82 0 -141.5 -39t-59.5 -101q0 -43 35 -75.5t68.5 -48t101.5 -38.5q137 -47 225 -133t88 -200q0 -125 -96 -212t-237.5 -87t-296.5 77q-31 16 -17 50l29 61q14 33 49 16q119 -59 225 -59q94 0 144.5 49t50.5 115 q0 63 -55.5 107t-180.5 94q-59 23 -94 40t-82 49.5t-70.5 79t-23.5 105.5q0 121 94 196.5t240 75.5q131 0 252 -69q30 -18 12 -49z" glyph-name="s" horiz-adv-x="835" unicode="s"/><glyph d="M588 143q37 0 37 -37v-69q0 -37 -37 -37h-131q-143 0 -238.5 95t-95.5 239v979q0 37 37 37h69q37 0 37 -37v-289h328q31 0 31 -31v-65q0 -31 -31 -31h-328v-563q0 -78 56.5 -134.5t134.5 -56.5h131z" glyph-name="t" horiz-adv-x="696" unicode="t"/><glyph d="M549 -16q-176 0 -301 124.5t-125 301.5v577q0 37 37 37h67q37 0 37 -37v-577q0 -117 83 -201t202 -84q117 0 199.5 84t82.5 201v577q0 37 37 37h70q37 0 37 -37v-577q0 -176 -125 -301t-301 -125z" glyph-name="u" horiz-adv-x="1077" unicode="u"/><glyph d="M567 0h-43q-29 0 -37 25l-393 964q-12 35 25 35h90q29 0 37 -25l301 -772l303 772q10 25 37 25h88q37 0 24 -35l-395 -964q-10 -25 -37 -25z" glyph-name="v" horiz-adv-x="1095" unicode="v"/><glyph d="M811 971q6 20 29 20h51q23 0 29 -20l286 -768l293 796q8 25 35 25h86q37 0 25 -35l-371 -964q-8 -25 -37 -25h-49q-25 0 -35 25l-287 759l-286 -759q-10 -25 -35 -25h-51q-27 0 -37 25l-373 964q-12 35 25 35h90q27 0 34 -25l293 -796z" glyph-name="w" horiz-adv-x="1730" unicode="w"/><glyph d="M1030 37q12 -16 6 -26.5t-24 -10.5h-107q-20 0 -37 18l-293 365l-290 -365q-12 -18 -37 -18h-109q-18 0 -23 10t7 27l377 475l-377 475q-12 16 -7 26.5t23 10.5h109q25 0 37 -18l290 -365l291 365q12 18 37 18h109q18 0 23 -10t-7 -27l-377 -475z" glyph-name="x" horiz-adv-x="1142" unicode="x"/><glyph d="M983 1024q37 0 25 -35l-437 -1061q-102 -246 -344 -342q-33 -12 -47 23l-24 61q-12 35 20 49q111 45 177.5 124t115.5 210l-383 936q-12 35 25 35h88q29 0 37 -25l311 -759l309 759q10 25 37 25h90z" glyph-name="y" horiz-adv-x="1124" unicode="y"/><glyph d="M870 143q37 0 37 -37v-69q0 -37 -37 -37h-737q-37 0 -37 37v80q0 29 17 47l620 737h-610q-31 0 -31 31v61q0 31 31 31h729q37 0 37 -37v-63q0 -29 -17 -47l-612 -734h610z" glyph-name="z" horiz-adv-x="989" unicode="z"/><glyph d="M700 -61q37 0 37 -37v-70q0 -37 -37 -37h-36q-135 0 -228.5 95.5t-93.5 228.5v334q0 76 -53 128t-127 52h-23q-37 0 -37 37v73q0 37 37 37h23q74 0 127 53.5t53 127.5v333q0 135 93 229.5t229 94.5h36q37 0 37 -37v-70q0 -37 -37 -36h-36q-74 0 -127.5 -53.5 t-53.5 -127.5v-333q0 -150 -121 -254q121 -96 121 -254v-334q0 -74 53.5 -127t127.5 -53h36z" glyph-name="braceleft" horiz-adv-x="819" unicode="{"/><glyph d="M133 -352v1831q0 37 37 37h68q37 0 36 -37v-1831q0 -37 -36 -37h-68q-37 0 -37 37z" glyph-name="bar" horiz-adv-x="407" unicode="|"/><glyph d="M82 -98q0 37 37 37h37q74 0 127 53t53 127v334q0 158 121 254q-121 104 -121 254v333q0 74 -53.5 127.5t-126.5 53.5h-37q-37 0 -37 36v70q0 37 37 37h37q135 0 228 -94t93 -230v-333q0 -74 53.5 -127.5t126.5 -53.5h23q37 0 37 -37v-73q0 -37 -37 -37h-23 q-74 0 -127 -52.5t-53 -127.5v-334q0 -133 -93 -228.5t-228 -95.5h-37q-37 0 -37 37v70z" glyph-name="braceright" horiz-adv-x="819" unicode="}"/><glyph d="M242 303l-86 33q-35 14 -25 45q59 225 246 309q76 35 152.5 39t152.5 -22.5t123 -50t115 -64.5q221 -133 335 -82q106 47 189 244q12 33 47 20l92 -35q33 -12 21 -45q-90 -270 -289 -346q-68 -25 -136.5 -25.5t-135 22t-114.5 46t-108 60.5q-246 156 -377 81 q-92 -53 -155 -208q-12 -33 -47 -21z" glyph-name="asciitilde" horiz-adv-x="1728" unicode="~"/><glyph d="M207 1516q37 0 65.5 -29t28.5 -70t-27.5 -65.5t-66.5 -24.5t-66.5 24.5t-27.5 65.5t27.5 70t66.5 29zM135 1188q0 37 37 37h68q37 0 36 -37v-1151q0 -37 -36 -37h-68q-37 0 -37 37v1151z" glyph-name="exclamdown" horiz-adv-x="413" unicode="¡"/><glyph d="M981 164q20 -31 -4 -49q-127 -111 -293 -129v-189q0 -37 -37 -37h-69q-37 0 -37 37v195q-188 33 -313.5 179t-125.5 341t125 341t314 179v174q0 37 37 37h69q37 0 37 -37v-168q164 -18 291 -125q27 -20 6 -51l-41 -55q-23 -33 -51 -6q-92 76 -205 92v-762q113 16 205 92 q29 25 51 -4zM246 512q0 -133 84 -238.5t211 -136.5v750q-127 -31 -211 -136.5t-84 -238.5z" glyph-name="cent" horiz-adv-x="1093" unicode="¢"/><glyph d="M1124 461q37 0 37 -37v-70q0 -152 -107.5 -253t-267.5 -101h-628q-37 0 -37 37v69q0 37 37 37h278v346q0 86 -47 164h-239q-37 0 -37 37v68q0 37 37 37h133q-74 94 -107 165.5t-33 155.5q0 168 119 289t301 121q266 0 426 -252q20 -31 -10 -49l-55 -35q-29 -18 -52 12 q-135 186 -317 180q-115 -2 -190.5 -78.5t-75.5 -187.5q0 -47 20.5 -96t40 -75.5t78.5 -104.5l33 -45h454q37 0 37 -37v-68q0 -37 -37 -37h-368q33 -72 33 -159v-351h206q98 0 166 59.5t68 151.5v70q0 37 37 37h67z" glyph-name="sterling" horiz-adv-x="1253" unicode="£"/><glyph d="M1038 262l76 -76q27 -27 0 -53l-76 -74q-27 -27 -53 0l-72 72q-125 -90 -284 -90q-158 0 -287 92l-74 -74q-27 -27 -53 0l-76 74q-27 27 0 53l78 78q-80 121 -80 268q0 139 72 256l-70 72q-27 27 0 53l76 74q27 27 53 0l64 -63q129 100 297 100q164 0 295 -98l61 61 q27 27 53 0l76 -74q27 -27 0 -53l-67 -69q74 -115 73 -259q0 -145 -82 -270zM626.5 197q137.5 0 236 99t98.5 236.5t-98.5 234.5t-236 97t-234.5 -97t-97 -235q0 -139 97 -237t234.5 -98z" glyph-name="currency" horiz-adv-x="1243" unicode="¤"/><glyph d="M1120 1516q41 0 21 -37l-359 -613h262q37 0 37 -37v-69q0 -37 -37 -37h-346v-150h346q37 0 37 -36v-70q0 -37 -37 -37h-346v-393q0 -37 -36 -37h-68q-37 0 -37 37v393h-344q-37 0 -37 37v70q0 37 37 36h344v150h-344q-37 0 -37 37v69q0 37 37 37h260l-358 613 q-20 37 20 37h107q25 0 37 -21l348 -594l350 594q12 20 37 21h106z" glyph-name="yen" horiz-adv-x="1245" unicode="¥"/><glyph d="M711 246q78 -55 120.5 -138t42.5 -176q0 -158 -114.5 -261t-280.5 -103q-178 0 -348 121q-29 20 -12 51l37 72q18 35 51 10q139 -96 262 -96q113 0 184.5 59t71.5 160q0 82 -59.5 140t-143.5 96t-169 80t-144 121t-59 191q0 125 64.5 208t154.5 114q-145 90 -146 270 q0 154 114 261.5t273 107.5q127 0 236 -72q31 -20 10 -51l-37 -57q-18 -31 -51 -11q-78 47 -156 48q-94 0 -165.5 -61.5t-71.5 -162.5q0 -72 55 -123t134 -85.5t159 -74.5t135 -115t55 -181q1 -227 -202 -342zM563 326q86 25 143.5 99.5t57.5 156.5q0 92 -68.5 150.5 t-165.5 58.5q-98 0 -165.5 -59.5t-67.5 -151.5q0 -174 266 -254z" glyph-name="section" horiz-adv-x="1005" unicode="§"/><glyph d="M242 1235q0 -29 -20.5 -48.5t-49.5 -19.5t-49.5 19.5t-20.5 48.5t20.5 49.5t49.5 20.5t49.5 -20.5t20.5 -49.5zM502 1235q0 -27 -19.5 -47.5t-48 -20.5t-49 19.5t-20.5 48.5t20.5 49.5t49 20.5t48 -20.5t19.5 -49.5z" glyph-name="dieresis" horiz-adv-x="604" unicode="¨"/><glyph d="M877 -12q-322 0 -548.5 225t-226.5 547q0 317 226.5 542.5t548.5 225.5q317 0 541 -225.5t224 -542.5q0 -322 -224 -547t-541 -225zM877 133q258 0 440 183.5t182 443.5q0 258 -182 440t-440 182q-260 0 -444.5 -182t-184.5 -440q0 -260 183.5 -443.5t445.5 -183.5z M881 375q-162 0 -275.5 114.5t-113.5 276.5t113.5 276.5t275.5 114.5q152 0 260 -102q18 -16 2 -39l-58 -70q-18 -20 -41 -2q-74 61 -161 62q-100 0 -170 -71t-70 -167q0 -98 70.5 -169t169.5 -71q92 0 164 66q23 20 40 -4l58 -70q16 -23 -2 -41q-123 -104 -262 -104z" glyph-name="copyright" horiz-adv-x="1744" unicode="©"/><glyph d="M596 168l-49 -47q-27 -27 -53 2l-365 366q-27 27 0 54l365 364q27 27 53 2l47 -45q27 -27 2 -51l-297 -297l297 -295q27 -26 0 -53zM879 168l-50 -47q-27 -27 -53 2l-364 366q-27 27 0 54l364 364q27 27 53 2l48 -45q27 -27 2 -51l-297 -297l297 -295q27 -26 0 -53z" glyph-name="guillemotleft" horiz-adv-x="997" unicode="«"/><glyph d="M983 356v334h-864q-37 0 -37 37v66q0 37 37 36h966q37 0 37 -36v-437q0 -37 -37 -37h-65q-37 0 -37 37z" glyph-name="logicalnot" horiz-adv-x="1245" unicode="¬"/><glyph d="M877 1528q317 0 541 -225.5t224 -542.5q0 -322 -224 -547t-541 -225q-322 0 -548.5 225t-226.5 547q0 317 226.5 542.5t548.5 225.5zM877 133q258 0 440 183.5t182 443.5q0 258 -182 440t-440 182q-260 0 -444.5 -182t-184.5 -440q0 -260 183.5 -443.5t445.5 -183.5z M973 719l178 -303q16 -29 -18 -29h-103q-23 0 -31 16l-170 297h-49v-284q0 -29 -28 -29h-82q-29 0 -29 29v727q0 29 29 28h213q98 0 166.5 -69.5t68.5 -165.5q0 -74 -39.5 -132t-105.5 -85zM780 1032v-192h103q41 0 68.5 27.5t27.5 68.5q0 39 -28.5 67.5t-67.5 28.5h-103z " glyph-name="registered" horiz-adv-x="1744" unicode="®"/><glyph d="M614 1167h-475q-37 0 -37 37v68q0 37 37 37h475q37 0 37 -37v-68q0 -37 -37 -37z" glyph-name="macron" horiz-adv-x="753" unicode="¯"/><glyph d="M395 1516q121 0 206 -85t85 -206q0 -123 -85 -208t-206 -85t-207 85t-86 208q0 121 86 206t207 85zM395.5 1374q-61.5 0 -105.5 -45t-44 -104q0 -61 44 -106.5t105.5 -45.5t105.5 45t44 107q0 59 -44 104t-105.5 45z" glyph-name="degree" horiz-adv-x="788" unicode="°"/><glyph d="M1030 856q37 0 37 -37v-67q0 -37 -37 -37h-383v-336q0 -37 -37 -37h-65q-37 0 -37 37v336h-379q-37 0 -37 37v67q0 37 37 37h379v318q0 37 37 36h65q37 0 37 -36v-318h383zM1030 0h-901q-37 0 -37 37v67q0 37 37 37h901q37 0 37 -37v-67q0 -37 -37 -37z" glyph-name="plusminus" horiz-adv-x="1148" unicode="±"/><glyph d="M176 592q-29 0 -29 29v77q0 23 13 37l325 389q47 53 43 128t-59 118q-47 41 -118.5 33t-123.5 -66q-18 -20 -41 -4l-41 33q-25 18 -6 41q78 96 200 110.5t210 -61.5q92 -78 99 -202t-68 -210l-277 -325h334q29 0 29 -29v-69q0 -29 -29 -29h-461z" glyph-name="uni00B2" horiz-adv-x="768" unicode="²"/><glyph d="M535 1112q121 -80 120 -227q0 -117 -83 -200t-199 -83q-92 0 -167 55.5t-106 147.5q-10 27 19 37l57 20q25 8 37 -16q49 -117 160 -117q70 0 114.5 45t44.5 113q0 66 -47 115t-116 49h-13q-25 0 -24 24v66q0 25 24 24h15q47 0 80.5 34t33.5 83q0 47 -33.5 81t-80.5 34 q-57 0 -97 -49q-16 -25 -38 -9l-48 31q-23 16 -8 39q70 106 195 107q98 0 165.5 -69t67.5 -167q1 -100 -73 -168z" glyph-name="uni00B3" horiz-adv-x="778" unicode="³"/><glyph d="M152 1217l-33 61q-14 31 16 49l336 182q33 18 51 -16l33 -59q18 -33 -14 -52l-340 -180q-33 -18 -49 15z" glyph-name="acute" horiz-adv-x="552" unicode="´"/><glyph d="M881 1516q37 0 37 -37v-1686q0 -37 -37 -37h-70q-37 0 -37 37v1583h-119v-1583q0 -37 -37 -37h-69q-37 0 -37 37v815q-184 16 -307 144.5t-123 308.5q0 188 129 321.5t313 133.5h357z" glyph-name="paragraph" horiz-adv-x="1050" unicode="¶"/><glyph d="M317 -494q-82 0 -141 50.5t-72 128.5q-4 33 31 32h60q23 0 32 -28q20 -61 90 -62q41 0 68 25.5t27 64.5t-28 67t-67 28h-30q-31 0 -31 30v181h125v-97q68 -23 111 -80t43 -129q0 -90 -63 -150.5t-155 -60.5z" glyph-name="cedilla" horiz-adv-x="636" unicode="¸"/><glyph d="M258 602q-29 0 -29 29v778h-133q-25 0 -24 25v57q0 25 24 25h230q29 0 28 -29v-856q0 -29 -28 -29h-68z" glyph-name="uni00B9" horiz-adv-x="487" unicode="¹"/><glyph d="M119 221l297 295l-297 297q-25 25 2 51l47 45q25 25 51 0l367 -366q27 -27 0 -54l-365 -366q-27 -29 -53 -2l-49 47q-27 26 0 53zM401 221l297 295l-297 297q-25 25 2 51l48 45q25 25 51 0l366 -366q27 -27 0 -54l-364 -366q-27 -29 -53 -2l-50 47q-27 26 0 53z" glyph-name="guillemotright" horiz-adv-x="997" unicode="»"/><glyph d="M319 602q-29 0 -28 29v778h-133q-25 0 -25 25v57q0 25 25 25h229q29 0 29 -29v-856q0 -29 -29 -29h-68zM256 0q-20 0 -27.5 13.5t2.5 31.5l891 1446q14 25 43 25h88q20 0 27.5 -13.5t-2.5 -32.5l-891 -1445q-14 -25 -43 -25h-88zM1202 0q-29 0 -28 29v147h-383 q-29 0 -29 29v67q0 23 12 37l414 586q12 18 35 18h45q29 0 28 -28v-592h76q29 0 29 -29v-59q0 -29 -29 -29h-76v-147q0 -29 -28 -29h-66zM901 293h273v385z" glyph-name="onequarter" horiz-adv-x="1533" unicode="¼"/><glyph d="M319 602q-29 0 -28 29v778h-133q-25 0 -25 25v57q0 25 25 25h229q29 0 29 -29v-856q0 -29 -29 -29h-68zM256 0q-20 0 -27.5 13.5t2.5 31.5l891 1446q14 25 43 25h88q20 0 27.5 -13.5t-2.5 -32.5l-891 -1445q-14 -25 -43 -25h-88zM1075 0q-29 0 -28 29v77q0 20 12 37 l325 389q47 53 41 125t-61 117q-47 39 -114.5 32t-119.5 -65q-18 -23 -40 -4l-46 37q-25 18 -6 41q78 96 197 110.5t213 -61.5q92 -78 99 -200.5t-68 -210.5l-277 -326h334q29 0 29 -29v-69q0 -29 -29 -29h-461z" glyph-name="onehalf" horiz-adv-x="1718" unicode="½"/><glyph d="M535 1112q121 -80 120 -227q0 -117 -83 -200t-199 -83q-92 0 -167 55.5t-106 147.5q-10 27 19 37l57 20q25 8 37 -16q49 -117 160 -117q70 0 114.5 45t44.5 113q0 66 -47 115t-116 49h-13q-25 0 -24 24v66q0 25 24 24h15q47 0 80.5 34t33.5 83q0 47 -33.5 81t-80.5 34 q-57 0 -97 -49q-16 -25 -38 -9l-48 31q-23 16 -8 39q70 106 195 107q98 0 165.5 -69t67.5 -167q1 -100 -73 -168zM399 0q-20 0 -27 13.5t3 31.5l891 1446q14 25 43 25h88q20 0 27.5 -13.5t-3.5 -32.5l-891 -1445q-14 -25 -43 -25h-88zM1346 0q-29 0 -29 29v147h-383 q-29 0 -29 29v67q0 23 13 37l413 586q12 18 35 18h45q29 0 29 -28v-592h76q29 0 28 -29v-59q0 -29 -28 -29h-76v-147q0 -29 -29 -29h-65zM1044 293h273v385z" glyph-name="threequarters" horiz-adv-x="1667" unicode="¾"/><glyph d="M453 1419q0 39 28.5 68t67.5 29t66.5 -29t27.5 -68t-27.5 -66.5t-66.5 -27.5t-67.5 27.5t-28.5 66.5zM102 436q0 168 110 294t273 155v303q0 37 37 37h70q37 0 37 -37v-406q0 -37 -37 -37h-37q-129 0 -219 -91t-90 -224q0 -113 69.5 -191.5t163.5 -102t193.5 13 t152.5 133.5q20 33 49 18l64 -29q35 -18 18 -49q-57 -111 -165.5 -176t-235.5 -65q-186 0 -319.5 133t-133.5 321z" glyph-name="questiondown" horiz-adv-x="1054" unicode="¿"/><glyph d="M821 1665l-340 180q-33 18 -14 51l33 60q18 37 51 16l336 -182q31 -18 16 -49l-33 -62q-16 -32 -49 -14zM1403 35q12 -35 -25 -35h-92q-29 0 -37 25l-110 276h-770l-111 -276q-8 -25 -37 -25h-92q-37 0 -25 35l580 1456q8 25 37 25h65q29 0 37 -25zM424 442h661l-331 832 z" glyph-name="Agrave" horiz-adv-x="1497" unicode="À"/><glyph d="M618 1679l-32 62q-14 31 16 49l336 182q33 18 51 -16l33 -60q18 -33 -14 -51l-340 -180q-34 -19 -50 14zM1403 35q12 -35 -25 -35h-92q-29 0 -37 25l-110 276h-770l-111 -276q-8 -25 -37 -25h-92q-37 0 -25 35l580 1456q8 25 37 25h65q29 0 37 -25zM424 442h661l-331 832 z" glyph-name="Aacute" horiz-adv-x="1497" unicode="Á"/><glyph d="M1020 1630h-96q-27 0 -45 21l-131 149l-123 -149q-14 -20 -45 -21h-97q-23 0 -30 14.5t10 30.5l227 246q14 16 37 16h49q23 0 37 -16l227 -246q16 -16 9.5 -30.5t-29.5 -14.5zM1403 35q12 -35 -25 -35h-92q-29 0 -37 25l-110 276h-770l-111 -276q-8 -25 -37 -25h-92 q-37 0 -25 35l580 1456q8 25 37 25h65q29 0 37 -25zM424 442h661l-331 832z" glyph-name="Acircumflex" horiz-adv-x="1497" unicode="Â"/><glyph d="M522 1651l-59 39q-35 20 -8 51q68 78 163 78q41 0 109 -29t98 -29q51 0 88 45q23 29 52 11l59 -39q35 -23 8 -52q-84 -96 -201 -96q-53 0 -114.5 28t-81.5 28q-35 0 -62 -27q-24 -24 -51 -8zM1403 35q12 -35 -25 -35h-92q-29 0 -37 25l-110 276h-770l-111 -276 q-8 -25 -37 -25h-92q-37 0 -25 35l580 1456q8 25 37 25h65q29 0 37 -25zM424 442h661l-331 832z" glyph-name="Atilde" horiz-adv-x="1497" unicode="Ã"/><glyph d="M692 1697.5q0 -28.5 -20.5 -48t-49 -19.5t-49 19.5t-20.5 48t20.5 49t49 20.5t49 -20.5t20.5 -49zM952 1698q0 -27 -19.5 -47.5t-48 -20.5t-49 19.5t-20.5 48t20.5 49t49 20.5t48 -20t19.5 -49zM1403 35q12 -35 -25 -35h-92q-29 0 -37 25l-110 276h-770l-111 -276 q-8 -25 -37 -25h-92q-37 0 -25 35l580 1456q8 25 37 25h65q29 0 37 -25zM424 442h661l-331 832z" glyph-name="Adieresis" horiz-adv-x="1497" unicode="Ä"/><glyph d="M754 2030q84 0 142 -58.5t58 -140.5t-59 -141.5t-141 -59.5t-141.5 59.5t-59.5 141.5t58.5 140.5t142.5 58.5zM754 1927q-41 0 -70 -28.5t-29 -67.5q0 -41 29 -69.5t70 -28.5t69.5 28.5t28.5 69.5q0 39 -28.5 67.5t-69.5 28.5zM1403 35q12 -35 -25 -35h-92q-29 0 -37 25 l-110 276h-770l-111 -276q-8 -25 -37 -25h-92q-37 0 -25 35l580 1456q8 25 37 25h65q29 0 37 -25zM424 442h661l-331 832z" glyph-name="Aring" horiz-adv-x="1497" unicode="Å"/><glyph d="M1503 143q37 0 37 -37v-69q0 -37 -37 -37h-653q-37 0 -37 37v266h-434l-119 -280q-8 -23 -35 -23h-98q-37 0 -23 37l641 1456q8 23 35 23h723q37 0 37 -37v-70q0 -37 -37 -37h-549v-551h519q31 0 30 -30v-66q0 -31 -30 -31h-519v-551h549zM813 444v842l-373 -842h373z " glyph-name="AE" horiz-adv-x="1642" unicode="Æ"/><glyph d="M1362 215q20 -29 -8 -51q-219 -174 -477 -176v-62q68 -23 110.5 -80t42.5 -129q0 -90 -62.5 -150.5t-154.5 -60.5q-82 0 -141.5 50.5t-71.5 128.5q-4 33 31 32h59q23 0 33 -28q20 -61 90 -62q41 0 67.5 25.5t26.5 64.5t-27.5 67t-66.5 28h-31q-31 0 -30 30v154 q-283 41 -471.5 258t-188.5 504q0 317 225.5 543.5t538.5 226.5q268 0 498 -182q27 -20 6 -52l-39 -51q-23 -33 -51 -6q-190 147 -410 147q-256 0 -440 -184t-184 -442t183 -442.5t441 -184.5q221 0 410 145q27 25 51 -6z" glyph-name="Ccedilla" horiz-adv-x="1495" unicode="Ç"/><glyph d="M596 1665l-340 180q-33 18 -14 51l32 60q18 37 52 16l336 -182q31 -18 16 -49l-33 -62q-16 -32 -49 -14zM866 143q37 0 37 -37v-69q0 -37 -37 -37h-696q-37 0 -37 37v1442q0 37 37 37h696q37 0 37 -37v-70q0 -37 -37 -37h-590v-549h555q31 0 31 -30v-66q0 -31 -31 -31 h-555v-553h590z" glyph-name="Egrave" horiz-adv-x="1015" unicode="È"/><glyph d="M393 1679l-33 62q-14 31 17 49l336 182q33 18 51 -16l33 -60q18 -33 -15 -51l-340 -180q-33 -19 -49 14zM866 143q37 0 37 -37v-69q0 -37 -37 -37h-696q-37 0 -37 37v1442q0 37 37 37h696q37 0 37 -37v-70q0 -37 -37 -37h-590v-549h555q31 0 31 -30v-66q0 -31 -31 -31 h-555v-553h590z" glyph-name="Eacute" horiz-adv-x="1015" unicode="É"/><glyph d="M795 1630h-97q-27 0 -45 21l-131 149l-123 -149q-14 -20 -45 -21h-96q-23 0 -30 14.5t10 30.5l227 246q14 16 37 16h49q23 0 37 -16l227 -246q16 -16 9.5 -30.5t-29.5 -14.5zM866 143q37 0 37 -37v-69q0 -37 -37 -37h-696q-37 0 -37 37v1442q0 37 37 37h696q37 0 37 -37 v-70q0 -37 -37 -37h-590v-549h555q31 0 31 -30v-66q0 -31 -31 -31h-555v-553h590z" glyph-name="Ecircumflex" horiz-adv-x="1015" unicode="Ê"/><glyph d="M467 1697.5q0 -28.5 -20.5 -48t-49 -19.5t-49 19.5t-20.5 48t20.5 49t49 20.5t49 -20.5t20.5 -49zM727 1698q0 -27 -19.5 -47.5t-48 -20.5t-49 19.5t-20.5 48t20.5 49t49 20.5t48 -20t19.5 -49zM866 143q37 0 37 -37v-69q0 -37 -37 -37h-696q-37 0 -37 37v1442 q0 37 37 37h696q37 0 37 -37v-70q0 -37 -37 -37h-590v-549h555q31 0 31 -30v-66q0 -31 -31 -31h-555v-553h590z" glyph-name="Edieresis" horiz-adv-x="1015" unicode="Ë"/><glyph d="M270 1649l-340 180q-33 18 -14 51l33 59q18 37 51 17l336 -182q31 -18 16 -50l-33 -61q-16 -32 -49 -14zM133 37v1442q0 37 37 37h68q37 0 36 -37v-1442q0 -37 -36 -37h-68q-37 0 -37 37z" glyph-name="Igrave" horiz-adv-x="397" unicode="Ì"/><glyph d="M68 1663l-33 61q-14 31 16 50l336 182q35 18 51 -17l33 -59q18 -33 -14 -51l-340 -180q-33 -19 -49 14zM133 37v1442q0 37 37 37h68q37 0 36 -37v-1442q0 -37 -36 -37h-68q-37 0 -37 37z" glyph-name="Iacute" horiz-adv-x="397" unicode="Í"/><glyph d="M469 1614h-96q-27 0 -45 20l-131 150l-123 -150q-16 -20 -45 -20h-97q-23 0 -28.5 14t8.5 31l227 246q14 16 37 16h49q23 0 37 -16l227 -246q16 -16 9.5 -30.5t-29.5 -14.5zM133 37v1442q0 37 37 37h68q37 0 36 -37v-1442q0 -37 -36 -37h-68q-37 0 -37 37z" glyph-name="Icircumflex" horiz-adv-x="397" unicode="Î"/><glyph d="M141 1681.5q0 -28.5 -20.5 -48t-49 -19.5t-49 19.5t-20.5 48t20.5 49t49 20.5t49 -20.5t20.5 -49zM401 1681q0 -27 -20.5 -47t-46.5 -20q-29 0 -49.5 19.5t-20.5 48t20.5 49t49 20.5t48 -20.5t19.5 -49.5zM133 37v1442q0 37 37 37h68q37 0 36 -37v-1442q0 -37 -36 -37 h-68q-37 0 -37 37z" glyph-name="Idieresis" horiz-adv-x="397" unicode="Ï"/><glyph d="M590 1516q313 0 535.5 -222.5t222.5 -536t-222.5 -535.5t-535.5 -222h-338q-37 0 -37 37v663h-51q-31 0 -31 31v82q0 31 31 31h51v635q0 37 37 37h338zM590 143q254 0 434 180.5t180 434.5t-180 434t-434 180h-232v-528h52q31 0 30 -31v-82q0 -31 -30 -31h-52v-557h232z " glyph-name="Eth" horiz-adv-x="1439" unicode="Ð"/><glyph d="M451 1651l-60 39q-35 20 -8 51q68 78 164 78q41 0 108.5 -29t98.5 -29q51 0 88 45q23 29 51 11l59 -39q35 -23 9 -52q-84 -96 -201 -96q-51 0 -112.5 28t-84.5 28q-35 0 -61 -27q-24 -24 -51 -8zM1128 1479q0 37 37 37h70q37 0 37 -37v-1442q0 -37 -37 -37h-49 q-27 0 -39 18l-871 1235v-1216q0 -37 -36 -37h-70q-37 0 -37 37v1442q0 37 37 37h49q27 0 39 -19l870 -1235v1217z" glyph-name="Ntilde" horiz-adv-x="1394" unicode="Ñ"/><glyph d="M936 1665l-340 180q-33 18 -14 51l32 60q18 37 52 16l335 -182q31 -18 17 -49l-33 -62q-16 -32 -49 -14zM874 1530q317 0 544 -226.5t227 -543.5q0 -319 -226.5 -545.5t-544.5 -226.5q-319 0 -545.5 226t-226.5 546q0 317 226.5 543.5t545.5 226.5zM874 1386 q-260 0 -444 -184t-184 -442q0 -260 184 -444.5t444 -184.5q258 0 442.5 184.5t184.5 444.5q0 258 -184.5 442t-442.5 184z" glyph-name="Ograve" horiz-adv-x="1746" unicode="Ò"/><glyph d="M733 1679l-33 62q-14 31 17 49l336 182q33 18 51 -16l33 -60q18 -33 -15 -51l-340 -180q-33 -19 -49 14zM874 1530q317 0 544 -226.5t227 -543.5q0 -319 -226.5 -545.5t-544.5 -226.5q-319 0 -545.5 226t-226.5 546q0 317 226.5 543.5t545.5 226.5zM874 1386 q-260 0 -444 -184t-184 -442q0 -260 184 -444.5t444 -184.5q258 0 442.5 184.5t184.5 444.5q0 258 -184.5 442t-442.5 184z" glyph-name="Oacute" horiz-adv-x="1746" unicode="Ó"/><glyph d="M1135 1630h-97q-27 0 -45 21l-131 149l-123 -149q-14 -20 -45 -21h-96q-23 0 -30 14.5t10 30.5l227 246q14 16 37 16h49q23 0 37 -16l227 -246q16 -16 9.5 -30.5t-29.5 -14.5zM874 1530q317 0 544 -226.5t227 -543.5q0 -319 -226.5 -545.5t-544.5 -226.5 q-319 0 -545.5 226t-226.5 546q0 317 226.5 543.5t545.5 226.5zM874 1386q-260 0 -444 -184t-184 -442q0 -260 184 -444.5t444 -184.5q258 0 442.5 184.5t184.5 444.5q0 258 -184.5 442t-442.5 184z" glyph-name="Ocircumflex" horiz-adv-x="1746" unicode="Ô"/><glyph d="M637 1651l-59 39q-35 20 -9 51q68 78 164 78q41 0 108.5 -29t98.5 -29q51 0 88 45q23 29 51 11l60 -39q35 -23 8 -52q-84 -96 -201 -96q-53 0 -114.5 28t-81.5 28q-35 0 -62 -27q-24 -24 -51 -8zM874 1530q317 0 544 -226.5t227 -543.5q0 -319 -226.5 -545.5 t-544.5 -226.5q-319 0 -545.5 226t-226.5 546q0 317 226.5 543.5t545.5 226.5zM874 1386q-260 0 -444 -184t-184 -442q0 -260 184 -444.5t444 -184.5q258 0 442.5 184.5t184.5 444.5q0 258 -184.5 442t-442.5 184z" glyph-name="Otilde" horiz-adv-x="1746" unicode="Õ"/><glyph d="M807 1697.5q0 -28.5 -20.5 -48t-49 -19.5t-49 19.5t-20.5 48t20.5 49t49 20.5t49 -20.5t20.5 -49zM1067 1698q0 -27 -19.5 -47.5t-48 -20.5t-49 19.5t-20.5 48t20.5 49t49 20.5t48 -20t19.5 -49zM874 1530q317 0 544 -226.5t227 -543.5q0 -319 -226.5 -545.5 t-544.5 -226.5q-319 0 -545.5 226t-226.5 546q0 317 226.5 543.5t545.5 226.5zM874 1386q-260 0 -444 -184t-184 -442q0 -260 184 -444.5t444 -184.5q258 0 442.5 184.5t184.5 444.5q0 258 -184.5 442t-442.5 184z" glyph-name="Odieresis" horiz-adv-x="1746" unicode="Ö"/><glyph d="M975 205q27 -27 0 -53l-45 -46q-27 -27 -53 0l-316 318l-323 -324q-27 -27 -54 0l-45 45q-27 27 0 54l324 323l-316 316q-27 27 0 53l46 45q27 27 53 0l315 -315l307 307q27 27 54 0l45 -45q27 -27 0 -54l-308 -307z" glyph-name="multiply" horiz-adv-x="1103" unicode="×"/><glyph d="M1317 1391q152 -109 240 -274t88 -357q0 -319 -226.5 -545.5t-544.5 -226.5q-205 0 -376 98l-43 -68q-14 -27 -43 -10l-62 35q-25 16 -10 43l47 76q-133 109 -209 264.5t-76 333.5q0 317 226.5 543.5t545.5 226.5q170 0 328 -74l33 53q14 27 43 11l59 -37q25 -16 11 -43z M246 760q0 -289 219 -475l659 1048q-117 53 -250 53q-260 0 -444 -184t-184 -442zM874 131q258 0 442.5 184.5t184.5 444.5q0 154 -70.5 287t-191.5 221l-666 -1059q143 -78 301 -78z" glyph-name="Oslash" horiz-adv-x="1746" unicode="Ø"/><glyph d="M668 1665l-340 180q-33 18 -15 51l33 60q18 37 51 16l336 -182q31 -18 17 -49l-33 -62q-16 -32 -49 -14zM600.5 -12q-194.5 0 -331 137t-136.5 330v1024q0 37 37 37h70q37 0 36 -37v-1024q0 -133 95.5 -228.5t228.5 -95.5t228.5 95.5t95.5 228.5v1024q0 37 37 37h69 q37 0 37 -37v-1024q0 -193 -136 -330t-330.5 -137z" glyph-name="Ugrave" horiz-adv-x="1189" unicode="Ù"/><glyph d="M465 1679l-33 62q-14 31 17 49l335 182q35 18 52 -16l32 -60q18 -33 -14 -51l-340 -180q-33 -19 -49 14zM600.5 -12q-194.5 0 -331 137t-136.5 330v1024q0 37 37 37h70q37 0 36 -37v-1024q0 -133 95.5 -228.5t228.5 -95.5t228.5 95.5t95.5 228.5v1024q0 37 37 37h69 q37 0 37 -37v-1024q0 -193 -136 -330t-330.5 -137z" glyph-name="Uacute" horiz-adv-x="1189" unicode="Ú"/><glyph d="M866 1630h-96q-27 0 -45 21l-131 149l-123 -149q-14 -20 -45 -21h-96q-23 0 -29 14.5t8 30.5l228 246q14 16 36 16h50q23 0 36 -16l228 -246q14 -16 8 -30.5t-29 -14.5zM600.5 -12q-194.5 0 -331 137t-136.5 330v1024q0 37 37 37h70q37 0 36 -37v-1024 q0 -133 95.5 -228.5t228.5 -95.5t228.5 95.5t95.5 228.5v1024q0 37 37 37h69q37 0 37 -37v-1024q0 -193 -136 -330t-330.5 -137z" glyph-name="Ucircumflex" horiz-adv-x="1189" unicode="Û"/><glyph d="M539 1697.5q0 -28.5 -20.5 -48t-49.5 -19.5t-49.5 19.5t-20.5 48t20.5 49t49.5 20.5t49.5 -20.5t20.5 -49zM799 1698q0 -27 -20.5 -47.5t-47.5 -20.5q-29 0 -49 19.5t-20 48t20 49t49 20.5t48.5 -20t19.5 -49zM600.5 -12q-194.5 0 -331 137t-136.5 330v1024q0 37 37 37 h70q37 0 36 -37v-1024q0 -133 95.5 -228.5t228.5 -95.5t228.5 95.5t95.5 228.5v1024q0 37 37 37h69q37 0 37 -37v-1024q0 -193 -136 -330t-330.5 -137z" glyph-name="Udieresis" horiz-adv-x="1189" unicode="Ü"/><glyph d="M483 1679l-32 62q-14 31 16 49l336 182q33 18 51 -16l33 -60q18 -33 -15 -51l-340 -180q-33 -19 -49 14zM1120 1516q41 0 21 -37l-443 -756v-686q0 -37 -36 -37h-68q-37 0 -37 37v686l-442 756q-20 37 20 37h107q25 0 37 -21l348 -594l350 594q12 20 37 21h106z" glyph-name="Yacute" horiz-adv-x="1245" unicode="Ý"/><glyph d="M573 1214q176 0 302 -124.5t126 -301t-125.5 -302.5t-302.5 -126h-297v-323q0 -37 -36 -37h-70q-37 0 -37 37v1442q0 37 37 37h70q37 0 36 -37v-265h297zM573 504q119 0 202 83t83 201q0 117 -83 200t-202 83h-297v-567h297z" glyph-name="Thorn" horiz-adv-x="1073" unicode="Þ"/><glyph d="M709 780q92 -55 146 -151.5t54 -206.5q0 -168 -117.5 -295t-269.5 -127h-39q-37 0 -37 37v69q0 37 37 37h33q98 0 174 84t76 192.5t-76 195.5t-174 87h-33q-37 0 -37 37v68q0 37 37 37h33q92 0 146.5 78.5t54.5 177.5q0 117 -80 194.5t-193 77.5h-168v-1335 q0 -37 -36 -37h-70q-37 0 -37 37v1442q0 37 37 37h274q172 0 294 -120t122 -290q1 -199 -151 -326z" glyph-name="germandbls" horiz-adv-x="1011" unicode="ß"/><glyph d="M360 1358q-33 18 -14 51l33 59q18 37 51 17l336 -182q31 -18 16 -50l-32 -61q-16 -33 -50 -14zM1122 1024q37 0 37 -37v-950q0 -37 -37 -37h-51q-37 0 -37 37v133q-74 -86 -179 -136t-222 -50q-219 0 -375 155.5t-156 374.5q0 217 156 371.5t375 154.5q117 0 222.5 -50 t178.5 -136v133q0 37 37 37h51zM633 127q160 0 272.5 112.5t112.5 274.5q0 158 -112.5 270.5t-272.5 112.5t-272.5 -112.5t-112.5 -270.5q0 -162 112.5 -274.5t272.5 -112.5z" glyph-name="agrave" horiz-adv-x="1282" unicode="à"/><glyph d="M498 1192l-33 61q-14 31 16 50l336 182q35 18 51 -17l33 -59q18 -33 -14 -51l-340 -180q-33 -19 -49 14zM1122 1024q37 0 37 -37v-950q0 -37 -37 -37h-51q-37 0 -37 37v133q-74 -86 -179 -136t-222 -50q-219 0 -375 155.5t-156 374.5q0 217 156 371.5t375 154.5 q117 0 222.5 -50t178.5 -136v133q0 37 37 37h51zM633 127q160 0 272.5 112.5t112.5 274.5q0 158 -112.5 270.5t-272.5 112.5t-272.5 -112.5t-112.5 -270.5q0 -162 112.5 -274.5t272.5 -112.5z" glyph-name="aacute" horiz-adv-x="1282" unicode="á"/><glyph d="M362 1143q-23 0 -28.5 14t8.5 31l227 246q14 16 37 16h49q23 0 37 -16l228 -246q14 -16 8 -30.5t-29 -14.5h-96q-27 0 -45 20l-131 150l-123 -150q-16 -20 -45 -20h-97zM1122 1024q37 0 37 -37v-950q0 -37 -37 -37h-51q-37 0 -37 37v133q-74 -86 -179 -136t-222 -50 q-219 0 -375 155.5t-156 374.5q0 217 156 371.5t375 154.5q117 0 222.5 -50t178.5 -136v133q0 37 37 37h51zM633 127q160 0 272.5 112.5t112.5 274.5q0 158 -112.5 270.5t-272.5 112.5t-272.5 -112.5t-112.5 -270.5q0 -162 112.5 -274.5t272.5 -112.5z" glyph-name="acircumflex" horiz-adv-x="1282" unicode="â"/><glyph d="M342 1202q-35 20 -8 51q68 78 164 78q41 0 108.5 -28.5t98.5 -28.5q51 0 88 45q23 29 51 10l59 -39q35 -23 8 -51q-84 -96 -200 -96q-51 0 -112.5 27.5t-84.5 27.5q-35 0 -61 -27q-25 -25 -52 -8zM1122 1024q37 0 37 -37v-950q0 -37 -37 -37h-51q-37 0 -37 37v133 q-74 -86 -179 -136t-222 -50q-219 0 -375 155.5t-156 374.5q0 217 156 371.5t375 154.5q117 0 222.5 -50t178.5 -136v133q0 37 37 37h51zM633 127q160 0 272.5 112.5t112.5 274.5q0 158 -112.5 270.5t-272.5 112.5t-272.5 -112.5t-112.5 -270.5q0 -162 112.5 -274.5 t272.5 -112.5z" glyph-name="atilde" horiz-adv-x="1282" unicode="ã"/><glyph d="M501.5 1143q-28.5 0 -49 19.5t-20.5 48t20.5 49t49 20.5t49 -20.5t20.5 -49t-20.5 -48t-49 -19.5zM764 1143q-29 0 -49.5 19.5t-20.5 48t20.5 49t49.5 20.5t48 -20.5t19 -49.5q0 -27 -20 -47t-47 -20zM1122 1024q37 0 37 -37v-950q0 -37 -37 -37h-51q-37 0 -37 37v133 q-74 -86 -179 -136t-222 -50q-219 0 -375 155.5t-156 374.5q0 217 156 371.5t375 154.5q117 0 222.5 -50t178.5 -136v133q0 37 37 37h51zM633 127q160 0 272.5 112.5t112.5 274.5q0 158 -112.5 270.5t-272.5 112.5t-272.5 -112.5t-112.5 -270.5q0 -162 112.5 -274.5 t272.5 -112.5z" glyph-name="adieresis" horiz-adv-x="1282" unicode="ä"/><glyph d="M633 1143q-84 0 -142.5 59.5t-58.5 141t58.5 140t142.5 58.5t142.5 -58.5t58.5 -140t-58.5 -141t-142.5 -59.5zM633 1440q-41 0 -69.5 -29t-28.5 -68q0 -41 28.5 -69.5t69.5 -28.5t69.5 29t28.5 69q0 39 -28.5 68t-69.5 29zM1122 1024q37 0 37 -37v-950q0 -37 -37 -37 h-51q-37 0 -37 37v133q-74 -86 -179 -136t-222 -50q-219 0 -375 155.5t-156 374.5q0 217 156 371.5t375 154.5q117 0 222.5 -50t178.5 -136v133q0 37 37 37h51zM633 127q160 0 272.5 112.5t112.5 274.5q0 158 -112.5 270.5t-272.5 112.5t-272.5 -112.5t-112.5 -270.5 q0 -162 112.5 -274.5t272.5 -112.5z" glyph-name="aring" horiz-adv-x="1282" unicode="å"/><glyph d="M1520 1040q215 0 360 -149.5t158 -388.5q0 -37 -37 -37h-842q23 -150 128.5 -243t246.5 -93q166 0 311 133q27 27 51 -4l41 -51q23 -27 0 -51q-166 -172 -403 -172q-225 0 -375 159v-106q0 -37 -37 -37h-51q-37 0 -37 37v133q-74 -86 -179 -136t-222 -50 q-219 0 -375 155.5t-156 374.5q0 217 156 371.5t375 154.5q117 0 222.5 -50t178.5 -136v133q0 37 37 37h51q37 0 37 -37v-88q148 141 361 141zM1159 586h723q-23 135 -125 226t-237 91q-131 0 -234.5 -86t-126.5 -231zM633 127q160 0 272.5 112.5t112.5 274.5 q0 158 -112.5 270.5t-272.5 112.5t-272.5 -112.5t-112.5 -270.5q0 -162 112.5 -274.5t272.5 -112.5z" glyph-name="ae" horiz-adv-x="2129" unicode="æ"/><glyph d="M940 219l41 -55q20 -31 -6 -51q-127 -106 -285 -125v-62q68 -23 111 -80t43 -129q0 -90 -62.5 -150.5t-154.5 -60.5q-82 0 -141.5 50.5t-71.5 128.5q-4 33 30 32h60q23 0 33 -28q20 -61 90 -62q41 0 67.5 25.5t26.5 64.5t-27.5 67t-66.5 28h-31q-31 0 -31 30v146 q-197 25 -330 174t-133 350q0 219 155 373.5t374 154.5q195 0 344 -127q27 -20 6 -51l-41 -55q-23 -33 -51 -6q-117 96 -258 96q-158 0 -271.5 -113.5t-113.5 -271.5t113.5 -271.5t271.5 -113.5q141 0 258 96q28 25 51 -4z" glyph-name="ccedilla" horiz-adv-x="1093" unicode="ç"/><glyph d="M682 1178l-340 180q-33 18 -14 51l32 59q18 37 52 17l336 -182q31 -18 16 -50l-33 -61q-16 -32 -49 -14zM1133 502q0 -37 -37 -37h-842q23 -150 128 -243t247 -93q166 0 311 133q27 27 51 -4l41 -51q23 -27 0 -51q-166 -172 -403 -172q-227 0 -377 162.5t-150 383.5 q0 219 148.5 364.5t363.5 145.5t361 -149t158 -389zM254 586h723q-23 135 -125 226t-238 91q-131 0 -234 -86t-126 -231z" glyph-name="egrave" horiz-adv-x="1224" unicode="è"/><glyph d="M479 1192l-33 61q-14 31 17 50l336 182q35 18 51 -17l33 -59q18 -33 -15 -51l-340 -180q-33 -19 -49 14zM1133 502q0 -37 -37 -37h-842q23 -150 128 -243t247 -93q166 0 311 133q27 27 51 -4l41 -51q23 -27 0 -51q-166 -172 -403 -172q-227 0 -377 162.5t-150 383.5 q0 219 148.5 364.5t363.5 145.5t361 -149t158 -389zM254 586h723q-23 135 -125 226t-238 91q-131 0 -234 -86t-126 -231z" glyph-name="eacute" horiz-adv-x="1224" unicode="é"/><glyph d="M881 1143h-97q-27 0 -45 20l-131 150l-123 -150q-14 -20 -45 -20h-96q-23 0 -30 14t10 31l227 246q14 16 37 16h49q23 0 37 -16l227 -246q16 -16 9.5 -30.5t-29.5 -14.5zM1133 502q0 -37 -37 -37h-842q23 -150 128 -243t247 -93q166 0 311 133q27 27 51 -4l41 -51 q23 -27 0 -51q-166 -172 -403 -172q-227 0 -377 162.5t-150 383.5q0 219 148.5 364.5t363.5 145.5t361 -149t158 -389zM254 586h723q-23 135 -125 226t-238 91q-131 0 -234 -86t-126 -231z" glyph-name="ecircumflex" horiz-adv-x="1224" unicode="ê"/><glyph d="M553 1210.5q0 -28.5 -20.5 -48t-49 -19.5t-49 19.5t-20.5 48t20.5 49t49 20.5t49 -20.5t20.5 -49zM813 1210q0 -27 -19.5 -47t-48 -20t-49 19.5t-20.5 48t20.5 49t49 20.5t48 -20.5t19.5 -49.5zM1133 502q0 -37 -37 -37h-842q23 -150 128 -243t247 -93q166 0 311 133 q27 27 51 -4l41 -51q23 -27 0 -51q-166 -172 -403 -172q-227 0 -377 162.5t-150 383.5q0 219 148.5 364.5t363.5 145.5t361 -149t158 -389zM254 586h723q-23 135 -125 226t-238 91q-131 0 -234 -86t-126 -231z" glyph-name="edieresis" horiz-adv-x="1224" unicode="ë"/><glyph d="M262 1178l-340 180q-33 18 -14 51l33 59q18 37 51 17l336 -182q31 -18 16 -50l-33 -61q-16 -32 -49 -14zM231 0h-71q-37 0 -37 37v950q0 37 37 37h71q37 0 37 -37v-950q0 -37 -37 -37z" glyph-name="igrave" horiz-adv-x="380" unicode="ì"/><glyph d="M59 1192l-32 61q-14 31 16 50l336 182q35 18 51 -17l33 -59q18 -33 -14 -51l-340 -180q-34 -19 -50 14zM231 0h-71q-37 0 -37 37v950q0 37 37 37h71q37 0 37 -37v-950q0 -37 -37 -37z" glyph-name="iacute" horiz-adv-x="380" unicode="í"/><glyph d="M461 1143h-96q-27 0 -46 20l-131 150l-122 -150q-16 -20 -46 -20h-96q-23 0 -29 14t9 31l227 246q14 16 37 16h49q23 0 37 -16l227 -246q14 -16 8.5 -30.5t-28.5 -14.5zM231 0h-71q-37 0 -37 37v950q0 37 37 37h71q37 0 37 -37v-950q0 -37 -37 -37z" glyph-name="icircumflex" horiz-adv-x="380" unicode="î"/><glyph d="M133 1210.5q0 -28.5 -20.5 -48t-49 -19.5t-49 19.5t-20.5 48t20.5 49t49 20.5t49 -20.5t20.5 -49zM393 1210q0 -27 -20.5 -47t-46.5 -20q-29 0 -49.5 19.5t-20.5 48t20.5 49t49 20.5t48 -20.5t19.5 -49.5zM231 0h-71q-37 0 -37 37v950q0 37 37 37h71q37 0 37 -37v-950 q0 -37 -37 -37z" glyph-name="idieresis" horiz-adv-x="380" unicode="ï"/><glyph d="M1053 729q57 -94 57 -237q0 -207 -147.5 -355.5t-356.5 -148.5t-356.5 148.5t-147.5 355.5q0 211 147.5 360t356.5 149q59 0 135 -20l-129 215l-108 -63q-31 -18 -49 12l-37 61q-18 31 14 49l107 64l-56 94q-18 31 15 51l55 33q31 18 49 -12l57 -94l111 65q31 18 49 -12 l37 -62q18 -31 -14 -49l-111 -65zM606.5 131q149.5 0 257 106.5t107.5 254t-106.5 257t-258.5 109.5q-150 0 -257 -107.5t-107 -258.5q0 -147 107.5 -254t257 -107z" glyph-name="eth" horiz-adv-x="1202" unicode="ð"/><glyph d="M260 1202q-35 20 -8 51q68 78 164 78q41 0 108.5 -28.5t98.5 -28.5q51 0 88 45q23 29 51 10l59 -39q35 -23 8 -51q-84 -96 -200 -96q-51 0 -112.5 27.5t-84.5 27.5q-35 0 -61 -27q-25 -25 -52 -8zM553 1040q176 0 301 -124.5t125 -301.5v-577q0 -37 -37 -37h-70 q-37 0 -36 37v577q0 117 -84 201t-201 84q-119 0 -202 -84t-83 -201v-577q0 -37 -37 -37h-69q-37 0 -37 37v950q0 37 37 37h53q37 0 37 -37v-72q125 125 303 125z" glyph-name="ntilde" horiz-adv-x="1081" unicode="ñ"/><glyph d="M688 1178l-340 180q-33 18 -14 51l33 59q18 37 51 17l336 -182q31 -18 16 -50l-33 -61q-16 -32 -49 -14zM620.5 1040q219.5 0 374 -155.5t154.5 -372.5t-154.5 -372.5t-374 -155.5t-374 155.5t-154.5 372.5t154.5 372.5t374 155.5zM620.5 895q-159.5 0 -272 -111.5 t-112.5 -271.5t112.5 -272.5t272 -112.5t271.5 112.5t112 272.5t-112 271.5t-271.5 111.5z" glyph-name="ograve" horiz-adv-x="1241" unicode="ò"/><glyph d="M485 1192l-32 61q-14 31 16 50l336 182q35 18 51 -17l33 -59q18 -33 -15 -51l-339 -180q-34 -19 -50 14zM620.5 1040q219.5 0 374 -155.5t154.5 -372.5t-154.5 -372.5t-374 -155.5t-374 155.5t-154.5 372.5t154.5 372.5t374 155.5zM620.5 895q-159.5 0 -272 -111.5 t-112.5 -271.5t112.5 -272.5t272 -112.5t271.5 112.5t112 272.5t-112 271.5t-271.5 111.5z" glyph-name="oacute" horiz-adv-x="1241" unicode="ó"/><glyph d="M887 1143h-96q-27 0 -46 20l-131 150l-122 -150q-16 -20 -46 -20h-96q-23 0 -29 14t9 31l227 246q14 16 37 16h49q23 0 37 -16l227 -246q14 -16 8.5 -30.5t-28.5 -14.5zM620.5 1040q219.5 0 374 -155.5t154.5 -372.5t-154.5 -372.5t-374 -155.5t-374 155.5t-154.5 372.5 t154.5 372.5t374 155.5zM620.5 895q-159.5 0 -272 -111.5t-112.5 -271.5t112.5 -272.5t272 -112.5t271.5 112.5t112 272.5t-112 271.5t-271.5 111.5z" glyph-name="ocircumflex" horiz-adv-x="1241" unicode="ô"/><glyph d="M389 1163l-59 39q-35 20 -8 51q68 78 163 78q41 0 109 -28.5t98 -28.5q51 0 88 45q23 29 51 10l60 -39q35 -23 8 -51q-84 -96 -201 -96q-51 0 -113.5 27.5t-82.5 27.5q-35 0 -62 -27q-24 -24 -51 -8zM620.5 1040q219.5 0 374 -155.5t154.5 -372.5t-154.5 -372.5 t-374 -155.5t-374 155.5t-154.5 372.5t154.5 372.5t374 155.5zM620.5 895q-159.5 0 -272 -111.5t-112.5 -271.5t112.5 -272.5t272 -112.5t271.5 112.5t112 272.5t-112 271.5t-271.5 111.5z" glyph-name="otilde" horiz-adv-x="1241" unicode="õ"/><glyph d="M559 1210.5q0 -28.5 -20.5 -48t-49 -19.5t-49 19.5t-20.5 48t20.5 49t49 20.5t49 -20.5t20.5 -49zM819 1210q0 -27 -20.5 -47t-46.5 -20q-29 0 -49.5 19.5t-20.5 48t20.5 49t49 20.5t48 -20.5t19.5 -49.5zM620.5 1040q219.5 0 374 -155.5t154.5 -372.5t-154.5 -372.5 t-374 -155.5t-374 155.5t-154.5 372.5t154.5 372.5t374 155.5zM620.5 895q-159.5 0 -272 -111.5t-112.5 -271.5t112.5 -272.5t272 -112.5t271.5 112.5t112 272.5t-112 271.5t-271.5 111.5z" glyph-name="odieresis" horiz-adv-x="1241" unicode="ö"/><glyph d="M670 897q0 -39 -29 -67.5t-68 -28.5q-41 0 -67.5 27.5t-26.5 68.5t26.5 67.5t67.5 26.5q39 0 68 -27.5t29 -66.5zM1018 526h-889q-37 0 -37 37v66q0 37 37 37h889q37 0 37 -37v-66q0 -37 -37 -37zM670 297q0 -39 -29 -65.5t-68 -26.5q-41 0 -67.5 26.5t-26.5 65.5 q0 41 26.5 69.5t67.5 28.5q39 0 68 -28.5t29 -69.5z" glyph-name="divide" horiz-adv-x="1136" unicode="÷"/><glyph d="M948 934q98 -76 154.5 -185.5t56.5 -236.5q0 -217 -155.5 -372.5t-372.5 -155.5q-125 0 -240 57l-14 -25q-14 -27 -43 -10l-62 35q-25 16 -10 43l21 33q-180 158 -181 395q0 217 156 372.5t373 155.5q109 0 203 -41l16 25q14 27 43 10l59 -37q25 -16 11 -43zM246 512 q0 -160 112 -272l398 634q-66 20 -125 21q-160 0 -272.5 -111.5t-112.5 -271.5zM631 127q160 0 271.5 112.5t111.5 272.5q0 180 -142 299l-403 -649q76 -35 162 -35z" glyph-name="oslash" horiz-adv-x="1261" unicode="ø"/><glyph d="M610 1178l-340 180q-33 18 -14 51l33 59q18 37 51 17l336 -182q31 -18 16 -50l-33 -61q-16 -32 -49 -14zM549 -16q-176 0 -301 124.5t-125 301.5v577q0 37 37 37h67q37 0 37 -37v-577q0 -117 83 -201t202 -84q117 0 199.5 84t82.5 201v577q0 37 37 37h70q37 0 37 -37 v-577q0 -176 -125 -301t-301 -125z" glyph-name="ugrave" horiz-adv-x="1077" unicode="ù"/><glyph d="M408 1192l-33 61q-14 31 16 50l336 182q35 18 51 -17l33 -59q18 -33 -14 -51l-340 -180q-33 -19 -49 14zM549 -16q-176 0 -301 124.5t-125 301.5v577q0 37 37 37h67q37 0 37 -37v-577q0 -117 83 -201t202 -84q117 0 199.5 84t82.5 201v577q0 37 37 37h70q37 0 37 -37 v-577q0 -176 -125 -301t-301 -125z" glyph-name="uacute" horiz-adv-x="1077" unicode="ú"/><glyph d="M809 1143h-96q-27 0 -45 20l-131 150l-123 -150q-16 -20 -45 -20h-97q-23 0 -28.5 14t8.5 31l227 246q14 16 37 16h49q23 0 37 -16l227 -246q14 -16 8.5 -30.5t-28.5 -14.5zM549 -16q-176 0 -301 124.5t-125 301.5v577q0 37 37 37h67q37 0 37 -37v-577q0 -117 83 -201 t202 -84q117 0 199.5 84t82.5 201v577q0 37 37 37h70q37 0 37 -37v-577q0 -176 -125 -301t-301 -125z" glyph-name="ucircumflex" horiz-adv-x="1077" unicode="û"/><glyph d="M481 1210.5q0 -28.5 -20.5 -48t-49 -19.5t-49 19.5t-20.5 48t20.5 49t49 20.5t49 -20.5t20.5 -49zM741 1210q0 -27 -20.5 -47t-46.5 -20q-29 0 -49.5 19.5t-20.5 48t20.5 49t49 20.5t48 -20.5t19.5 -49.5zM549 -16q-176 0 -301 124.5t-125 301.5v577q0 37 37 37h67 q37 0 37 -37v-577q0 -117 83 -201t202 -84q117 0 199.5 84t82.5 201v577q0 37 37 37h70q37 0 37 -37v-577q0 -176 -125 -301t-301 -125z" glyph-name="udieresis" horiz-adv-x="1077" unicode="ü"/><glyph d="M397 1192l-32 61q-14 31 16 50l336 182q35 18 51 -17l33 -59q18 -33 -15 -51l-340 -180q-33 -19 -49 14zM983 1024q37 0 25 -35l-437 -1061q-102 -246 -344 -342q-33 -12 -47 23l-24 61q-12 35 20 49q111 45 177.5 124t115.5 210l-383 936q-12 35 25 35h88q29 0 37 -25 l311 -759l309 759q10 25 37 25h90z" glyph-name="yacute" horiz-adv-x="1124" unicode="ý"/><glyph d="M649 -16q-229 0 -385 166v-523q0 -37 -37 -37h-67q-37 0 -37 37v1770q0 37 37 37h67q37 0 37 -37v-518q152 162 385 161q219 0 374 -154.5t155 -373.5t-155 -373.5t-374 -154.5zM649 895q-160 0 -272.5 -111.5t-112.5 -271.5t114 -272.5t271 -112.5q160 0 272.5 112.5 t112.5 272.5t-112.5 271.5t-272.5 111.5z" glyph-name="thorn" horiz-adv-x="1269" unicode="þ"/><glyph d="M471 1210.5q0 -28.5 -20.5 -48t-49 -19.5t-49 19.5t-20.5 48t20.5 49t49 20.5t49 -20.5t20.5 -49zM731 1210q0 -27 -19.5 -47t-48 -20t-49 19.5t-20.5 48t20.5 49t49 20.5t48 -20.5t19.5 -49.5zM983 1024q37 0 25 -35l-437 -1061q-102 -246 -344 -342q-33 -12 -47 23 l-24 61q-12 35 20 49q111 45 177.5 124t115.5 210l-383 936q-12 35 25 35h88q29 0 37 -25l311 -759l309 759q10 25 37 25h90z" glyph-name="ydieresis" horiz-adv-x="1124" unicode="ÿ"/><glyph d="M1004 1630h-476q-37 0 -36 37v68q0 37 36 37h476q37 0 36 -37v-68q1 -37 -36 -37zM1403 35q12 -35 -25 -35h-92q-29 0 -37 25l-110 276h-770l-111 -276q-8 -25 -37 -25h-92q-37 0 -25 35l580 1456q8 25 37 25h65q29 0 37 -25zM424 442h661l-331 832z" glyph-name="Amacron" horiz-adv-x="1497" unicode="Ā"/><glyph d="M408 1143q-37 0 -37 37v67q0 37 37 37h475q37 0 37 -37v-67q0 -37 -37 -37h-475zM1122 1024q37 0 37 -37v-950q0 -37 -37 -37h-51q-37 0 -37 37v133q-74 -86 -179 -136t-222 -50q-219 0 -375 155.5t-156 374.5q0 217 156 371.5t375 154.5q117 0 222.5 -50t178.5 -136v133 q0 37 37 37h51zM633 127q160 0 272.5 112.5t112.5 274.5q0 158 -112.5 270.5t-272.5 112.5t-272.5 -112.5t-112.5 -270.5q0 -162 112.5 -274.5t272.5 -112.5z" glyph-name="amacron" horiz-adv-x="1282" unicode="ā"/><glyph d="M753.5 1628q-108.5 0 -174 63.5t-65.5 149.5v14q0 37 37 37h59q31 0 31 -30v-9q0 -43 33 -71.5t80 -28.5t77.5 27.5t30.5 72.5v9q0 31 31 30h59q37 0 37 -37v-14q0 -86 -63.5 -149.5t-172 -63.5zM1403 35q12 -35 -25 -35h-92q-29 0 -37 25l-110 276h-770l-111 -276 q-8 -25 -37 -25h-92q-37 0 -25 35l580 1456q8 25 37 25h65q29 0 37 -25zM424 442h661l-331 832z" glyph-name="Abreve" horiz-adv-x="1497" unicode="Ă"/><glyph d="M632.5 1141q-108.5 0 -174 63.5t-65.5 149.5v14q0 37 37 37h59q31 0 31 -31v-8q0 -43 33 -71.5t80 -28.5t77.5 27.5t30.5 72.5v8q0 31 31 31h59q37 0 37 -37v-14q0 -86 -63.5 -149.5t-172 -63.5zM1122 1024q37 0 37 -37v-950q0 -37 -37 -37h-51q-37 0 -37 37v133 q-74 -86 -179 -136t-222 -50q-219 0 -375 155.5t-156 374.5q0 217 156 371.5t375 154.5q117 0 222.5 -50t178.5 -136v133q0 37 37 37h51zM633 127q160 0 272.5 112.5t112.5 274.5q0 158 -112.5 270.5t-272.5 112.5t-272.5 -112.5t-112.5 -270.5q0 -162 112.5 -274.5 t272.5 -112.5z" glyph-name="abreve" horiz-adv-x="1282" unicode="ă"/><glyph d="M1554 -328q12 -23 -10 -32q-43 -16 -88 -17q-102 0 -174 72t-72 176q0 86 41 149l-2 3v2l-110 276h-770l-111 -276q-8 -25 -37 -25h-92q-37 0 -25 35l580 1456q8 25 37 25h65q29 0 37 -25l580 -1456q12 -35 -25 -35h-24q-41 -66 -41 -131q0 -78 60.5 -125t133.5 -31 q23 4 31 -12zM424 442h661l-331 832z" glyph-name="Aogonek" horiz-adv-x="1509" unicode="Ą"/><glyph d="M1337 -328q12 -23 -10 -32q-43 -16 -88 -17q-102 0 -174 72t-72 176q0 88 43 152q-2 4 -2 14v133q-74 -86 -179 -136t-222 -50q-219 0 -375 155.5t-156 374.5q0 217 156 371.5t375 154.5q117 0 222.5 -50t178.5 -136v133q0 37 37 37h51q37 0 37 -37v-950q0 -25 -18 -33 q-45 -66 -45 -135q0 -78 60.5 -125t133.5 -31q23 4 31 -12zM633 127q160 0 272.5 112.5t112.5 274.5q0 158 -112.5 270.5t-272.5 112.5t-272.5 -112.5t-112.5 -270.5q0 -162 112.5 -274.5t272.5 -112.5z" glyph-name="aogonek" horiz-adv-x="1282" unicode="ą"/><glyph d="M694 1679l-32 62q-14 31 16 49l336 182q35 18 51 -16l33 -60q18 -33 -15 -51l-340 -180q-33 -19 -49 14zM866 -12q-322 0 -548 225t-226 545q0 317 225.5 543.5t538.5 226.5q268 0 498 -182q27 -20 6 -52l-39 -51q-23 -33 -51 -6q-190 147 -410 147q-256 0 -440 -184 t-184 -442t183 -442.5t441 -184.5q221 0 410 145q27 25 51 -6l41 -55q20 -29 -8 -51q-224 -176 -488 -176z" glyph-name="Cacute" horiz-adv-x="1495" unicode="Ć"/><glyph d="M496 1192l-33 61q-14 31 16 50l336 182q35 18 51 -17l33 -59q18 -33 -14 -51l-340 -180q-33 -19 -49 14zM631 -16q-219 0 -374 154.5t-155 373.5t155 373.5t374 154.5q195 0 344 -127q27 -20 6 -51l-41 -55q-23 -33 -51 -6q-117 96 -258 96q-158 0 -271.5 -113.5 t-113.5 -271.5t113.5 -271.5t271.5 -113.5q141 0 258 96q29 25 51 -4l41 -55q20 -31 -6 -51q-154 -129 -344 -129z" glyph-name="cacute" horiz-adv-x="1093" unicode="ć"/><glyph d="M1116 1892l-227 -245q-14 -16 -37 -17h-49q-23 0 -37 17l-227 245q-14 16 -8 30.5t28 14.5h96q29 0 45 -20l123 -150l131 150q18 20 45 20h97q23 0 28.5 -14.5t-8.5 -30.5zM866 -12q-322 0 -548 225t-226 545q0 317 225.5 543.5t538.5 226.5q268 0 498 -182q27 -20 6 -52 l-39 -51q-23 -33 -51 -6q-190 147 -410 147q-256 0 -440 -184t-184 -442t183 -442.5t441 -184.5q221 0 410 145q27 25 51 -6l41 -55q20 -29 -8 -51q-224 -176 -488 -176z" glyph-name="Ccaron" horiz-adv-x="1495" unicode="Č"/><glyph d="M918 1405l-228 -246q-14 -16 -37 -16h-49q-23 0 -37 16l-227 246q-16 16 -9 30.5t29 14.5h97q31 0 45 -20l123 -150l131 150q18 20 45 20h96q23 0 30 -14.5t-9 -30.5zM631 -16q-219 0 -374 154.5t-155 373.5t155 373.5t374 154.5q195 0 344 -127q27 -20 6 -51l-41 -55 q-23 -33 -51 -6q-117 96 -258 96q-158 0 -271.5 -113.5t-113.5 -271.5t113.5 -271.5t271.5 -113.5q141 0 258 96q29 25 51 -4l41 -55q20 -31 -6 -51q-154 -129 -344 -129z" glyph-name="ccaron" horiz-adv-x="1093" unicode="č"/><glyph d="M778 1630h-475q-37 0 -37 37v68q0 37 37 37h475q37 0 37 -37v-68q0 -37 -37 -37zM866 143q37 0 37 -37v-69q0 -37 -37 -37h-696q-37 0 -37 37v1442q0 37 37 37h696q37 0 37 -37v-70q0 -37 -37 -37h-590v-549h555q31 0 31 -30v-66q0 -31 -31 -31h-555v-553h590z" glyph-name="Emacron" horiz-adv-x="1015" unicode="Ē"/><glyph d="M864 1143h-475q-37 0 -37 37v67q0 37 37 37h475q37 0 37 -37v-67q0 -37 -37 -37zM1133 502q0 -37 -37 -37h-842q23 -150 128 -243t247 -93q166 0 311 133q27 27 51 -4l41 -51q23 -27 0 -51q-166 -172 -403 -172q-227 0 -377 162.5t-150 383.5q0 219 148.5 364.5 t363.5 145.5t361 -149t158 -389zM254 586h723q-23 135 -125 226t-238 91q-131 0 -234 -86t-126 -231z" glyph-name="emacron" horiz-adv-x="1224" unicode="ē"/><glyph d="M592 1697.5q0 -28.5 -20.5 -48t-49 -19.5t-49 19.5t-20.5 48t20.5 49t49 20.5t49 -20.5t20.5 -49zM866 143q37 0 37 -37v-69q0 -37 -37 -37h-696q-37 0 -37 37v1442q0 37 37 37h696q37 0 37 -37v-70q0 -37 -37 -37h-590v-549h555q31 0 31 -30v-66q0 -31 -31 -31h-555 v-553h590z" glyph-name="Edotaccent" horiz-adv-x="1015" unicode="Ė"/><glyph d="M678 1210.5q0 -28.5 -20.5 -48t-49 -19.5t-49 19.5t-20.5 48t20.5 49t49 20.5t49 -20.5t20.5 -49zM1133 502q0 -37 -37 -37h-842q23 -150 128 -243t247 -93q166 0 311 133q27 27 51 -4l41 -51q23 -27 0 -51q-166 -172 -403 -172q-227 0 -377 162.5t-150 383.5 q0 219 148.5 364.5t363.5 145.5t361 -149t158 -389zM254 586h723q-23 135 -125 226t-238 91q-131 0 -234 -86t-126 -231z" glyph-name="edotaccent" horiz-adv-x="1224" unicode="ė"/><glyph d="M1073 -328q12 -23 -10 -32q-43 -16 -88 -17q-102 0 -174 72t-72 176q0 68 29 129h-588q-37 0 -37 37v1442q0 37 37 37h696q37 0 37 -37v-70q0 -37 -37 -37h-590v-549h555q31 0 31 -30v-66q0 -31 -31 -31h-555v-553h590q37 0 37 -37v-69q0 -29 -29 -37q-43 -63 -43 -131 q0 -78 60.5 -125t134.5 -31q23 4 31 -12z" glyph-name="Eogonek" horiz-adv-x="1015" unicode="Ę"/><glyph d="M614 1040q215 0 360.5 -149.5t158.5 -388.5q0 -37 -37 -37h-842q23 -150 128 -243t247 -93q166 0 311 133q27 27 51 -4l41 -51q23 -27 0 -51q-121 -125 -293 -162q-39 -63 -39 -125q0 -78 60.5 -125t134.5 -31q23 4 31 -12l16 -29q12 -23 -10 -32q-43 -16 -88 -17 q-102 0 -174 72t-72 176q0 57 23 113q-225 2 -372 164.5t-147 382t148.5 364.5t363.5 145zM254 586h723q-23 135 -125 226t-238 91q-131 0 -234 -86t-126 -231z" glyph-name="eogonek" horiz-adv-x="1224" unicode="ę"/><glyph d="M815 1892l-227 -245q-14 -16 -37 -17h-49q-23 0 -37 17l-227 245q-16 16 -9 30.5t29 14.5h96q31 0 45 -20l123 -150l131 150q18 20 45 20h97q23 0 29.5 -14.5t-9.5 -30.5zM866 143q37 0 37 -37v-69q0 -37 -37 -37h-696q-37 0 -37 37v1442q0 37 37 37h696q37 0 37 -37v-70 q0 -37 -37 -37h-590v-549h555q31 0 31 -30v-66q0 -31 -31 -31h-555v-553h590z" glyph-name="Ecaron" horiz-adv-x="1015" unicode="Ě"/><glyph d="M901 1405l-227 -246q-14 -16 -37 -16h-49q-23 0 -37 16l-227 246q-16 16 -9 30.5t29 14.5h96q31 0 45 -20l123 -150l131 150q18 20 45 20h97q23 0 29.5 -14.5t-9.5 -30.5zM1133 502q0 -37 -37 -37h-842q23 -150 128 -243t247 -93q166 0 311 133q27 27 51 -4l41 -51 q23 -27 0 -51q-166 -172 -403 -172q-227 0 -377 162.5t-150 383.5q0 219 148.5 364.5t363.5 145.5t361 -149t158 -389zM254 586h723q-23 135 -125 226t-238 91q-131 0 -234 -86t-126 -231z" glyph-name="ecaron" horiz-adv-x="1224" unicode="ě"/><glyph d="M453 1614h-476q-37 0 -36 37v67q0 37 36 37h476q37 0 36 -37v-67q1 -37 -36 -37zM133 37v1442q0 37 37 37h68q37 0 36 -37v-1442q0 -37 -36 -37h-68q-37 0 -37 37z" glyph-name="Imacron" horiz-adv-x="397" unicode="Ī"/><glyph d="M444 1143h-475q-37 0 -37 37v67q0 37 37 37h475q37 0 37 -37v-67q0 -37 -37 -37zM231 0h-71q-37 0 -37 37v950q0 37 37 37h71q37 0 37 -37v-950q0 -37 -37 -37z" glyph-name="imacron" horiz-adv-x="380" unicode="ī"/><glyph d="M451 -328q12 -23 -11 -32q-43 -16 -88 -17q-102 0 -174 72t-72 176q0 78 35 141q-8 12 -8 25v1442q0 37 37 37h68q37 0 36 -37v-1442q0 -25 -22 -35q-43 -68 -43 -133q0 -78 60.5 -125t133.5 -31q23 4 31 -12z" glyph-name="Iogonek" horiz-adv-x="397" unicode="Į"/><glyph d="M188.5 1143q-28.5 0 -49 19.5t-20.5 48t20.5 49t49 20.5t49 -20.5t20.5 -49t-20.5 -48t-49 -19.5zM426 -328q12 -23 -10 -32q-43 -16 -88 -17q-102 0 -174 72t-72 176q0 88 43 152q-2 4 -2 14v950q0 37 37 37h71q37 0 37 -37v-950q0 -37 -37 -37h-6q-41 -66 -41 -131 q0 -78 60.5 -125t134.5 -31q23 4 31 -12z" glyph-name="iogonek" horiz-adv-x="380" unicode="į"/><glyph d="M231 0h-71q-37 0 -37 37v950q0 37 37 37h71q37 0 37 -37v-950q0 -37 -37 -37z" glyph-name="dotlessi" horiz-adv-x="380" unicode="ı"/><glyph d="M184 1679l-32 62q-14 31 16 49l336 182q33 18 51 -16l33 -60q18 -33 -15 -51l-340 -180q-33 -19 -49 14zM829 0h-659q-37 0 -37 37v1442q0 37 37 37h70q37 0 36 -37v-1336h553q37 0 37 -37v-69q0 -37 -37 -37z" glyph-name="Lacute" horiz-adv-x="948" unicode="Ĺ"/><glyph d="M160 1606l-33 61q-14 31 16 49l336 182q33 18 51 -16l33 -59q18 -33 -14 -51l-340 -181q-33 -18 -49 15zM459 143q27 0 26 -37v-69q0 -37 -36 -37h-19q-137 0 -217 76t-80 239v1082q0 37 37 37h70q37 0 36 -37v-1082q0 -84 43 -128t111 -44h29z" glyph-name="lacute" horiz-adv-x="546" unicode="ĺ"/><glyph d="M911 143q37 0 37 -37v-69q0 -37 -37 -37h-659q-37 0 -37 37v514l-45 -25q-14 -8 -25.5 -2t-11.5 23v100q0 25 21 37l61 35v760q0 37 37 37h70q37 0 36 -37v-682l445 245q16 8 26.5 2t10.5 -22v-100q0 -25 -21 -37l-461 -254v-488h553z" glyph-name="Lslash" horiz-adv-x="1030" unicode="Ł"/><glyph d="M520 143q27 0 27 -37v-69q0 -37 -37 -37h-18q-137 0 -217 76t-80 239v230l-35 -19q-16 -8 -26.5 -2t-10.5 23v100q0 25 20 37l52 29v684q0 37 36 37h70q37 0 37 -37v-606l162 90q16 8 26.5 2t10.5 -23v-100q0 -25 -21 -37l-178 -98v-310q0 -84 43 -128t111 -44h28z" glyph-name="lslash" horiz-adv-x="608" unicode="ł"/><glyph d="M547 1679l-33 62q-14 31 16 49l336 182q35 18 52 -16l32 -60q18 -33 -14 -51l-340 -180q-33 -19 -49 14zM1128 1479q0 37 37 37h70q37 0 37 -37v-1442q0 -37 -37 -37h-49q-27 0 -39 18l-871 1235v-1216q0 -37 -36 -37h-70q-37 0 -37 37v1442q0 37 37 37h49q27 0 39 -19 l870 -1235v1217z" glyph-name="Nacute" horiz-adv-x="1394" unicode="Ń"/><glyph d="M416 1192l-33 61q-14 31 16 50l336 182q35 18 51 -17l33 -59q18 -33 -14 -51l-340 -180q-33 -19 -49 14zM553 1040q176 0 301 -124.5t125 -301.5v-577q0 -37 -37 -37h-70q-37 0 -36 37v577q0 117 -84 201t-201 84q-119 0 -202 -84t-83 -201v-577q0 -37 -37 -37h-69 q-37 0 -37 37v950q0 37 37 37h53q37 0 37 -37v-72q125 125 303 125z" glyph-name="nacute" horiz-adv-x="1081" unicode="ń"/><glyph d="M969 1892l-228 -245q-14 -16 -36 -17h-50q-23 0 -37 17l-227 245q-14 16 -8 30.5t29 14.5h96q29 0 45 -20l123 -150l131 150q18 20 45 20h96q23 0 30 -14.5t-9 -30.5zM1128 1479q0 37 37 37h70q37 0 37 -37v-1442q0 -37 -37 -37h-49q-27 0 -39 18l-871 1235v-1216 q0 -37 -36 -37h-70q-37 0 -37 37v1442q0 37 37 37h49q27 0 39 -19l870 -1235v1217z" glyph-name="Ncaron" horiz-adv-x="1394" unicode="Ň"/><glyph d="M487 1159l-227 246q-14 16 -8 30.5t29 14.5h96q31 0 45 -20l123 -150l131 150q18 20 45 20h96q23 0 29 -14.5t-8 -30.5l-228 -246q-14 -16 -37 -16h-49q-23 0 -37 16zM553 1040q176 0 301 -124.5t125 -301.5v-577q0 -37 -37 -37h-70q-37 0 -36 37v577q0 117 -84 201 t-201 84q-119 0 -202 -84t-83 -201v-577q0 -37 -37 -37h-69q-37 0 -37 37v950q0 37 37 37h53q37 0 37 -37v-72q125 125 303 125z" glyph-name="ncaron" horiz-adv-x="1081" unicode="ň"/><glyph d="M1118 1630h-475q-37 0 -37 37v68q0 37 37 37h475q37 0 37 -37v-68q0 -37 -37 -37zM874 1530q317 0 544 -226.5t227 -543.5q0 -319 -226.5 -545.5t-544.5 -226.5q-319 0 -545.5 226t-226.5 546q0 317 226.5 543.5t545.5 226.5zM874 1386q-260 0 -444 -184t-184 -442 q0 -260 184 -444.5t444 -184.5q258 0 442.5 184.5t184.5 444.5q0 258 -184.5 442t-442.5 184z" glyph-name="Omacron" horiz-adv-x="1746" unicode="Ō"/><glyph d="M870 1143h-475q-37 0 -37 37v67q0 37 37 37h475q37 0 37 -37v-67q0 -37 -37 -37zM620.5 1040q219.5 0 374 -155.5t154.5 -372.5t-154.5 -372.5t-374 -155.5t-374 155.5t-154.5 372.5t154.5 372.5t374 155.5zM620.5 895q-159.5 0 -272 -111.5t-112.5 -271.5t112.5 -272.5 t272 -112.5t271.5 112.5t112 272.5t-112 271.5t-271.5 111.5z" glyph-name="omacron" horiz-adv-x="1241" unicode="ō"/><glyph d="M713 1624l-54 47q-27 27 -2 51l256 287q27 27 52 2l51 -45q29 -27 4 -51l-256 -289q-26 -27 -51 -2zM969 1624l-54 47q-27 27 -2 51l256 287q27 27 52 2l51 -45q29 -27 4 -51l-256 -289q-26 -27 -51 -2zM874 1530q317 0 544 -226.5t227 -543.5q0 -319 -226.5 -545.5 t-544.5 -226.5q-319 0 -545.5 226t-226.5 546q0 317 226.5 543.5t545.5 226.5zM874 1386q-260 0 -444 -184t-184 -442q0 -260 184 -444.5t444 -184.5q258 0 442.5 184.5t184.5 444.5q0 258 -184.5 442t-442.5 184z" glyph-name="Ohungarumlaut" horiz-adv-x="1746" unicode="Ő"/><glyph d="M465 1137l-53 47q-27 27 -2 51l256 287q27 27 51 2l51 -45q29 -27 4 -52l-256 -288q-26 -27 -51 -2zM721 1137l-53 47q-27 27 -2 51l256 287q27 27 51 2l51 -45q29 -27 4 -52l-256 -288q-26 -27 -51 -2zM620.5 1040q219.5 0 374 -155.5t154.5 -372.5t-154.5 -372.5 t-374 -155.5t-374 155.5t-154.5 372.5t154.5 372.5t374 155.5zM620.5 895q-159.5 0 -272 -111.5t-112.5 -271.5t112.5 -272.5t272 -112.5t271.5 112.5t112 272.5t-112 271.5t-271.5 111.5z" glyph-name="ohungarumlaut" horiz-adv-x="1241" unicode="ő"/><glyph d="M2193 143q37 0 37 -37v-69q0 -37 -37 -37h-657q-37 0 -37 37v268q-106 -150 -271 -235.5t-356 -85.5q-319 0 -544.5 226t-225.5 546q0 317 225.5 543.5t544.5 226.5q190 0 355.5 -86t271.5 -236v275q0 37 37 37h657q37 0 37 -37v-70q0 -37 -37 -37h-551v-551h519 q31 0 30 -30v-66q0 -31 -30 -31h-519v-551h551zM1501 756q0 258 -184 442t-444.5 184t-443.5 -184t-183 -442q0 -262 182 -445.5t444 -183.5q260 0 444.5 184.5t184.5 444.5z" glyph-name="OE" horiz-adv-x="2342" unicode="Œ"/><glyph d="M102 512q0 217 156 372.5t373 155.5q137 0 256 -66.5t190 -178.5q68 113 184.5 179t258.5 66q215 0 360 -149.5t158 -388.5q0 -37 -37 -37h-842q23 -150 128.5 -243t246.5 -93q166 0 311 133q27 27 51 -4l41 -51q23 -27 0 -51q-166 -172 -403 -172q-145 0 -263 70.5 t-186 187.5q-70 -117 -191.5 -187.5t-262.5 -70.5q-217 0 -373 155.5t-156 372.5zM1159 586h723q-23 135 -125 226t-237 91q-131 0 -234.5 -86t-126.5 -231zM246 512q0 -160 112.5 -272.5t272.5 -112.5t271.5 112.5t111.5 272.5t-111.5 271.5t-271.5 111.5t-272.5 -111.5 t-112.5 -271.5z" glyph-name="oe" horiz-adv-x="2129" unicode="œ"/><glyph d="M332 1663l-33 61q-14 31 16 50l336 182q33 18 51 -17l33 -59q18 -33 -14 -51l-340 -180q-33 -19 -49 14zM1004 37q20 -37 -21 -37h-94q-25 0 -37 20l-375 644h-203v-627q0 -37 -36 -37h-70q-37 0 -37 37v1442q0 37 37 37h403q176 0 301 -125t125 -301q0 -162 -106.5 -282 t-263.5 -140zM274 1372v-565h297q117 0 200 83t83 199.5t-83 199.5t-200 83h-297z" glyph-name="Racute" horiz-adv-x="1097" unicode="Ŕ"/><glyph d="M215 1182l-33 61q-14 31 17 49l336 183q35 18 51 -17l32 -59q18 -33 -14 -51l-340 -181q-33 -18 -49 15zM618 1024q37 0 37 -37v-63q0 -37 -37 -37h-69q-121 0 -202 -69.5t-81 -188.5v-592q0 -37 -37 -37h-69q-37 0 -37 37v950q0 37 37 37h53q37 0 37 -37v-67 q84 104 270 104h98z" glyph-name="racute" horiz-adv-x="727" unicode="ŕ"/><glyph d="M403 1630l-227 246q-16 16 -9 30.5t30 14.5h96q31 0 45 -20l123 -150l131 150q18 20 45 20h96q23 0 30 -14.5t-9 -30.5l-228 -246q-14 -16 -37 -16h-49q-23 0 -37 16zM1004 37q20 -37 -21 -37h-94q-25 0 -37 20l-375 644h-203v-627q0 -37 -36 -37h-70q-37 0 -37 37v1442 q0 37 37 37h403q176 0 301 -125t125 -301q0 -162 -106.5 -282t-263.5 -140zM274 1372v-565h297q117 0 200 83t83 199.5t-83 199.5t-200 83h-297z" glyph-name="Rcaron" horiz-adv-x="1097" unicode="Ř"/><glyph d="M324 1133q-23 0 -37 16l-228 246q-14 16 -8 30.5t29 14.5h96q29 0 45 -21l123 -149l131 149q18 20 45 21h96q23 0 29 -14.5t-8 -30.5l-227 -246q-14 -16 -37 -16h-49zM618 1024q37 0 37 -37v-63q0 -37 -37 -37h-69q-121 0 -202 -69.5t-81 -188.5v-592q0 -37 -37 -37h-69 q-37 0 -37 37v950q0 37 37 37h53q37 0 37 -37v-67q84 104 270 104h98z" glyph-name="rcaron" horiz-adv-x="727" unicode="ř"/><glyph d="M360 1679l-32 62q-14 31 16 49l336 182q35 18 51 -16l33 -60q18 -33 -14 -51l-340 -180q-34 -19 -50 14zM522 -16q-205 0 -395 157q-25 23 -8 45l45 72q16 25 45 6q168 -133 307 -133q111 0 188.5 75t77.5 179q0 59 -26.5 109.5t-82 92.5t-101.5 68.5t-123 63.5 q-66 31 -101 49t-91 58t-85 79t-50.5 99.5t-17.5 130.5q8 172 131 282.5t293 110.5q145 0 271 -80q25 -18 6 -43l-45 -62q-16 -23 -41 -10q-106 59 -195 60q-106 0 -187 -79t-81 -192q0 -49 17.5 -88t55.5 -69.5t71.5 -49t93.5 -45.5q66 -29 108.5 -50t113 -68t113.5 -94.5 t76 -120t33 -154.5q0 -170 -118 -284.5t-298 -114.5z" glyph-name="Sacute" horiz-adv-x="1030" unicode="Ś"/><glyph d="M281 1192l-33 61q-14 31 16 50l336 182q35 18 51 -17l33 -59q18 -33 -14 -51l-340 -180q-33 -19 -49 14zM686 922l-27 -45q-18 -31 -51 -11q-92 51 -182 52q-82 0 -141.5 -39t-59.5 -101q0 -43 35 -75.5t68.5 -48t101.5 -38.5q137 -47 225 -133t88 -200q0 -125 -96 -212 t-237.5 -87t-296.5 77q-31 16 -17 50l29 61q14 33 49 16q119 -59 225 -59q94 0 144.5 49t50.5 115q0 63 -55.5 107t-180.5 94q-59 23 -94 40t-82 49.5t-70.5 79t-23.5 105.5q0 121 94 196.5t240 75.5q131 0 252 -69q30 -18 12 -49z" glyph-name="sacute" horiz-adv-x="835" unicode="ś"/><glyph d="M938 383q0 -154 -98.5 -264.5t-253.5 -130.5v-62q68 -23 110.5 -80t42.5 -129q0 -90 -62.5 -150.5t-154.5 -60.5q-82 0 -141 50.5t-72 128.5q-4 33 31 32h59q23 0 33 -28q20 -61 90 -62q41 0 67.5 25.5t26.5 64.5t-27.5 67t-66.5 28h-30q-31 0 -31 30v146 q-172 20 -334 153q-25 23 -8 45l45 72q16 25 45 6q168 -133 307 -133q111 0 188.5 75t77.5 179q0 59 -26.5 109.5t-82 92.5t-101.5 68.5t-123 63.5q-66 31 -101 49t-91 58t-85 79t-50.5 99.5t-17.5 130.5q8 172 131 282.5t293 110.5q145 0 271 -80q25 -18 6 -43l-45 -62 q-16 -23 -41 -10q-106 59 -195 60q-106 0 -187 -79t-81 -192q0 -94 59.5 -146t178.5 -106q66 -29 108.5 -50t113 -68t113.5 -94.5t76 -120t33 -154.5z" glyph-name="Scedilla" horiz-adv-x="1030" unicode="Ş"/><glyph d="M743 283q0 -106 -73.5 -188.5t-188.5 -104.5v-64q68 -23 111 -80t43 -129q0 -90 -62.5 -150.5t-154.5 -60.5q-82 0 -141.5 50.5t-71.5 128.5q-4 33 31 32h59q23 0 33 -28q20 -61 90 -62q41 0 67.5 25.5t26.5 64.5t-27.5 67t-66.5 28h-31q-31 0 -31 30v146 q-121 12 -243 73q-31 16 -17 50l29 61q14 33 49 16q119 -59 225 -59q94 0 144.5 49t50.5 115q0 63 -55.5 107t-180.5 94q-59 23 -94 40t-82 49.5t-70.5 79t-23.5 105.5q0 121 94 196.5t240 75.5q131 0 252 -69q31 -18 12 -49l-27 -45q-18 -31 -51 -11q-92 51 -182 52 q-82 0 -141.5 -39t-59.5 -101q0 -43 35 -75.5t68.5 -48t101.5 -38.5q137 -47 225 -132.5t88 -200.5z" glyph-name="scedilla" horiz-adv-x="835" unicode="ş"/><glyph d="M782 1892l-227 -245q-14 -16 -37 -17h-49q-23 0 -37 17l-227 245q-16 16 -9 30.5t29 14.5h97q29 0 45 -20l122 -150l132 150q18 20 45 20h96q23 0 29.5 -14.5t-9.5 -30.5zM522 -16q-205 0 -395 157q-25 23 -8 45l45 72q16 25 45 6q168 -133 307 -133q111 0 188.5 75 t77.5 179q0 59 -26.5 109.5t-82 92.5t-101.5 68.5t-123 63.5q-66 31 -101 49t-91 58t-85 79t-50.5 99.5t-17.5 130.5q8 172 131 282.5t293 110.5q145 0 271 -80q25 -18 6 -43l-45 -62q-16 -23 -41 -10q-106 59 -195 60q-106 0 -187 -79t-81 -192q0 -49 17.5 -88t55.5 -69.5 t71.5 -49t93.5 -45.5q66 -29 108.5 -50t113 -68t113.5 -94.5t76 -120t33 -154.5q0 -170 -118 -284.5t-298 -114.5z" glyph-name="Scaron" horiz-adv-x="1030" unicode="Š"/><glyph d="M702 1405l-227 -246q-14 -16 -37 -16h-49q-23 0 -37 16l-227 246q-16 16 -9 30.5t29 14.5h97q31 0 45 -20l123 -150l131 150q18 20 45 20h96q23 0 28.5 -14.5t-8.5 -30.5zM686 922l-27 -45q-18 -31 -51 -11q-92 51 -182 52q-82 0 -141.5 -39t-59.5 -101q0 -43 35 -75.5 t68.5 -48t101.5 -38.5q137 -47 225 -133t88 -200q0 -125 -96 -212t-237.5 -87t-296.5 77q-31 16 -17 50l29 61q14 33 49 16q119 -59 225 -59q94 0 144.5 49t50.5 115q0 63 -55.5 107t-180.5 94q-59 23 -94 40t-82 49.5t-70.5 79t-23.5 105.5q0 121 94 196.5t240 75.5 q131 0 252 -69q30 -18 12 -49z" glyph-name="scaron" horiz-adv-x="835" unicode="š"/><glyph d="M938 1516q37 0 37 -37v-70q0 -37 -37 -37h-338v-1335q0 -16 -10 -27v-84q68 -23 110.5 -80t42.5 -129q0 -90 -62.5 -150.5t-154.5 -60.5q-82 0 -141 50.5t-72 128.5q-4 33 31 32h59q23 0 33 -28q20 -61 90 -62q41 0 68 25.5t27 64.5t-28 67t-67 28h-30q-31 0 -31 30v170 q-8 8 -8 25v1335h-338q-37 0 -37 37v70q0 37 37 37h819z" glyph-name="Tcommaaccent" horiz-adv-x="1046" unicode="Ţ"/><glyph d="M594 897h-328v-563q0 -78 56.5 -134.5t134.5 -56.5h131q37 0 37 -37v-69q0 -37 -37 -37h-117v-74q68 -23 111 -80t43 -129q0 -90 -62.5 -150.5t-154.5 -60.5q-82 0 -141.5 50.5t-71.5 128.5q-4 33 30 32h60q23 0 32 -28q20 -61 91 -62q41 0 67.5 25.5t26.5 64.5t-28 67 t-66 28h-31q-31 0 -31 30v174q-100 33 -161.5 118t-61.5 200v979q0 37 37 37h69q37 0 37 -37v-289h328q31 0 31 -31v-65q0 -31 -31 -31z" glyph-name="tcommaaccent" horiz-adv-x="696" unicode="ţ"/><glyph d="M850 1630h-475q-37 0 -37 37v68q0 37 37 37h475q37 0 37 -37v-68q0 -37 -37 -37zM600.5 -12q-194.5 0 -331 137t-136.5 330v1024q0 37 37 37h70q37 0 36 -37v-1024q0 -133 95.5 -228.5t228.5 -95.5t228.5 95.5t95.5 228.5v1024q0 37 37 37h69q37 0 37 -37v-1024 q0 -193 -136 -330t-330.5 -137z" glyph-name="Umacron" horiz-adv-x="1189" unicode="Ū"/><glyph d="M793 1143h-476q-37 0 -36 37v67q0 37 36 37h476q37 0 36 -37v-67q1 -37 -36 -37zM549 -16q-176 0 -301 124.5t-125 301.5v577q0 37 37 37h67q37 0 37 -37v-577q0 -117 83 -201t202 -84q117 0 199.5 84t82.5 201v577q0 37 37 37h70q37 0 37 -37v-577q0 -176 -125 -301 t-301 -125z" glyph-name="umacron" horiz-adv-x="1077" unicode="ū"/><glyph d="M600 2030q84 0 142.5 -58.5t58.5 -140.5t-58.5 -141.5t-142.5 -59.5t-142.5 59.5t-58.5 141.5t58.5 140.5t142.5 58.5zM600 1927q-41 0 -69.5 -28.5t-28.5 -67.5q0 -41 28.5 -69.5t69.5 -28.5t69.5 28.5t28.5 69.5q0 39 -28.5 67.5t-69.5 28.5zM600.5 -12 q-194.5 0 -331 137t-136.5 330v1024q0 37 37 37h70q37 0 36 -37v-1024q0 -133 95.5 -228.5t228.5 -95.5t228.5 95.5t95.5 228.5v1024q0 37 37 37h69q37 0 37 -37v-1024q0 -193 -136 -330t-330.5 -137z" glyph-name="Uring" horiz-adv-x="1189" unicode="Ů"/><glyph d="M543 1542q84 0 142 -58.5t58 -140t-58 -141t-142 -59.5t-142.5 59.5t-58.5 141t58.5 140t142.5 58.5zM543 1440q-41 0 -70 -29t-29 -68q0 -41 29 -69.5t70 -28.5t69.5 29t28.5 69q0 39 -28.5 68t-69.5 29zM549 -16q-176 0 -301 124.5t-125 301.5v577q0 37 37 37h67 q37 0 37 -37v-577q0 -117 83 -201t202 -84q117 0 199.5 84t82.5 201v577q0 37 37 37h70q37 0 37 -37v-577q0 -176 -125 -301t-301 -125z" glyph-name="uring" horiz-adv-x="1077" unicode="ů"/><glyph d="M444 1624l-53 47q-27 27 -2 51l256 287q27 27 51 2l52 -45q29 -27 4 -51l-256 -289q-27 -27 -52 -2zM700 1624l-53 47q-27 27 -2 51l256 287q27 27 51 2l52 -45q29 -27 4 -51l-256 -289q-27 -27 -52 -2zM600.5 -12q-194.5 0 -331 137t-136.5 330v1024q0 37 37 37h70 q37 0 36 -37v-1024q0 -133 95.5 -228.5t228.5 -95.5t228.5 95.5t95.5 228.5v1024q0 37 37 37h69q37 0 37 -37v-1024q0 -193 -136 -330t-330.5 -137z" glyph-name="Uhungarumlaut" horiz-adv-x="1189" unicode="Ű"/><glyph d="M387 1137l-53 47q-27 27 -2 51l256 287q27 27 51 2l51 -45q29 -27 4 -52l-256 -288q-26 -27 -51 -2zM643 1137l-53 47q-27 27 -2 51l256 287q27 27 51 2l51 -45q29 -27 4 -52l-256 -288q-26 -27 -51 -2zM549 -16q-176 0 -301 124.5t-125 301.5v577q0 37 37 37h67 q37 0 37 -37v-577q0 -117 83 -201t202 -84q117 0 199.5 84t82.5 201v577q0 37 37 37h70q37 0 37 -37v-577q0 -176 -125 -301t-301 -125z" glyph-name="uhungarumlaut" horiz-adv-x="1077" unicode="ű"/><glyph d="M1067 455q0 -150 -86 -269.5t-221 -169.5q-53 -72 -53 -147q0 -78 60 -125t134 -31q23 4 31 -12l16 -29q12 -23 -10 -32q-43 -16 -88 -17q-102 0 -174 72t-72 176q0 63 25 117h-29q-195 0 -331 137t-136 330v1024q0 37 37 37h70q37 0 36 -37v-1024q0 -133 95.5 -228.5 t228.5 -95.5t228.5 95.5t95.5 228.5v1024q0 37 37 37h69q37 0 37 -37v-1024z" glyph-name="Uogonek" horiz-adv-x="1189" unicode="Ų"/><glyph d="M975 410q0 -131 -73 -237.5t-189 -156.5q-53 -72 -54 -147q0 -78 60.5 -125t134.5 -31q23 4 31 -12l16 -29q12 -23 -10 -32q-43 -16 -88 -17q-102 0 -174 72t-72 176q0 59 23 115q-10 -2 -31 -2q-176 0 -301 124.5t-125 301.5v577q0 37 37 37h67q37 0 37 -37v-577 q0 -117 83 -201t202 -84q117 0 199.5 84t82.5 201v577q0 37 37 37h70q37 0 37 -37v-577z" glyph-name="uogonek" horiz-adv-x="1077" unicode="ų"/><glyph d="M1210 1630h-96q-27 0 -45 21l-131 149l-123 -149q-16 -20 -45 -21h-96q-23 0 -29 14.5t8 30.5l228 246q14 16 37 16h49q23 0 37 -16l227 -246q14 -16 8 -30.5t-29 -14.5zM1761 1516q35 0 25 -35l-406 -1454q-6 -27 -34 -27h-56q-27 0 -33 27l-313 1179l-313 -1179 q-6 -27 -33 -27h-55q-29 0 -35 27l-406 1454q-10 35 25 35h86q29 0 35 -27l332 -1182l311 1180q6 20 29 20h49q23 0 28 -20l312 -1180l331 1182q6 27 35 27h86z" glyph-name="Wcircumflex" horiz-adv-x="1878" unicode="Ŵ"/><glyph d="M1130 1143h-96q-27 0 -45 20l-131 150l-123 -150q-14 -20 -45 -20h-96q-23 0 -30 14t9 31l228 246q14 16 37 16h49q23 0 37 -16l227 -246q16 -16 9 -30.5t-30 -14.5zM811 971q6 20 29 20h51q23 0 29 -20l286 -768l293 796q8 25 35 25h86q37 0 25 -35l-371 -964 q-8 -25 -37 -25h-49q-25 0 -35 25l-287 759l-286 -759q-10 -25 -35 -25h-51q-27 0 -37 25l-373 964q-12 35 25 35h90q27 0 34 -25l293 -796z" glyph-name="wcircumflex" horiz-adv-x="1730" unicode="ŵ"/><glyph d="M885 1630h-97q-27 0 -45 21l-131 149l-123 -149q-14 -20 -45 -21h-96q-23 0 -30 14.5t10 30.5l227 246q14 16 37 16h49q23 0 37 -16l227 -246q16 -16 9.5 -30.5t-29.5 -14.5zM1120 1516q41 0 21 -37l-443 -756v-686q0 -37 -36 -37h-68q-37 0 -37 37v686l-442 756 q-20 37 20 37h107q25 0 37 -21l348 -594l350 594q12 20 37 21h106z" glyph-name="Ycircumflex" horiz-adv-x="1245" unicode="Ŷ"/><glyph d="M799 1143h-97q-27 0 -45 20l-131 150l-123 -150q-14 -20 -45 -20h-96q-23 0 -30 14t10 31l227 246q14 16 37 16h49q23 0 37 -16l227 -246q16 -16 9.5 -30.5t-29.5 -14.5zM983 1024q37 0 25 -35l-437 -1061q-102 -246 -344 -342q-33 -12 -47 23l-24 61q-12 35 20 49 q111 45 177.5 124t115.5 210l-383 936q-12 35 25 35h88q29 0 37 -25l311 -759l309 759q10 25 37 25h90z" glyph-name="ycircumflex" horiz-adv-x="1124" unicode="ŷ"/><glyph d="M557 1697.5q0 -28.5 -20.5 -48t-49 -19.5t-49 19.5t-20.5 48t20.5 49t49 20.5t49 -20.5t20.5 -49zM817 1698q0 -27 -19.5 -47.5t-48 -20.5t-49 19.5t-20.5 48t20.5 49t49 20.5t48 -20t19.5 -49zM1120 1516q41 0 21 -37l-443 -756v-686q0 -37 -36 -37h-68q-37 0 -37 37 v686l-442 756q-20 37 20 37h107q25 0 37 -21l348 -594l350 594q12 20 37 21h106z" glyph-name="Ydieresis" horiz-adv-x="1245" unicode="Ÿ"/><glyph d="M485 1679l-32 62q-14 31 16 49l336 182q35 18 51 -16l33 -60q18 -33 -15 -51l-339 -180q-34 -19 -50 14zM1157 143q37 0 37 -37v-69q0 -37 -37 -37h-993q-37 0 -37 37v82q0 23 14 45l856 1218h-868q-37 0 -37 37v60q0 37 37 37h1014q37 0 37 -37v-62q0 -23 -15 -45 l-860 -1229h852z" glyph-name="Zacute" horiz-adv-x="1275" unicode="Ź"/><glyph d="M352 1192l-33 61q-14 31 17 50l336 182q35 18 51 -17l33 -59q18 -33 -15 -51l-340 -180q-33 -19 -49 14zM870 143q37 0 37 -37v-69q0 -37 -37 -37h-737q-37 0 -37 37v80q0 29 17 47l620 737h-610q-31 0 -31 31v61q0 31 31 31h729q37 0 37 -37v-63q0 -29 -17 -47 l-612 -734h610z" glyph-name="zacute" horiz-adv-x="989" unicode="ź"/><glyph d="M684 1697.5q0 -28.5 -20.5 -48t-49 -19.5t-49 19.5t-20.5 48t20.5 49t49 20.5t49 -20.5t20.5 -49zM1157 143q37 0 37 -37v-69q0 -37 -37 -37h-993q-37 0 -37 37v82q0 23 14 45l856 1218h-868q-37 0 -37 37v60q0 37 37 37h1014q37 0 37 -37v-62q0 -23 -15 -45l-860 -1229 h852z" glyph-name="Zdotaccent" horiz-adv-x="1275" unicode="Ż"/><glyph d="M551 1210.5q0 -28.5 -20.5 -48t-49 -19.5t-49 19.5t-20.5 48t20.5 49t49 20.5t49 -20.5t20.5 -49zM870 143q37 0 37 -37v-69q0 -37 -37 -37h-737q-37 0 -37 37v80q0 29 17 47l620 737h-610q-31 0 -31 31v61q0 31 31 31h729q37 0 37 -37v-63q0 -29 -17 -47l-612 -734h610z " glyph-name="zdotaccent" horiz-adv-x="989" unicode="ż"/><glyph d="M907 1892l-227 -245q-14 -16 -37 -17h-49q-23 0 -37 17l-227 245q-14 16 -8 30.5t28 14.5h96q29 0 46 -20l122 -150l131 150q18 20 46 20h96q23 0 28.5 -14.5t-8.5 -30.5zM1157 143q37 0 37 -37v-69q0 -37 -37 -37h-993q-37 0 -37 37v82q0 23 14 45l856 1218h-868 q-37 0 -37 37v60q0 37 37 37h1014q37 0 37 -37v-62q0 -23 -15 -45l-860 -1229h852z" glyph-name="Zcaron" horiz-adv-x="1275" unicode="Ž"/><glyph d="M774 1405l-227 -246q-14 -16 -37 -16h-49q-23 0 -37 16l-227 246q-16 16 -9 30.5t29 14.5h96q31 0 45 -20l123 -150l131 150q18 20 45 20h97q23 0 29.5 -14.5t-9.5 -30.5zM870 143q37 0 37 -37v-69q0 -37 -37 -37h-737q-37 0 -37 37v80q0 29 17 47l620 737h-610 q-31 0 -31 31v61q0 31 31 31h729q37 0 37 -37v-63q0 -29 -17 -47l-612 -734h610z" glyph-name="zcaron" horiz-adv-x="989" unicode="ž"/><glyph d="M659 1290q-80 0 -136 -57t-56 -137v-252h326q31 0 30 -31v-57q0 -31 -30 -31h-326v-834q0 -125 -89 -213t-212 -88h-37q-37 0 -37 37v70q0 37 37 37h37q63 0 111.5 47t48.5 110v1205q0 154 98 246t235 92h127q37 0 37 -37v-70q0 -37 -37 -37h-127z" glyph-name="florin" horiz-adv-x="905" unicode="ƒ"/><glyph d="M461 33q0 -287 -262 -441q-31 -18 -52 13l-36 59q-18 31 12 51q195 135 194 318v954q0 37 37 37h70q37 0 37 -37v-954z" glyph-name="uni0237" horiz-adv-x="583" unicode="ȷ"/><glyph d="M700 1167h-96q-27 0 -45 21l-131 149l-123 -149q-14 -20 -45 -21h-96q-23 0 -30 14.5t9 30.5l228 246q14 16 37 17h49q23 0 37 -17l227 -246q16 -16 9 -30.5t-30 -14.5z" glyph-name="circumflex" horiz-adv-x="864" unicode="ˆ"/><glyph d="M721 1430l-227 -246q-14 -16 -37 -17h-49q-23 0 -37 17l-228 246q-16 16 -9 30.5t30 14.5h96q31 0 45 -21l123 -149l131 149q18 20 45 21h96q23 0 30 -14.5t-9 -30.5z" glyph-name="caron" horiz-adv-x="864" unicode="ˇ"/><glyph d="M342 1165q-109 0 -174.5 63.5t-65.5 149.5v15q0 37 37 37h60q31 0 30 -31v-8q0 -43 33 -72t80 -29t78 28t31 73v8q0 31 30 31h60q37 0 37 -37v-15q0 -86 -63.5 -149.5t-172.5 -63.5z" glyph-name="breve" horiz-adv-x="679" unicode="˘"/><glyph d="M242 1235q0 -29 -20.5 -48.5t-49.5 -19.5t-49.5 19.5t-20.5 48.5t20.5 49.5t49.5 20.5t49.5 -20.5t20.5 -49.5z" glyph-name="dotaccent" horiz-adv-x="344" unicode="˙"/><glyph d="M303 1567q84 0 142.5 -58.5t58.5 -140.5t-59.5 -141.5t-141.5 -59.5t-141.5 59.5t-59.5 141.5t58.5 140.5t142.5 58.5zM303 1464q-41 0 -69.5 -28.5t-28.5 -67.5q0 -41 28.5 -69.5t69.5 -28.5t69.5 28.5t28.5 69.5q0 39 -28.5 67.5t-69.5 28.5z" glyph-name="ring" horiz-adv-x="606" unicode="˚"/><glyph d="M348 -389q-102 0 -174 71.5t-72 176.5q0 92 45 155h119q-61 -72 -61 -157q0 -78 60.5 -125t133.5 -31q23 4 31 -12l16 -29q12 -23 -10 -33q-43 -16 -88 -16z" glyph-name="ogonek" horiz-adv-x="561" unicode="˛"/><glyph d="M193 1188l-60 39q-35 20 -8 51q68 78 164 78q41 0 108.5 -29t98.5 -29q51 0 88 45q23 29 51 11l59 -39q35 -23 8 -51q-84 -96 -200 -97q-51 0 -112.5 28t-84.5 28q-35 0 -61 -27q-24 -24 -51 -8z" glyph-name="tilde" horiz-adv-x="829" unicode="˜"/><glyph d="M182 1161l-53 47q-27 27 -2 52l256 286q27 27 51 2l51 -45q29 -27 4 -51l-256 -289q-26 -27 -51 -2zM438 1161l-53 47q-27 27 -2 52l256 286q27 27 51 2l51 -45q29 -27 4 -51l-256 -289q-26 -27 -51 -2z" glyph-name="hungarumlaut" horiz-adv-x="749" unicode="˝"/><glyph d="M-201 1202l-340 180q-33 18 -14 52l33 59q18 37 51 16l336 -182q31 -18 16 -49l-33 -61q-16 -33 -49 -15z" glyph-name="gravecomb" unicode="̀"/><glyph d="M-401 1217l-33 61q-14 31 16 49l336 182q35 18 51 -16l33 -59q18 -33 -14 -52l-340 -180q-33 -18 -49 15z" glyph-name="acutecomb" unicode="́"/><glyph d="M-164 1167h-96q-27 0 -45 21l-131 149l-123 -149q-14 -20 -45 -21h-96q-23 0 -30 14.5t9 30.5l227 246q14 16 37 17h49q23 0 37 -17l228 -246q16 -16 9 -30.5t-30 -14.5z" glyph-name="uni0302" unicode="̂"/><glyph d="M-637 1188l-59 39q-35 20 -9 51q68 78 164 78q41 0 108.5 -29t98.5 -29q51 0 88 45q23 29 51 11l60 -39q35 -23 8 -51q-84 -96 -201 -97q-53 0 -114.5 28t-81.5 28q-35 0 -62 -27q-24 -24 -51 -8z" glyph-name="tildecomb" unicode="̃"/><glyph d="M-139 1167h-475q-37 0 -37 37v68q0 37 37 37h475q37 0 37 -37v-68q0 -37 -37 -37z" glyph-name="uni0304" unicode="̄"/><glyph d="M-337.5 1165q-108.5 0 -174.5 63.5t-66 149.5v15q0 37 37 37h60q31 0 30 -31v-8q0 -43 33 -72t80 -29t78 28t31 73v8q0 31 30 31h60q37 0 37 -37v-15q0 -86 -63.5 -149.5t-172 -63.5z" glyph-name="uni0306" unicode="̆"/><glyph d="M-102 1235q0 -29 -20.5 -48.5t-49.5 -19.5t-49.5 19.5t-20.5 48.5t20.5 49.5t49.5 20.5t49.5 -20.5t20.5 -49.5z" glyph-name="uni0307" unicode="̇"/><glyph d="M-362 1235q0 -29 -20.5 -48.5t-49.5 -19.5t-49.5 19.5t-20.5 48.5t20.5 49.5t49.5 20.5t49.5 -20.5t20.5 -49.5zM-102 1235q0 -27 -20.5 -47.5t-47.5 -20.5q-29 0 -49.5 19.5t-20.5 48.5t20.5 49.5t49.5 20.5t48.5 -20.5t19.5 -49.5z" glyph-name="uni0308" unicode="̈"/><glyph d="M-303 1567q84 0 142.5 -58.5t58.5 -140.5t-59.5 -141.5t-141.5 -59.5t-141.5 59.5t-59.5 141.5t58.5 140.5t142.5 58.5zM-303 1464q-41 0 -69.5 -28.5t-28.5 -67.5q0 -41 28.5 -69.5t69.5 -28.5t69.5 28.5t28.5 69.5q0 39 -28.5 67.5t-69.5 28.5z" glyph-name="uni030A" unicode="̊"/><glyph d="M-567 1161l-54 47q-27 27 -2 52l256 286q27 27 52 2l51 -45q29 -27 4 -51l-256 -289q-26 -27 -51 -2zM-311 1161l-54 47q-27 27 -2 52l256 286q27 27 52 2l51 -45q29 -27 4 -51l-256 -289q-26 -27 -51 -2z" glyph-name="uni030B" unicode="̋"/><glyph d="M-143 1430l-228 -246q-14 -16 -37 -17h-49q-23 0 -37 17l-227 246q-16 16 -9 30.5t30 14.5h96q31 0 45 -21l123 -149l131 149q18 20 45 21h96q23 0 30 -14.5t-9 -30.5z" glyph-name="uni030C" unicode="̌"/><glyph d="M-319 -494q-82 0 -141.5 50.5t-71.5 128.5q-4 33 30 32h60q23 0 32 -28q20 -61 91 -62q41 0 67.5 25.5t26.5 64.5t-28 67t-66 28h-31q-31 0 -31 30v181h125v-97q68 -23 111 -80t43 -129q0 -90 -62.5 -150.5t-154.5 -60.5z" glyph-name="uni0327" unicode="̧"/><glyph d="M-213 -389q-102 0 -174 71.5t-72 176.5q0 92 45 155h119q-61 -72 -61 -157q0 -78 60 -125t134 -31q23 4 31 -12l16 -29q12 -23 -10 -33q-43 -16 -88 -16z" glyph-name="uni0328" unicode="̨"/><glyph d="M-139 496h-475q-37 0 -37 36v68q0 37 37 37h475q37 0 37 -37v-68q0 -36 -37 -36z" glyph-name="uni0335" unicode="̵"/><glyph d="M-805 43l559 1444q12 29 41 29h78q20 0 28.5 -12.5t0.5 -30.5l-561 -1444q-12 -29 -41 -29h-76q-20 0 -28.5 12.5t-0.5 30.5z" glyph-name="uni0338" unicode="̸"/><glyph d="M1075 37v1335h-809v-1335q0 -37 -37 -37h-69q-37 0 -37 37v1442q0 37 37 37h1022q37 0 37 -37v-1442q0 -37 -37 -37h-70q-37 0 -37 37z" glyph-name="Pi" horiz-adv-x="1331" unicode="Π"/><glyph d="M1796 145q37 0 37 -36v-72q0 -37 -37 -37h-528q-37 0 -37 37v72q0 29 26 43q152 90 238 246.5t86 334.5q0 272 -179 465t-433 193t-434.5 -192.5t-180.5 -465.5q0 -184 88 -340.5t238 -240.5q27 -14 27 -46v-69q0 -37 -37 -37h-531q-37 0 -37 37v72q0 37 37 36h316 q-117 111 -180.5 265.5t-63.5 322.5q0 332 222 566.5t536 234.5q311 0 533 -234.5t222 -566.5q0 -168 -63.5 -322.5t-179.5 -265.5h315z" glyph-name="Omega" horiz-adv-x="1935" unicode="Ω"/><glyph d="M836 987q0 37 36 37h68q37 0 37 -37v-577q0 -176 -125 -302t-301 -126q-166 0 -287 110v-465q0 -37 -37 -37h-67q-37 0 -37 37v1360q0 37 37 37h67q37 0 37 -37v-577q0 -119 84 -202t203 -83q117 0 201 83t84 202v577z" glyph-name="mu" horiz-adv-x="1069" unicode="μ"/><glyph d="M1255 143h33q37 0 37 -37v-69q0 -37 -37 -37h-33q-127 0 -218 91t-91 218v572h-416l-192 -848q-6 -33 -41 -33h-72q-43 0 -32 41l190 840h-223q-37 0 -37 37v69q0 37 37 37h893q37 0 37 -37v-678q0 -70 47.5 -118t117.5 -48z" glyph-name="pi" horiz-adv-x="1417" unicode="π"/><glyph d="M1012 1665l-340 180q-33 18 -15 51l33 60q18 37 51 16l336 -182q31 -18 17 -49l-33 -62q-16 -32 -49 -14zM1761 1516q35 0 25 -35l-406 -1454q-6 -27 -34 -27h-56q-27 0 -33 27l-313 1179l-313 -1179q-6 -27 -33 -27h-55q-29 0 -35 27l-406 1454q-10 35 25 35h86 q29 0 35 -27l332 -1182l311 1180q6 20 29 20h49q23 0 28 -20l312 -1180l331 1182q6 27 35 27h86z" glyph-name="Wgrave" horiz-adv-x="1878" unicode="Ẁ"/><glyph d="M932 1178l-340 180q-33 18 -14 51l32 59q18 37 52 17l335 -182q31 -18 17 -50l-33 -61q-16 -32 -49 -14zM811 971q6 20 29 20h51q23 0 29 -20l286 -768l293 796q8 25 35 25h86q37 0 25 -35l-371 -964q-8 -25 -37 -25h-49q-25 0 -35 25l-287 759l-286 -759 q-10 -25 -35 -25h-51q-27 0 -37 25l-373 964q-12 35 25 35h90q27 0 34 -25l293 -796z" glyph-name="wgrave" horiz-adv-x="1730" unicode="ẁ"/><glyph d="M809 1679l-33 62q-14 31 17 49l335 182q35 18 52 -16l32 -60q18 -33 -14 -51l-340 -180q-33 -19 -49 14zM1761 1516q35 0 25 -35l-406 -1454q-6 -27 -34 -27h-56q-27 0 -33 27l-313 1179l-313 -1179q-6 -27 -33 -27h-55q-29 0 -35 27l-406 1454q-10 35 25 35h86 q29 0 35 -27l332 -1182l311 1180q6 20 29 20h49q23 0 28 -20l312 -1180l331 1182q6 27 35 27h86z" glyph-name="Wacute" horiz-adv-x="1878" unicode="Ẃ"/><glyph d="M729 1192l-33 61q-14 31 17 50l336 182q33 18 51 -17l33 -59q18 -33 -15 -51l-340 -180q-33 -19 -49 14zM811 971q6 20 29 20h51q23 0 29 -20l286 -768l293 796q8 25 35 25h86q37 0 25 -35l-371 -964q-8 -25 -37 -25h-49q-25 0 -35 25l-287 759l-286 -759 q-10 -25 -35 -25h-51q-27 0 -37 25l-373 964q-12 35 25 35h90q27 0 34 -25l293 -796z" glyph-name="wacute" horiz-adv-x="1730" unicode="ẃ"/><glyph d="M883 1697.5q0 -28.5 -20.5 -48t-49.5 -19.5t-49.5 19.5t-20.5 48t20.5 49t49.5 20.5t49.5 -20.5t20.5 -49zM1143 1698q0 -27 -20.5 -47.5t-47.5 -20.5q-29 0 -49 19.5t-20 48t20.5 49t49 20.5t48 -20t19.5 -49zM1761 1516q35 0 25 -35l-406 -1454q-6 -27 -34 -27h-56 q-27 0 -33 27l-313 1179l-313 -1179q-6 -27 -33 -27h-55q-29 0 -35 27l-406 1454q-10 35 25 35h86q29 0 35 -27l332 -1182l311 1180q6 20 29 20h49q23 0 28 -20l312 -1180l331 1182q6 27 35 27h86z" glyph-name="Wdieresis" horiz-adv-x="1878" unicode="Ẅ"/><glyph d="M803 1210.5q0 -28.5 -20.5 -48t-49 -19.5t-49 19.5t-20.5 48t20.5 49t49 20.5t49 -20.5t20.5 -49zM1063 1210q0 -27 -19.5 -47t-48 -20t-49 19.5t-20.5 48t20.5 49t49 20.5t48 -20.5t19.5 -49.5zM811 971q6 20 29 20h51q23 0 29 -20l286 -768l293 796q8 25 35 25h86 q37 0 25 -35l-371 -964q-8 -25 -37 -25h-49q-25 0 -35 25l-287 759l-286 -759q-10 -25 -35 -25h-51q-27 0 -37 25l-373 964q-12 35 25 35h90q27 0 34 -25l293 -796z" glyph-name="wdieresis" horiz-adv-x="1730" unicode="ẅ"/><glyph d="M686 1665l-340 180q-33 18 -14 51l33 60q18 37 51 16l336 -182q31 -18 16 -49l-33 -62q-16 -32 -49 -14zM1120 1516q41 0 21 -37l-443 -756v-686q0 -37 -36 -37h-68q-37 0 -37 37v686l-442 756q-20 37 20 37h107q25 0 37 -21l348 -594l350 594q12 20 37 21h106z" glyph-name="Ygrave" horiz-adv-x="1245" unicode="Ỳ"/><glyph d="M600 1178l-340 180q-33 18 -14 51l33 59q18 37 51 17l336 -182q31 -18 16 -50l-33 -61q-16 -32 -49 -14zM983 1024q37 0 25 -35l-437 -1061q-102 -246 -344 -342q-33 -12 -47 23l-24 61q-12 35 20 49q111 45 177.5 124t115.5 210l-383 936q-12 35 25 35h88q29 0 37 -25 l311 -759l309 759q10 25 37 25h90z" glyph-name="ygrave" horiz-adv-x="1124" unicode="ỳ"/><glyph d="M1268 532h-1108q-37 0 -37 37v84q0 37 37 37h1108q37 0 37 -37v-84q0 -37 -37 -37z" glyph-name="endash" horiz-adv-x="1427" unicode="–"/><glyph d="M223 1153q-35 0 -41 33l-69 289q-10 41 32 41h56q33 0 41 -33l71 -289q10 -41 -32 -41h-58z" glyph-name="quoteleft" horiz-adv-x="415" unicode="‘"/><glyph d="M233 1186q-6 -33 -40 -33h-58q-43 0 -33 41l72 289q8 33 41 33h55q43 0 33 -41z" glyph-name="quoteright" horiz-adv-x="415" unicode="’"/><glyph d="M223 1153q-35 0 -41 33l-69 289q-10 41 32 41h56q33 0 41 -33l71 -289q10 -41 -32 -41h-58zM453 1153q-35 0 -41 33l-70 289q-10 41 33 41h55q33 0 41 -33l72 -289q10 -41 -33 -41h-57z" glyph-name="quotedblleft" horiz-adv-x="645" unicode="“"/><glyph d="M233 1186q-6 -33 -40 -33h-58q-43 0 -33 41l72 289q8 33 41 33h55q43 0 33 -41zM463 1186q-6 -33 -41 -33h-57q-43 0 -33 41l71 289q8 33 41 33h56q43 0 32 -41z" glyph-name="quotedblright" horiz-adv-x="645" unicode="”"/><glyph d="M223 -100q-6 -33 -41 -33h-57q-43 0 -33 41l72 289q8 33 41 32h55q43 0 33 -41zM453 -100q-6 -33 -41 -33h-58q-43 0 -32 41l71 289q8 33 41 32h55q43 0 33 -41z" glyph-name="quotedblbase" horiz-adv-x="634" unicode="„"/><glyph d="M1036 950q37 0 37 -37v-69q0 -37 -37 -37h-389v-1159q0 -37 -37 -37h-69q-37 0 -37 37v1159h-385q-37 0 -37 37v69q0 37 37 37h385v529q0 37 37 37h69q37 0 37 -37v-529h389z" glyph-name="dagger" horiz-adv-x="1144" unicode="†"/><glyph d="M1036 598q37 0 37 -37v-69q0 -37 -37 -37h-389v-807q0 -37 -37 -37h-69q-37 0 -37 37v807h-385q-37 0 -37 37v69q0 37 37 37h385v209h-385q-37 0 -37 37v69q0 37 37 37h385v529q0 37 37 37h69q37 0 37 -37v-529h389q37 0 37 -37v-69q0 -37 -37 -37h-389v-209h389z" glyph-name="daggerdbl" horiz-adv-x="1144" unicode="‡"/><glyph d="M592 506q0 -102 -71.5 -174t-172.5 -72q-102 0 -174 73t-72 173t72 172t174.5 72t173 -72t70.5 -172z" glyph-name="bullet" horiz-adv-x="694" unicode="•"/><glyph d="M430 864q-135 0 -231.5 95.5t-96.5 230.5t96.5 230.5t231.5 95.5t232.5 -95.5t97.5 -230.5t-97.5 -230.5t-232.5 -95.5zM453 0h-84q-20 0 -28.5 12.5t1.5 30.5l758 1446q12 27 45 27h84q20 0 28.5 -12.5t-2.5 -30.5l-757 -1446q-12 -27 -45 -27zM430 1370q-76 0 -129 -52 t-53 -128q0 -74 53 -127t129 -53t130 53t54 127q0 76 -53 128t-131 52zM1161 -4q-133 0 -229 95t-96 230.5t96 230.5t229 95q137 0 234.5 -95t97.5 -230.5t-97.5 -230.5t-234.5 -95zM1915 -4q-135 0 -230.5 95t-95.5 230.5t95.5 230.5t230.5 95q137 0 232.5 -95t95.5 -230.5 t-95.5 -230.5t-232.5 -95zM1161 502q-74 0 -127 -52.5t-53 -127.5q0 -74 53 -127.5t127 -53.5q78 0 132.5 53.5t54.5 127.5q0 76 -54.5 128t-132.5 52zM1915 502q-76 0 -128 -52.5t-52 -127.5q0 -74 52 -127.5t128 -53.5t129 53.5t53 127.5q0 76 -53 128t-129 52z" glyph-name="perthousand" horiz-adv-x="2314" unicode="‰"/><glyph d="M596 168l-49 -47q-27 -27 -53 2l-365 366q-27 27 0 54l365 364q27 27 53 2l47 -45q27 -27 2 -51l-297 -297l297 -295q27 -26 0 -53z" glyph-name="guilsinglleft" horiz-adv-x="714" unicode="‹"/><glyph d="M119 221l297 295l-297 297q-25 25 2 51l47 45q25 25 51 0l367 -366q27 -27 0 -54l-365 -366q-27 -29 -53 -2l-49 47q-27 26 0 53z" glyph-name="guilsinglright" horiz-adv-x="714" unicode="›"/><glyph d="M221 0h-88q-20 0 -27.5 13.5t3.5 31.5l890 1446q14 25 43 25h88q20 0 27.5 -13.5t-2.5 -32.5l-891 -1445q-14 -25 -43 -25z" glyph-name="fraction" horiz-adv-x="1253" unicode="⁄"/><glyph d="M422 614q-119 0 -204 84t-85 203v340q0 119 85 203t204 84t204 -84t85 -203v-340q0 -119 -85 -203t-204 -84zM256 1241v-340q0 -68 48 -117t118 -49q68 0 117 49.5t49 116.5v340q0 68 -49.5 117t-116.5 49q-70 0 -118 -49t-48 -117z" glyph-name="uni2070" horiz-adv-x="843" unicode="⁰"/><glyph d="M702 895q29 0 29 -29v-59q0 -29 -29 -29h-75v-147q0 -29 -29 -29h-66q-29 0 -28 29v147h-383q-29 0 -29 29v67q0 23 12 37l414 586q12 18 35 19h45q29 0 29 -29v-592h75zM231 895h273v385z" glyph-name="uni2074" horiz-adv-x="823" unicode="⁴"/><glyph d="M375 1219q127 0 216 -90.5t89 -217.5t-90 -218t-217 -91q-135 0 -232 107q-18 23 4 41l50 43q23 18 41 -5q55 -59 137 -59q78 0 132 54.5t54 130t-55 130t-131 54.5q-53 0 -92 -27q-25 -14 -41 0l-60 45q-18 12 -14 37l51 336q4 27 31 27h336q29 0 28 -29v-66 q0 -29 -28 -28h-260l-27 -187q37 13 78 13z" glyph-name="uni2075" horiz-adv-x="772" unicode="⁵"/><glyph d="M434 1221q127 0 217 -91.5t90 -218.5t-91 -218t-218 -91t-218 91t-91 218q0 82 37 144l260 436q14 25 39 10l55 -33q25 -12 10 -38l-127 -211q12 2 37 2zM432 725q76 0 131 55.5t55 131t-55 131t-131 55.5q-78 0 -132 -55.5t-54 -131t55 -131t131 -55.5z" glyph-name="uni2076" horiz-adv-x="854" unicode="⁶"/><glyph d="M580 1409q0 -16 -7 -35l-256 -749q-10 -23 -32 -23h-76q-33 0 -23 33l263 756h-349q-29 0 -28 28v68q0 29 28 29h451q29 0 29 -29v-78z" glyph-name="uni2077" horiz-adv-x="681" unicode="⁷"/><glyph d="M563 1126q123 -80 123 -229q0 -117 -82 -200t-201 -83q-117 0 -198.5 83t-81.5 200q0 150 123 229q-72 66 -72 168q0 96 67.5 165t164 69t165 -68.5t68.5 -165.5q0 -98 -76 -168zM403 1409q-47 0 -79.5 -34t-32.5 -81t32.5 -79.5t79.5 -32.5q49 0 83 32.5t34 79.5t-34 81 t-83 34zM405.5 733q67.5 0 115.5 48t48 116q0 66 -48 115t-115.5 49t-115.5 -48t-48 -116t48 -116t115.5 -48z" glyph-name="uni2078" horiz-adv-x="808" unicode="⁸"/><glyph d="M412 1528q127 0 218 -91t91 -218q0 -82 -37 -144l-260 -436q-14 -25 -39 -10l-55 33q-25 12 -11 38l127 211q-12 -2 -36 -2q-127 0 -217.5 91.5t-90.5 218.5t91.5 218t218.5 91zM412 1032q78 0 132 55.5t54 131t-55.5 131t-131 55.5t-131 -55.5t-55.5 -131t55.5 -131 t131.5 -55.5z" glyph-name="uni2079" horiz-adv-x="843" unicode="⁹"/><glyph d="M1251 147l23 -67q12 -35 -23 -47q-129 -45 -262 -45q-250 0 -450.5 146.5t-278.5 375.5h-121q-37 0 -37 37v69q0 37 37 37h86q-8 47 -8 104.5t8 104.5h-86q-37 0 -37 37v70q0 37 37 37h121q82 227 282.5 374.5t446.5 147.5q147 0 264 -49q35 -12 21 -47l-21 -62 q-12 -35 -47 -22q-111 37 -217 36q-188 0 -344 -105t-231 -273h569q37 0 37 -37v-70q0 -37 -37 -37h-612q-10 -57 -10.5 -104t10.5 -105h612q37 0 37 -37v-69q0 -37 -37 -37h-567q76 -166 231.5 -272.5t341.5 -106.5q106 0 215 39q35 12 47 -23z" glyph-name="Euro" horiz-adv-x="1378" unicode="€"/><glyph d="M508 1516q29 0 29 -29v-47q0 -29 -29 -29h-152v-635q0 -29 -28 -28h-47q-29 0 -29 28v635h-152q-29 0 -28 29v47q0 29 28 29h408zM1354 1516q29 0 28 -29v-711q0 -29 -28 -28h-47q-29 0 -29 28v496l-240 -479q-10 -18 -28 -19h-15q-20 0 -28 19l-240 479v-496 q0 -29 -29 -28h-47q-29 0 -28 28v711q0 29 28 29h35q25 0 33 -21l282 -575l285 575q8 20 33 21h35z" glyph-name="trademark" horiz-adv-x="1474" unicode="™"/><glyph d="M1065 461q0 -195 -141.5 -334t-340 -139t-340 141t-141.5 340q0 201 141.5 342t342.5 141q199 0 338 -139v184q0 156 -109.5 265.5t-263.5 109.5h-143q-37 0 -37 37v70q0 37 37 37h143q211 0 362.5 -153t151.5 -366v-536zM583.5 131q141.5 0 241 99.5t99.5 238.5 q0 141 -99.5 240.5t-241 99.5t-240.5 -99.5t-99 -240.5q0 -139 99 -238.5t240.5 -99.5z" glyph-name="partialdiff" horiz-adv-x="1187" unicode="∂"/><glyph d="M1157 166q8 -18 8 -45v-84q0 -37 -37 -37h-978q-37 0 -37 37v84q0 27 8 45l454 1319q10 31 41 31h46q31 0 40 -31zM262 143h754l-377 1082z" glyph-name="uni2206" horiz-adv-x="1267" unicode="∆"/><glyph d="M1550 1516q37 0 37 -37v-70q0 -37 -37 -37h-239v-1724q0 -37 -37 -37h-70q-37 0 -37 37v1724h-649v-1724q0 -37 -37 -37h-69q-37 0 -37 37v1724h-236q-37 0 -37 37v70q0 37 37 37h1411z" glyph-name="product" horiz-adv-x="1679" unicode="∏"/><glyph d="M1057 -287h-926q-37 0 -37 37v82q0 23 15 45l507 758l-510 717q-14 23 -14 45v82q0 37 37 37h928q37 0 37 -37v-70q0 -37 -37 -37h-791l506 -713q18 -27 0 -51l-510 -751h795q37 0 37 -37v-70q0 -37 -37 -37z" glyph-name="summation" horiz-adv-x="1175" unicode="∑"/><glyph d="M1337 1516q37 0 25 -35l-590 -1456q-10 -25 -37 -25h-45q-27 0 -35 25l-317 856h-219q-37 0 -37 37v69q0 37 37 37h291q31 0 41 -29l266 -725l497 1221q10 25 37 25h86z" glyph-name="radical" horiz-adv-x="1458" unicode="√"/><glyph d="M1466 965q160 0 274.5 -128t114.5 -306.5t-114.5 -306.5t-276.5 -128q-229 0 -485 312q-238 -311 -483 -312q-162 0 -278 129t-116 305q0 178 116 306.5t274 128.5q131 0 259 -90.5t228 -221.5q256 312 487 312zM494 246q104 0 211.5 89t183.5 195q-76 106 -183.5 195.5 t-211.5 89.5q-98 0 -171 -84t-73 -200.5t73 -200.5t171 -84zM1466 246q98 0 169 83t71 201.5t-70.5 201.5t-169.5 83q-102 0 -209.5 -89t-183.5 -196q76 -106 183.5 -195t209.5 -89z" glyph-name="infinity" horiz-adv-x="1947" unicode="∞"/><glyph d="M166 -389h-37t-37 37v69q0 37 37 37h37q78 0 132 54.5t54 132.5v1204q0 156 107.5 263.5t259.5 107.5h37q37 0 37 -37v-70q0 -37 -37 -37h-37q-94 0 -158.5 -65.5t-64.5 -161.5v-1204q0 -137 -96.5 -233.5t-233.5 -96.5z" glyph-name="integral" horiz-adv-x="874" unicode="∫"/><glyph d="M1092 707q-229 -125 -506 -60q-4 2 -39 10.5t-54.5 11.5t-57.5 10t-66.5 8t-66.5 1t-73.5 -7t-68.5 -19q-37 -14 -37 24v70q0 27 24 37q84 31 172.5 32.5t144.5 -8.5t165 -39q229 -57 446 56q16 8 26.5 1.5t10.5 -22.5v-70q0 -24 -20 -36zM1092 371q-229 -125 -506 -60 q-4 2 -39 10.5t-54.5 11.5t-57.5 10t-66.5 8t-66.5 1t-73.5 -7t-68.5 -19q-37 -14 -37 24v70q0 27 24 37q84 31 172.5 33t144.5 -8.5t165 -39.5q229 -57 446 56q16 8 26.5 2t10.5 -23v-69q0 -25 -20 -37z" glyph-name="approxequal" horiz-adv-x="1224" unicode="≈"/><glyph d="M1044 674h-317l-98 -201h415q37 0 37 -37v-65q0 -37 -37 -37h-485l-174 -352q-14 -33 -49 -17l-62 29q-33 16 -16 49l143 291h-241q-37 0 -37 37v65q0 37 37 37h311l100 201h-411q-37 0 -37 37v65q0 37 37 37h481l172 348q14 33 49 17l60 -29q31 -16 16 -49l-141 -287 h247q37 0 37 -37v-65q0 -37 -37 -37z" glyph-name="notequal" horiz-adv-x="1193" unicode="≠"/><glyph d="M928 281l-770 350q-23 10 -23 35v49q0 25 23 35l770 348q14 8 25.5 1t11.5 -24v-94q0 -23 -23 -35l-575 -256l575 -262q23 -10 23 -35v-90q0 -16 -11.5 -23t-25.5 1zM123 37v67q0 37 37 37h768q37 0 37 -37v-67q0 -37 -37 -37h-768q-37 0 -37 37z" glyph-name="lessequal" horiz-adv-x="1077" unicode="≤"/><glyph d="M113 303v90q0 25 22 35l576 262l-576 256q-23 12 -22 35v94q0 16 11 23.5t26 -0.5l770 -348q23 -10 22 -35v-49q0 -25 -22 -35l-770 -350q-14 -8 -25.5 -1t-11.5 23zM918 0h-768q-37 0 -37 37v67q0 37 37 37h768q37 0 36 -37v-67q1 -37 -36 -37z" glyph-name="greaterequal" horiz-adv-x="1077" unicode="≥"/><glyph d="M604 0h-39q-20 0 -28 16l-431 715q-16 25 0 49l431 719q8 16 28 17h39q20 0 29 -17l426 -719q14 -25 0 -49l-426 -715q-9 -16 -29 -16zM262 756l322 -543l323 543l-323 547z" glyph-name="lozenge" horiz-adv-x="1155" unicode="◊"/><glyph d="M129 0q-37 0 -37 37v1063q0 147 99.5 240.5t234.5 93.5h127q37 0 37 -37v-68q0 -37 -37 -37h-127q-78 0 -135.5 -57t-57.5 -135v-76h480v76q0 147 99 240.5t235 93.5h127q37 0 36 -37v-68q0 -37 -36 -37h-127q-78 0 -135.5 -57t-57.5 -135v-76h326q31 0 30 -31v-63 q0 -31 -30 -31h-326v-862q0 -37 -37 -37h-67q-37 0 -37 37v862h-480v-862q0 -37 -36 -37h-68z" glyph-name="f_f.dlig" horiz-adv-x="1292"/><glyph d="M129 0q-37 0 -37 37v1063q0 147 99.5 240.5t234.5 93.5h127q37 0 37 -37v-68q0 -37 -37 -37h-127q-78 0 -135.5 -57t-57.5 -135v-76h480v76q0 147 99 240.5t235 93.5h127q37 0 36 -37v-68q0 -37 -36 -37h-127q-78 0 -135.5 -57t-57.5 -135v-76h670q37 0 37 -37v-950 q0 -37 -37 -37h-72q-37 0 -37 37v862h-561v-862q0 -37 -37 -37h-67q-37 0 -37 37v862h-480v-862q0 -37 -36 -37h-68zM1393 1221q0 37 28.5 65.5t65.5 28.5q41 0 68.5 -27.5t27.5 -66.5q0 -41 -26.5 -68t-69.5 -27q-39 0 -66.5 27t-27.5 68z" glyph-name="f_f_i.dlig" horiz-adv-x="1695"/><glyph d="M129 0q-37 0 -37 37v1063q0 147 99.5 240.5t234.5 93.5h127q37 0 37 -37v-68q0 -37 -37 -37h-127q-78 0 -135.5 -57t-57.5 -135v-76h662q37 0 37 -37v-950q0 -37 -37 -37h-72q-37 0 -37 37v862h-553v-862q0 -37 -36 -37h-68zM858 1126q-39 0 -66.5 27t-27.5 68 q0 37 28.5 65.5t65.5 28.5q41 0 68.5 -27.5t27.5 -66.5q0 -41 -26.5 -68t-69.5 -27z" glyph-name="f_i.dlig" horiz-adv-x="1249"/><glyph d="M123 334v979q0 37 37 37h69q37 0 37 -37v-289h500v289q0 37 37 37h69q37 0 37 -37v-289h328q31 0 31 -31v-65q0 -31 -31 -31h-328v-563q0 -78 56.5 -134.5t134.5 -56.5h131q37 0 37 -37v-69q0 -37 -37 -37h-131q-143 0 -238.5 95t-95.5 239v563h-500v-563 q0 -78 56.5 -134.5t134.5 -56.5h131q37 0 37 -37v-69q0 -37 -37 -37h-131q-143 0 -238.5 95.5t-95.5 238.5z" glyph-name="t_t.dlig" horiz-adv-x="1339"/></font>
</defs>
</svg>
