<?xml version="1.0" standalone="no"?>
<!DOCTYPE svg PUBLIC "-//W3C//DTD SVG 1.1//EN" "http://www.w3.org/Graphics/SVG/1.1/DTD/svg11.dtd">
<svg xmlns="http://www.w3.org/2000/svg"><metadata>This SVG WebFont was generated by YouWorkForThem.
Copyright (c) 2015 by thmbnl. graphic design. All rights reserved</metadata><defs><font horiz-adv-x="1200" id="ywftsvg"><font-face ascent="1638" bbox="-842.762 -506 2357 2062" cap-height="1516" descent="-410" font-family="" font-stretch="normal" font-weight="600" panose-1="0 0 7 0 0 0 0 0 0 0" underline-position="0" underline-thickness="0" unicode-range="U+0020-25CA" units-per-em="2048" x-height="1024"/><missing-glyph d="M788 1516v-1926h-610v1926h610zM641 1386h-317v-63h125v-72h-127v-63h319v63h-127v72h127v63zM514 1139h-192v-201h319v66h-127v135zM449 1073v-69h-64v69h64zM641 887h-319v-64h127v-71h-127v-64h192v135h127v64zM641 770h-63v-127h-256v-65h319v192zM641 537h-192v-109 h65v45h64v-92h-193v156h-63v-220h319v220zM641 203h-319v-217h319v217zM578 139v-90h-193v90h193zM641 -59h-319v-64h135l-135 -90v-63h319v63h-197l136 90h61v64z" horiz-adv-x="962"/><glyph d="M788 1516v-1926h-610v1926h610zM641 1386h-317v-63h125v-72h-127v-63h319v63h-127v72h127v63zM514 1139h-192v-201h319v66h-127v135zM449 1073v-69h-64v69h64zM641 887h-319v-64h127v-71h-127v-64h192v135h127v64zM641 770h-63v-127h-256v-65h319v192zM641 537h-192v-109 h65v45h64v-92h-193v156h-63v-220h319v220zM641 203h-319v-217h319v217zM578 139v-90h-193v90h193zM641 -59h-319v-64h135l-135 -90v-63h319v63h-197l136 90h61v64z" glyph-name=".notdef" horiz-adv-x="962"/><glyph glyph-name="glyph1" horiz-adv-x="0"/><glyph glyph-name="glyph2" horiz-adv-x="681"/><glyph glyph-name="space" horiz-adv-x="604" unicode=" "/><glyph d="M158 356q-55 0 -56 54v1052q0 53 56 54h157q53 0 54 -54v-1052q0 -53 -54 -54h-157zM235.5 0q-59.5 0 -101.5 43t-42 102.5t42 100.5t101.5 41t101.5 -41t42 -100.5t-42 -102.5t-101.5 -43z" glyph-name="exclam" horiz-adv-x="471" unicode="!"/><glyph d="M229 1114q-51 0 -59 47l-74 295q-8 27 5.5 43.5t41.5 16.5h111q49 0 59 -48l76 -294q12 -59 -45 -60h-115zM543 1114q-51 0 -60 47l-73 295q-16 59 47 60h110q49 0 60 -48l75 -294q12 -59 -45 -60h-114z" glyph-name="quotedbl" horiz-adv-x="788" unicode="&quot;"/><glyph d="M1407 1114q57 0 47 -59l-22 -105q-6 -49 -58 -49h-229l-51 -272h213q57 0 45 -60l-21 -104q-10 -47 -57 -47h-221l-70 -369q-8 -49 -57 -49h-113q-57 0 -47 59l70 359h-289l-72 -369q-8 -49 -57 -49h-109q-59 0 -49 59l72 359h-201q-59 0 -47 59l20 105q10 47 58 47h209 l53 272h-193q-57 0 -47 60l23 104q6 49 55 49h203l70 354q6 47 57 48h108q27 0 40.5 -16.5t7.5 -43.5l-66 -342h289l69 354q10 47 58 48h106q57 0 47 -60l-65 -342h221zM877 629l53 272h-289l-53 -272h289z" glyph-name="numbersign" horiz-adv-x="1525" unicode="#"/><glyph d="M999 430q0 -166 -101 -288t-263 -150v-162q0 -53 -53 -53h-121q-53 0 -53 53v170q-143 37 -287 145q-39 27 -15 72l87 150q25 45 71 14q143 -104 264 -105q80 0 131.5 45.5t51.5 114.5q0 84 -75 143.5t-245 143.5q-305 152 -295 403q4 139 90 241.5t222 141.5v158 q0 53 53 53h121q53 0 53 -53v-145q104 -16 219 -80q43 -25 16 -70l-77 -121q-27 -39 -72 -16q-84 47 -166 47q-80 0 -132 -45t-52 -115q0 -31 14 -58.5t28.5 -43.5t54.5 -42t57.5 -34t70.5 -35q16 -8 25 -12q68 -31 117.5 -61.5t117.5 -87t105.5 -138.5t37.5 -180z" glyph-name="dollar" horiz-adv-x="1081" unicode="$"/><glyph d="M428 823q-143 0 -244.5 101.5t-101.5 245t101.5 246t244.5 102.5t246.5 -102.5t103.5 -246t-103.5 -245t-246.5 -101.5zM514 0h-125q-31 0 -42 18.5t5 44.5l744 1416q23 37 63 37h125q31 0 41 -18.5t-4 -45.5l-743 -1415q-21 -37 -64 -37zM428 1307q-55 0 -94 -40 t-39 -98q0 -53 39 -93t94 -40q57 0 97 40t40 93q0 57 -40 97.5t-97 40.5zM1247.5 -2q-143.5 0 -246 102.5t-102.5 245.5q0 145 101.5 246.5t246.5 101.5q143 0 245.5 -102.5t102.5 -245.5t-102 -245.5t-245.5 -102.5zM1247 481q-57 0 -97 -39t-40 -96q0 -55 41 -95t96.5 -40 t95 41t39.5 94q0 57 -40 96t-95 39z" glyph-name="percent" horiz-adv-x="1667" unicode="%"/><glyph d="M1155 686q49 -25 27 -72l-144 -292l117 -138q35 -41 -8 -75l-111 -95q-39 -33 -75 6l-72 82q-137 -121 -320 -120q-203 0 -345 143t-142 344q0 233 178 377q-102 117 -102 270q0 170 121.5 291t289.5 121q170 0 290 -121t120 -291q0 -137 -81 -244.5t-206 -142.5 l168 -197l90 193q27 49 72 25zM569 1272q-66 0 -111.5 -46t-45.5 -111.5t46 -112t111 -46.5q63 0 109.5 46.5t46.5 112t-46.5 111.5t-109.5 46zM571 236q88 0 152 61l-299 354q-90 -70 -90 -184q0 -102 70.5 -166.5t166.5 -64.5z" glyph-name="ampersand" horiz-adv-x="1275" unicode="&amp;"/><glyph d="M229 1114q-51 0 -59 47l-74 295q-8 27 5.5 43.5t41.5 16.5h111q49 0 59 -48l76 -294q12 -59 -45 -60h-115z" glyph-name="quotesingle" horiz-adv-x="475" unicode="'"/><glyph d="M559 -80l-115 -74q-45 -31 -73 15q-258 395 -258 817q0 449 260 829q29 43 73 15l107 -68q49 -29 16 -74q-111 -172 -165 -335.5t-54 -356.5q0 -195 54.5 -352.5t170.5 -343.5q31 -41 -16 -72z" glyph-name="parenleft" horiz-adv-x="675" unicode="("/><glyph d="M100 -8q117 186 172.5 344t55.5 352q0 350 -222 692q-29 47 17 74l106 68q45 29 76 -15q260 -385 260 -829q0 -418 -258 -817q-31 -43 -76 -15l-114 74q-44 31 -17 72z" glyph-name="parenright" horiz-adv-x="675" unicode=")"/><glyph d="M737 1163q39 0 39 -41v-80q0 -41 -39 -41h-119l84 -83q29 -29 0 -58l-57 -57q-27 -29 -55 0l-84 86v-121q0 -41 -39 -41h-82q-41 0 -41 41v121l-84 -86q-29 -27 -57 2l-56 55q-27 31 0 58l82 83h-118q-39 0 -39 41v80q0 41 39 41h118l-82 82q-29 29 0 58l56 57 q29 29 57 0l84 -84v119q0 41 41 41h82q39 0 39 -41v-119l84 84q29 29 57 0l55 -57q29 -27 0 -56l-84 -84h119z" glyph-name="asterisk" horiz-adv-x="847" unicode="*"/><glyph d="M1118 678q53 0 53 -55v-125q0 -53 -53 -54h-381v-391q0 -55 -53 -55h-127q-53 0 -53 55v391h-379q-53 0 -53 54v125q0 55 53 55h379v366q0 53 53 54h127q53 0 53 -54v-366h381z" glyph-name="plus" horiz-adv-x="1230" unicode="+"/><glyph d="M238 -170h-115q-29 0 -41 15.5t-4 41.5l74 297q12 47 59 47h113q59 0 47 -59l-76 -297q-8 -45 -57 -45z" glyph-name="comma" horiz-adv-x="464" unicode=","/><glyph d="M694 483h-549q-53 0 -53 54v157q0 53 53 54h549q53 0 54 -54v-157q-1 -54 -54 -54z" glyph-name="hyphen" horiz-adv-x="839" unicode="-"/><glyph d="M360 143.5q0 -59.5 -43 -101.5t-102 -42t-101 43t-42 100q0 59 42 101.5t101 42.5t102 -42t43 -101.5z" glyph-name="period" horiz-adv-x="430" unicode="."/><glyph d="M74 63l547 1410q14 43 61 43h117q29 0 41 -17.5t2 -46.5l-549 -1409q-16 -43 -62 -43h-114q-29 0 -41 17t-2 46z" glyph-name="slash" horiz-adv-x="925" unicode="/"/><glyph d="M616 -12q-205 0 -351 146.5t-146 350.5v545q0 205 146.5 351.5t350.5 146.5q207 0 352.5 -145.5t145.5 -352.5v-545q0 -207 -145.5 -352t-352.5 -145zM387 1030v-545q0 -94 67.5 -162.5t162 -68.5t163 68.5t68.5 162.5v545q0 94 -68.5 163t-163 69t-162 -69t-67.5 -163z " glyph-name="zero" horiz-adv-x="1232" unicode="0"/><glyph d="M555 1516q53 0 53 -54v-1409q0 -53 -53 -53h-162q-53 0 -53 53v1227h-211q-51 0 -51 53v131q0 51 51 52h426z" glyph-name="one" horiz-adv-x="757" unicode="1"/><glyph d="M983 270q53 0 53 -53v-164q0 -53 -53 -53h-764q-53 0 -53 53l-2 180q0 35 24 66l504 586q70 82 63 186.5t-85 165.5q-68 53 -161 44t-167 -85q-37 -37 -74 -6l-98 80q-43 37 -10 76q131 160 331.5 183t354.5 -104q156 -133 167 -342t-124 -362l-381 -451h475z" glyph-name="two" horiz-adv-x="1153" unicode="2"/><glyph d="M905 850q180 -145 180 -371q0 -201 -142 -346t-349 -145q-168 0 -302 100t-188 264q-16 49 35 68l146 55q47 18 69 -33q78 -176 240 -176q92 0 157.5 63.5t65.5 155.5q0 94 -67.5 161t-163.5 67h-25q-51 0 -51 51v147q0 53 51 54h27q63 0 106 44t43 107q0 61 -43 105.5 t-106 44.5q-72 0 -119 -60q-31 -31 -63 -10l-123 76q-45 33 -17 74q129 182 338 182q172 0 288 -122t116 -292q-1 -153 -103 -264z" glyph-name="three" horiz-adv-x="1214" unicode="3"/><glyph d="M1118 532q55 0 56 -53v-145q0 -53 -56 -53h-108v-228q0 -53 -54 -53h-159q-53 0 -54 53v228h-587q-53 0 -54 53v162q0 35 21 67l657 920q25 33 64 33h112q53 0 54 -54v-930h108zM391 532h352v494z" glyph-name="four" horiz-adv-x="1273" unicode="4"/><glyph d="M549 1044q217 0 369.5 -154.5t152.5 -369.5q0 -219 -154.5 -375.5t-365.5 -156.5q-231 0 -404 186q-37 39 7 76l127 106q37 33 75 -6q78 -82 193 -82q106 0 180 73t74 181q0 106 -74 180t-182 74q-68 0 -127 -33q-37 -20 -66 2l-147 111q-31 23 -25 59l84 551q8 49 58 50 h579q53 0 53 -54v-162q0 -53 -53 -53h-403l-33 -217q47 14 82 14z" glyph-name="five" horiz-adv-x="1185" unicode="5"/><glyph d="M674 1042q213 -2 365.5 -155.5t152.5 -370.5t-155.5 -372.5t-373 -155.5t-373 155.5t-155.5 372.5q0 139 62 244l424 710q29 45 71 19l139 -80q45 -29 19 -74zM664 256q109 0 185.5 76t76.5 184q0 106 -77 183t-185.5 77t-184.5 -77.5t-76 -182.5q0 -106 77.5 -183 t183.5 -77z" glyph-name="six" horiz-adv-x="1282" unicode="6"/><glyph d="M891 1516q53 0 53 -54v-182q0 -29 -10 -66l-408 -1171q-14 -43 -61 -43h-176q-29 0 -41 16.5t-2 44.5l409 1186h-522q-55 0 -55 53v162q0 53 55 54h758z" glyph-name="seven" horiz-adv-x="1019" unicode="7"/><glyph d="M909 846q180 -141 181 -373q0 -201 -141.5 -343t-342 -142t-342 142t-141.5 343q0 231 180 373q-106 117 -106 272q0 170 119.5 290t289.5 120t291 -120t121 -290q0 -153 -109 -272zM606.5 1272q-65.5 0 -110.5 -45t-45 -109q0 -66 45 -110.5t110.5 -44.5t110.5 45 t45 110q0 63 -45 108.5t-110.5 45.5zM606 244q94 0 162 66.5t68 162.5q0 94 -68 161.5t-162 67.5t-161.5 -66.5t-67.5 -162.5t66.5 -162.5t162.5 -66.5z" glyph-name="eight" horiz-adv-x="1212" unicode="8"/><glyph d="M618.5 1532q217.5 0 373 -155.5t155.5 -372.5q0 -137 -60 -244l-409 -723q-23 -37 -64 -37h-196q-33 0 -44.5 18.5t5.5 47.5l235 411q-215 0 -368.5 154.5t-153.5 372.5q0 219 154.5 373.5t372 154.5zM618 743q109 0 185 78t76 184.5t-77 182.5t-183.5 76t-183.5 -77 t-77 -183.5t77 -183.5t183 -77z" glyph-name="nine" horiz-adv-x="1218" unicode="9"/><glyph d="M360 881q0 -59 -43 -101.5t-102 -42.5t-101 42t-42 101.5t42 101.5t101 42t102 -43t43 -100zM360 143q0 -57 -43 -100t-102 -43t-101 42t-42 101q0 61 42 103.5t101 42.5t102 -42.5t43 -103.5z" glyph-name="colon" horiz-adv-x="419" unicode=":"/><glyph d="M258 737q-59 0 -100 42t-41 101.5t42 101.5t99 42q59 0 102 -42t43 -101.5t-43 -101.5t-102 -42zM133 -170q-29 0 -41 15.5t-4 41.5l74 297q12 47 59 47h113q59 0 47 -59l-76 -297q-8 -45 -57 -45h-115z" glyph-name="semicolon" horiz-adv-x="485" unicode=";"/><glyph d="M803 0l-666 393q-35 20 -35 64v108q0 43 35 64l666 393q25 16 43 6t18 -41v-162q0 -39 -37 -61l-430 -252l432 -252q35 -20 35 -63v-162q0 -31 -18 -41t-43 6z" glyph-name="less" horiz-adv-x="935" unicode="&lt;"/><glyph d="M1100 627h-944q-53 0 -54 53v125q0 55 54 55h944q53 0 53 -55v-125q0 -53 -53 -53zM1100 285h-944q-53 0 -54 53v127q0 55 54 55h944q53 0 53 -55v-127q0 -53 -53 -53z" glyph-name="equal" horiz-adv-x="1245" unicode="="/><glyph d="M72 35v162q0 43 34 63l431 252l-431 252q-35 23 -34 61v162q0 31 17 41t44 -6l664 -393q37 -23 37 -64v-108q0 -41 -37 -64l-664 -393q-27 -16 -44 -6t-17 41z" glyph-name="greater" horiz-adv-x="935" unicode=">"/><glyph d="M950 1071q0 -154 -94 -275.5t-235 -162.5v-223q0 -53 -56 -54h-162q-53 0 -53 54v417q0 53 53 54h84q78 0 135.5 57t57.5 137q0 88 -66.5 141.5t-150.5 45t-131 -75.5q-27 -35 -62 -23l-157 68q-53 25 -27 72q61 109 167.5 170t231.5 61q193 0 329 -135t136 -328z M643 145q0 -61 -43 -103t-102.5 -42t-101.5 42t-42 103q0 59 42 101.5t101.5 42.5t102.5 -42.5t43 -101.5z" glyph-name="question" horiz-adv-x="1030" unicode="?"/><glyph d="M854 1528q317 0 542.5 -226.5t225.5 -553.5q0 -211 -93 -356.5t-253 -145.5q-98 0 -174 54t-107 128q-86 -51 -180 -51q-152 0 -260.5 108.5t-108.5 259.5q0 154 108 262.5t263 108.5q94 0 172 -47q6 39 47 39h97q53 0 53 -53v-516q2 -33 23.5 -57.5t58.5 -24.5 q51 0 79.5 52t36.5 120q39 158 -16 318.5t-193.5 269t-320.5 108.5q-233 0 -396 -167t-163 -398q0 -233 163 -396t390 -163q57 0 108 12q43 6 56 -37l26 -110q12 -53 -41 -64q-72 -14 -145 -14q-317 0 -543.5 226t-226.5 543.5t226.5 544t545.5 226.5zM815.5 590 q65.5 0 111.5 46t46 112q0 63 -46 109t-111.5 46t-112 -46t-46.5 -109q0 -66 46.5 -112t112 -46z" glyph-name="at" horiz-adv-x="1703" unicode="@"/><glyph d="M1475 59q23 -59 -41 -59l-185 2q-45 0 -59 39l-92 231h-625l-94 -231q-14 -41 -60 -41h-184q-61 0 -41 59l563 1418q14 39 60 39h127q45 0 59 -39zM580 541h411l-205 518z" glyph-name="A" horiz-adv-x="1560" unicode="A"/><glyph d="M868 780q156 -131 156 -334q0 -186 -130 -316t-316 -130h-412q-53 0 -53 53v1409q0 53 53 54h366q186 0 316.5 -130.5t130.5 -314.5q0 -166 -111 -291zM371 1247v-354h153q72 0 125 52t53 124q0 74 -53 126t-125 52h-153zM569 268q72 0 125.5 52.5t53.5 125.5 q0 72 -53.5 124.5t-125.5 52.5h-198v-355h198z" glyph-name="B" horiz-adv-x="1105" unicode="B"/><glyph d="M842 -12q-319 0 -544.5 226t-225.5 543.5t225 544t541 226.5q293 0 526 -217q37 -33 6 -76l-92 -113q-35 -41 -76 -6q-178 143 -362 144q-207 0 -354.5 -147.5t-147.5 -354.5t147.5 -354.5t354.5 -147.5q197 0 362 137q41 39 74 -6l96 -125q31 -41 -8 -74 q-227 -200 -522 -200z" glyph-name="C" horiz-adv-x="1492" unicode="C"/><glyph d="M571 1516q313 0 535.5 -222.5t222.5 -536t-222 -535.5t-536 -222h-405q-53 0 -53 53v1409q0 53 53 54h405zM571 268q201 0 344.5 143.5t143.5 346.5t-143.5 346t-344.5 143h-190v-979h190z" glyph-name="D" horiz-adv-x="1398" unicode="D"/><glyph d="M897 268q53 0 53 -53v-162q0 -53 -53 -53h-731q-53 0 -53 53v1409q0 53 53 54h731q53 0 53 -54v-162q0 -53 -53 -53h-516v-370h479q53 0 53 -52v-133q0 -51 -53 -51h-479v-373h516z" glyph-name="E" horiz-adv-x="1042" unicode="E"/><glyph d="M381 53q0 -53 -53 -53h-162q-53 0 -53 53v1409q0 53 53 54h696q53 0 53 -54v-162q0 -53 -53 -53h-481v-370h444q53 0 54 -52v-133q0 -51 -54 -51h-444v-588z" glyph-name="F" horiz-adv-x="987" unicode="F"/><glyph d="M1530 866q53 0 53 -53v-88q-12 -311 -228 -524t-521 -213q-322 0 -537 225t-215 545q0 317 225 543.5t543 226.5q283 0 516 -215q39 -37 4 -78l-92 -113q-33 -43 -76 -6q-174 143 -352 144q-207 0 -353.5 -147.5t-146.5 -354.5q0 -213 140.5 -357.5t343.5 -144.5 q170 0 299 105.5t163 269.5h-516q-51 0 -51 51v133q0 51 51 51h750z" glyph-name="G" horiz-adv-x="1675" unicode="G"/><glyph d="M889 1462q0 53 53 54h160q53 0 53 -54v-1409q0 -53 -53 -53h-160q-53 0 -53 53v586h-510v-586q0 -53 -53 -53h-160q-53 0 -53 53v1409q0 53 53 54h160q53 0 53 -54v-585h510v585z" glyph-name="H" horiz-adv-x="1257" unicode="H"/><glyph d="M113 53v1409q0 53 53 54h158q53 0 53 -54v-1409q0 -53 -53 -53h-158q-53 0 -53 53z" glyph-name="I" horiz-adv-x="479" unicode="I"/><glyph d="M377 1462q0 53 53 54h160q53 0 53 -54v-1063q0 -190 -103.5 -294.5t-293.5 -104.5h-111q-53 0 -53 53v160q0 53 53 53h109q53 0 92 38t39 93z" glyph-name="J" horiz-adv-x="755" unicode="J"/><glyph d="M1108 61q16 -27 6 -44t-41 -17h-209q-43 0 -63 37l-371 610l-51 -67v-527q0 -53 -53 -53h-160q-53 0 -53 53v1409q0 53 53 54h160q53 0 53 -54v-463l360 484q25 33 62 33h192q33 0 42 -18.5t-11 -45.5l-420 -569z" glyph-name="K" horiz-adv-x="1216" unicode="K"/><glyph d="M862 0h-696q-53 0 -53 53v1409q0 53 53 54h162q53 0 53 -54v-1194h481q55 0 56 -53v-162q-1 -53 -56 -53z" glyph-name="L" horiz-adv-x="976" unicode="L"/><glyph d="M1563 1516q53 0 53 -54v-1409q0 -53 -53 -53h-164q-53 0 -53 53v830l-394 -799q-14 -33 -49 -33h-78q-35 0 -49 33l-395 799v-830q0 -53 -53 -53h-162q-53 0 -53 53v1409q0 53 53 54h127q41 0 59 -37l512 -1045l512 1045q18 37 60 37h127z" glyph-name="M" horiz-adv-x="1718" unicode="M"/><glyph d="M1024 1462q0 53 53 54h160q55 0 55 -54v-1409q0 -53 -55 -53h-115q-43 0 -61 33l-680 979v-959q0 -53 -53 -53h-162q-53 0 -53 53v1409q0 53 53 54h110q41 0 64 -33l684 -983v962z" glyph-name="N" horiz-adv-x="1392" unicode="N"/><glyph d="M852 1528q319 0 544.5 -225.5t225.5 -545t-225.5 -544.5t-544.5 -225q-317 0 -543.5 225t-226.5 544.5t226.5 545t543.5 225.5zM850 1262q-207 0 -353.5 -147.5t-146.5 -356.5q0 -207 146.5 -354.5t353.5 -147.5t355.5 148.5t148.5 353.5t-148.5 354.5t-355.5 149.5z" glyph-name="O" horiz-adv-x="1703" unicode="O"/><glyph d="M580 1516q190 0 324 -133.5t134 -322t-134 -323.5t-324 -135h-199v-549q0 -53 -53 -53h-162q-53 0 -53 53v1409q0 53 53 54h414zM580 872q80 0 134 54.5t54 134.5q0 78 -54.5 132t-133.5 54h-199v-375h199z" glyph-name="P" horiz-adv-x="1089" unicode="P"/><glyph d="M1452 276l94 -94q39 -39 -2 -76l-90 -88q-37 -37 -78 0l-96 101q-190 -133 -428 -133q-319 0 -544.5 225t-225.5 547q0 317 226.5 542.5t543.5 225.5t543.5 -225.5t226.5 -542.5q0 -273 -170 -482zM852 254q127 0 231 61l-84 88q-35 41 2 78l89 86q37 37 75 0l95 -96 q94 123 94 287q0 207 -146.5 353t-355.5 146q-211 0 -357.5 -145t-146.5 -354q0 -211 146.5 -357.5t357.5 -146.5z" glyph-name="Q" horiz-adv-x="1703" unicode="Q"/><glyph d="M1094 61q16 -27 6 -44t-41 -17h-193q-41 0 -61 37l-326 567h-98v-551q0 -53 -53 -53h-162q-55 0 -55 53v1409q0 53 55 54h414q188 0 321 -133.5t133 -321.5q0 -141 -77.5 -256t-202.5 -166zM381 1247v-375h199q78 0 133 54.5t55 134.5q0 78 -55.5 132t-132.5 54h-199z " glyph-name="R" horiz-adv-x="1173" unicode="R"/><glyph d="M543 -16q-205 0 -414 155q-47 33 -23 78l82 143q29 47 74 17q145 -102 266 -103q80 0 131.5 44t51.5 114q0 33 -14.5 62.5t-33 50t-56.5 45t-62.5 38t-77.5 39t-76 38.5q-307 166 -295 421q8 182 142.5 295t326.5 107q152 -2 289 -86q47 -27 16 -70l-77 -119 q-27 -39 -72 -18q-84 47 -166 47q-80 0 -132 -45t-52 -115q0 -20 6 -38.5t14 -33t26.5 -30.5t30 -25.5t40 -25t41 -21.5t46 -22.5t46.5 -22.5q379 -174 378 -473q0 -188 -129.5 -317t-326.5 -129z" glyph-name="S" horiz-adv-x="1077" unicode="S"/><glyph d="M954 1516q53 0 54 -54v-162q0 -53 -54 -53h-286v-1194q0 -53 -54 -53h-159q-53 0 -54 53v1194h-286q-53 0 -54 53v162q0 53 54 54h839z" glyph-name="T" horiz-adv-x="1058" unicode="T"/><glyph d="M606 -12q-205 0 -349 144t-144 349v981q0 53 53 54h160q53 0 53 -54v-981q0 -92 66.5 -158.5t160.5 -66.5t159.5 66.5t65.5 158.5v981q0 53 54 54h162q53 0 53 -54v-981q0 -205 -144.5 -349t-349.5 -144z" glyph-name="U" unicode="U"/><glyph d="M1315 1516q29 0 39 -16.5t2 -43.5l-516 -1415q-14 -41 -60 -41h-110q-45 0 -60 41l-516 1415q-20 59 41 60h180q45 0 60 -41l350 -979l348 979q14 41 57 41h185z" glyph-name="V" horiz-adv-x="1437" unicode="V"/><glyph d="M1782 1516q27 0 39 -16.5t4 -43.5l-395 -1413q-12 -43 -58 -43h-127q-47 0 -57 45l-234 879l-229 -879q-12 -45 -59 -45h-125q-45 0 -58 43l-395 1413q-8 27 4 43.5t39 16.5h188q45 0 58 -43l250 -887l229 872q8 35 49 35h103q37 0 49 -35l229 -872l248 887q12 43 57 43 h191z" glyph-name="W" horiz-adv-x="1902" unicode="W"/><glyph d="M905 758l465 -697q16 -27 6 -44t-41 -17h-200q-41 0 -62 33l-332 491l-331 -491q-20 -33 -62 -33h-201q-31 0 -40 17.5t8 43.5l465 697l-467 696q-16 27 -6 44.5t40 17.5h201q41 0 62 -33l331 -492l332 492q20 33 62 33h202q31 0 40 -17.5t-7 -44.5z" glyph-name="X" horiz-adv-x="1474" unicode="X"/><glyph d="M1229 1516q31 0 41 -17.5t-4 -44.5l-447 -766v-635q0 -53 -53 -53h-160q-53 0 -53 53v635l-444 766q-16 27 -6 44.5t40 17.5h211q41 0 64 -35l268 -477l268 477q23 35 62 35h213z" glyph-name="Y" horiz-adv-x="1361" unicode="Y"/><glyph d="M1124 268q53 0 54 -53v-162q0 -53 -54 -53h-962q-53 0 -53 53v180q0 31 22 66l676 967h-682q-53 0 -53 53v143q0 53 53 54h954q55 0 56 -54v-157q0 -33 -23 -66l-678 -971h690z" glyph-name="Z" horiz-adv-x="1239" unicode="Z"/><glyph d="M494 -266h-328q-53 0 -53 53v1757q0 53 53 53h328q53 0 53 -53v-135q0 -53 -53 -53h-140v-1383h140q53 0 53 -53v-133q0 -53 -53 -53z" glyph-name="bracketleft" horiz-adv-x="628" unicode="["/><glyph d="M809 0h-115q-47 0 -61 43l-549 1409q-10 29 2 46.5t41 17.5h117q45 0 61 -43l547 -1410q10 -29 -2 -46t-41 -17z" glyph-name="backslash" horiz-adv-x="925" unicode="\"/><glyph d="M82 -213v133q0 53 53 53h139v1383h-139q-53 0 -53 53v135q0 53 53 53h328q53 0 53 -53v-1757q0 -53 -53 -53h-328q-53 0 -53 53z" glyph-name="bracketright" horiz-adv-x="628" unicode="]"/><glyph d="M119 635l393 665q20 35 63 35h109q43 0 64 -35l393 -665q16 -27 6 -44.5t-43 -17.5h-160q-39 0 -61 35l-252 432l-254 -432q-16 -35 -62 -35h-161q-31 0 -41 17.5t6 44.5z" glyph-name="asciicircum" horiz-adv-x="1259" unicode="^"/><glyph d="M1081 -201h-966q-53 0 -54 54v94q0 53 54 53h966q53 0 54 -53v-94q-1 -54 -54 -54z" glyph-name="underscore" horiz-adv-x="1196" unicode="_"/><glyph d="M326 1182l-320 170q-47 25 -20 73l51 93q29 49 74 22l313 -168q47 -25 22 -72l-47 -94q-24 -51 -73 -24z" glyph-name="grave" horiz-adv-x="552" unicode="`"/><glyph d="M1075 1024q23 0 39 -16.5t16 -38.5v-914q0 -23 -16 -39t-39 -16h-123q-20 0 -33.5 13.5t-13.5 33.5v39q-139 -102 -303 -102q-219 0 -373.5 155.5t-154.5 374.5q0 217 154.5 371.5t373.5 154.5q160 0 301 -100v37q0 20 13.5 33.5t33.5 13.5h125zM608.5 252 q106.5 0 182 77t75.5 185.5t-74.5 183t-183 74.5t-183.5 -74.5t-75 -183t76 -185.5t182.5 -77z" glyph-name="a" horiz-adv-x="1230" unicode="a"/><glyph d="M629 1040q219 0 373.5 -155.5t154.5 -372.5t-154.5 -372.5t-373.5 -155.5q-170 0 -303 100v-37q0 -47 -47 -47h-123q-53 0 -54 53v1327q0 53 54 54h159q53 0 54 -54v-419q117 79 260 79zM624.5 254q104.5 0 181.5 76t77 182t-77 182t-181.5 76t-181 -76t-76.5 -182 t76.5 -182t181 -76z" glyph-name="b" horiz-adv-x="1228" unicode="b"/><glyph d="M604 -16q-215 0 -368.5 155.5t-153.5 372.5q0 219 153.5 373.5t370.5 154.5q193 0 350 -137q39 -37 5 -78l-97 -108q-35 -37 -78 -6q-84 63 -178 63q-106 0 -182 -76.5t-76 -183t76 -182.5t182 -76q96 0 183 66q41 37 73 -5l97 -112q35 -43 -5 -76q-162 -145 -352 -145z " glyph-name="c" horiz-adv-x="1058" unicode="c"/><glyph d="M1073 1434q53 0 53 -54v-1327q0 -53 -53 -53h-123q-47 0 -47 47v37q-137 -100 -303 -100q-219 0 -373.5 154.5t-154.5 373.5t154.5 373.5t373.5 154.5q145 0 258 -79v419q0 53 55 54h160zM604 254q104 0 181 76t77 182t-76.5 182t-181.5 76q-106 0 -182 -76t-76 -182 t76 -182t182 -76z" glyph-name="d" horiz-adv-x="1228" unicode="d"/><glyph d="M1120 481q4 -53 -53 -53h-719q35 -94 111 -143t164 -49q119 0 235 81q45 25 74 -12l90 -106q35 -45 -8 -76q-178 -139 -396 -139q-231 0 -387.5 157.5t-156.5 380.5q0 217 152.5 367.5t373.5 150.5q217 0 361.5 -151.5t158.5 -407.5zM350 633h481q-16 78 -80.5 132 t-156.5 54t-160 -52t-84 -134z" glyph-name="e" horiz-adv-x="1191" unicode="e"/><glyph d="M496 1192q-55 0 -93 -38t-38 -91v-39h241q51 0 51 -51v-131q0 -51 -51 -51h-241l-3 -738q0 -53 -53 -53h-157q-53 0 -54 53v998q0 182 109.5 282.5t288.5 100.5h108q53 0 53 -54v-135q0 -53 -53 -53h-108z" glyph-name="f" horiz-adv-x="718" unicode="f"/><glyph d="M1077 1024q53 0 53 -53v-893q0 -246 -135 -375t-327 -129q-154 0 -281 78q-43 25 -18 72l57 122q20 45 72 23q80 -37 153 -37q100 0 161.5 62.5t61.5 177.5q-127 -88 -272 -88q-217 0 -371.5 155.5t-154.5 374.5t154.5 372.5t371.5 153.5q166 0 301 -100v37q0 47 47 47 h127zM608.5 252q106.5 0 182 77t75.5 185q0 106 -75.5 182t-182 76t-182.5 -75.5t-76 -182.5q0 -109 76 -185.5t182.5 -76.5z" glyph-name="g" horiz-adv-x="1232" unicode="g"/><glyph d="M553 1040q186 0 317 -131t131 -317v-539q0 -53 -53 -53h-162q-53 0 -53 53v539q0 74 -53 127t-127 53t-127 -53t-53 -127v-539q0 -53 -54 -53h-163q-53 0 -54 53v1327q0 53 54 54h163q53 0 54 -54v-387q88 47 180 47z" glyph-name="h" horiz-adv-x="1058" unicode="h"/><glyph d="M403 1253q0 -70 -44 -113.5t-113 -43.5q-63 0 -109.5 44t-46.5 113q0 59 47 106.5t109 47.5q68 0 112.5 -46.5t44.5 -107.5zM326 0h-158q-53 0 -53 53v918q0 53 53 53h158q53 0 53 -53v-918q0 -53 -53 -53z" glyph-name="i" horiz-adv-x="481" unicode="i"/><glyph d="M510 1253q0 -66 -46 -110.5t-112 -44.5q-63 0 -109 45t-46 108.5t46 109.5t109 46q66 0 112 -46.5t46 -107.5zM487 72q0 -332 -274 -473q-51 -29 -78 18l-84 137q-25 43 23 72q145 94 145 246v899q0 53 53 53h162q53 0 53 -53v-899z" glyph-name="j" horiz-adv-x="598" unicode="j"/><glyph d="M973 63q18 -27 9 -45t-40 -18h-205q-39 0 -63 33l-256 356l-47 -57v-279q0 -53 -54 -53h-161q-53 0 -54 53v1327q0 53 54 54h161q53 0 54 -54v-682l258 297q27 29 63 29h197q33 0 43 -19.5t-12 -43.5l-334 -381z" glyph-name="k" horiz-adv-x="1081" unicode="k"/><glyph d="M494 268q43 0 43 -53v-162q0 -53 -54 -53h-18q-188 0 -275.5 91t-87.5 292v997q0 53 54 54h161q53 0 54 -54v-1001q0 -51 27.5 -81t72.5 -30h23z" glyph-name="l" horiz-adv-x="591" unicode="l"/><glyph d="M1167 1040q182 0 312.5 -130t130.5 -312v-545q0 -53 -54 -53h-161q-55 0 -56 53v545q0 72 -51 124t-122.5 52t-124 -52t-52.5 -124v-545q0 -53 -53 -53h-162q-53 0 -53 53v545q0 72 -52.5 124t-124 52t-123.5 -52t-52 -124v-545q0 -53 -54 -53h-159q-53 0 -54 53v918 q0 53 54 53h112q47 0 47 -47v-23q106 86 246 86q168 0 293 -131q127 131 313 131z" glyph-name="m" horiz-adv-x="1691" unicode="m"/><glyph d="M563 1040q178 0 302 -129t124 -313v-545q0 -53 -53 -53h-162q-53 0 -53 53v545q0 72 -51.5 124t-124.5 52q-72 0 -124 -52t-52 -124v-545q0 -53 -54 -53h-159q-53 0 -54 53v918q0 53 54 53h112q45 0 45 -47v-19q113 82 250 82z" glyph-name="n" horiz-adv-x="1071" unicode="n"/><glyph d="M600 1040q219 0 373.5 -155.5t154.5 -372.5t-154.5 -372.5t-373.5 -155.5t-373.5 155.5t-154.5 372.5t154.5 372.5t373.5 155.5zM600.5 770q-108.5 0 -184.5 -76t-76 -182t76 -183t184 -77q106 0 182 75.5t76 184.5q0 106 -74.5 182t-183 76z" glyph-name="o" unicode="o"/><glyph d="M629 1040q219 0 373.5 -155.5t154.5 -372.5t-154.5 -372.5t-373.5 -155.5q-143 0 -260 79v-419q0 -53 -54 -54h-159q-53 0 -54 54v1327q0 53 54 53h123q47 0 47 -47v-37q133 100 303 100zM624.5 254q104.5 0 181.5 76t77 182t-77 182t-181.5 76t-181 -76t-76.5 -182 t76.5 -182t181 -76z" glyph-name="p" horiz-adv-x="1228" unicode="p"/><glyph d="M1073 1024q53 0 53 -53v-1327q0 -53 -53 -54h-160q-55 0 -55 54v419q-113 -80 -258 -79q-219 0 -373.5 154.5t-154.5 373.5t154.5 373.5t373.5 154.5q166 0 303 -100v37q0 47 47 47h123zM604 254q104 0 181 76t77 182t-76.5 182t-181.5 76q-106 0 -182 -76t-76 -182 t76 -182t182 -76z" glyph-name="q" horiz-adv-x="1228" unicode="q"/><glyph d="M616 1024q55 0 56 -53v-148q0 -53 -56 -53h-71q-74 0 -125 -47t-51 -121v-549q0 -53 -54 -53h-159q-53 0 -54 53v918q0 53 54 53h112q45 0 45 -47v-19q82 66 213 66h90z" glyph-name="r" horiz-adv-x="720" unicode="r"/><glyph d="M711 899l-58 -98q-25 -47 -73 -21q-90 41 -138 41q-43 0 -69.5 -18.5t-26.5 -48.5q0 -18 12 -33q20 -25 144 -72q133 -47 216 -132t83 -206q0 -135 -104.5 -231t-270.5 -96q-154 0 -309 88q-43 25 -21 71l58 119q20 43 71 25q115 -55 199 -56q49 0 75.5 22.5t26.5 55.5 q0 35 -37.5 61.5t-138.5 67.5q-49 20 -80.5 37t-82 53.5t-77 91t-26.5 123.5q0 133 99.5 215t248.5 82q127 0 258 -67q48 -25 21 -74z" glyph-name="s" horiz-adv-x="858" unicode="s"/><glyph d="M623 268q53 0 53 -53v-162q0 -53 -53 -53h-134q-182 0 -284.5 102.5t-102.5 296.5v897q0 53 54 54h161q53 0 54 -54v-272h262q51 0 51 -51v-131q0 -51 -51 -51h-262v-394q0 -55 35.5 -92t91.5 -37h125z" glyph-name="t" horiz-adv-x="735" unicode="t"/><glyph d="M547 -16q-184 0 -314.5 130t-130.5 314v543q0 53 54 53h159q53 0 54 -53v-543q0 -72 52 -125t126 -53q72 0 124 53t52 125v543q0 53 53 53h160q55 0 55 -53v-543q0 -184 -131 -314t-313 -130z" glyph-name="u" horiz-adv-x="1071" unicode="u"/><glyph d="M608 0h-90q-47 0 -61 41l-379 924q-10 27 1 43t40 16h172q43 0 57 -39l215 -536l215 536q14 39 58 39h172q29 0 40 -16.5t1 -42.5l-381 -924q-15 -41 -60 -41z" glyph-name="v" horiz-adv-x="1120" unicode="v"/><glyph d="M758 956q12 33 49 33l84 -2q37 0 49 -33l203 -516l205 545q14 41 57 41h176q61 0 39 -59l-358 -924q-16 -41 -60 -41h-94q-43 0 -57 41l-201 526l-203 -526q-16 -41 -59 -41h-92q-43 0 -60 41l-362 924q-20 59 41 59h178q43 0 57 -41l205 -545z" glyph-name="w" horiz-adv-x="1689" unicode="w"/><glyph d="M1059 61q18 -27 9 -44t-40 -17h-194q-39 0 -64 33l-184 243l-180 -243q-23 -33 -64 -33h-195q-31 0 -40 17.5t10 43.5l327 453l-323 449q-18 27 -9 44t40 17h194q39 0 64 -33l176 -250l180 250q25 33 61 33h195q33 0 42 -17.5t-9 -43.5l-324 -449z" glyph-name="x" horiz-adv-x="1165" unicode="x"/><glyph d="M1020 1024q63 0 43 -59l-401 -969q-133 -328 -439 -412q-49 -12 -65 35l-47 139q-20 49 32 66q203 70 281 291l-348 850q-23 59 41 59h182q47 0 61 -39l207 -510l207 510q18 39 60 39h186z" glyph-name="y" horiz-adv-x="1167" unicode="y"/><glyph d="M864 266q53 0 54 -53v-160q0 -53 -54 -53h-733q-53 0 -53 53v174q0 39 28 66l469 491h-452q-51 0 -51 52v137q0 51 51 51h721q53 0 53 -53v-150q0 -41 -27 -65l-450 -490h444z" glyph-name="z" horiz-adv-x="978" unicode="z"/><glyph d="M743 -33q47 0 48 -55v-133q0 -53 -54 -53h-41q-154 0 -261 108.5t-107 261.5v324q0 55 -39 94t-94 39h-60q-53 0 -53 53v135q0 55 53 56h60q53 0 93 38.5t40 92.5v325q0 154 107.5 263.5t260.5 109.5h41q53 0 54 -53v-133q0 -55 -54 -56h-41q-53 0 -91 -38.5t-38 -92.5 v-325q0 -141 -102 -254q102 -109 102 -254v-324q0 -51 38 -90t91 -39h47z" glyph-name="braceleft" horiz-adv-x="851" unicode="{"/><glyph d="M113 -350v1812q0 53 53 54h104q55 0 56 -54v-1812q0 -53 -56 -53h-104q-53 0 -53 53z" glyph-name="bar" horiz-adv-x="436" unicode="|"/><glyph d="M61 -88q0 55 54 55h39q53 0 92 38t39 91v324q0 145 102 254q-102 113 -102 254v325q0 53 -39 92t-92 39h-39q-53 0 -54 56v133q0 53 54 53h39q154 0 262 -109.5t108 -263.5v-325q0 -53 39 -92t94 -39h60q53 0 53 -56v-135q0 -53 -53 -53h-60q-55 0 -94 -38t-39 -95v-324 q0 -154 -107.5 -262t-262.5 -108h-39q-53 0 -54 53v133z" glyph-name="braceright" horiz-adv-x="851" unicode="}"/><glyph d="M272 197l-125 49q-47 18 -34 67q76 287 305 377q78 31 151.5 34t145 -22.5t114.5 -47t109 -62.5q41 -25 66.5 -39t63.5 -30.5t66.5 -22.5t61.5 -5t61 15q100 47 177 229q18 47 67 29l146 -57q47 -20 32 -68q-27 -78 -66.5 -149.5t-118.5 -149.5t-177 -111 q-55 -18 -112.5 -20t-102.5 7t-97.5 30.5t-85 40t-75.5 45.5q-51 33 -89 53.5t-88.5 38.5t-96.5 16t-87 -26q-82 -49 -141 -193q-23 -48 -70 -28z" glyph-name="asciitilde" horiz-adv-x="1785" unicode="~"/><glyph d="M235.5 1516q59.5 0 101.5 -42t42 -102q0 -61 -42 -102t-101.5 -41t-101.5 41t-42 102q0 57 42 100.5t101.5 43.5zM102 1106q0 53 56 53h157q53 0 54 -53v-1053q0 -53 -54 -53h-157q-55 0 -56 53v1053z" glyph-name="exclamdown" horiz-adv-x="471" unicode="¡"/><glyph d="M961 205q37 -43 -5 -74q-117 -106 -249 -137v-176q0 -55 -54 -56h-100q-53 0 -53 56v176q-180 39 -299 184.5t-119 333.5t118.5 333.5t299.5 184.5v160q0 53 53 53h100q53 0 54 -53v-160q133 -27 249 -127q39 -37 5 -78l-97 -108q-35 -37 -78 -6q-47 33 -79 45v-482 q37 12 84 48q41 37 73 -5zM350 514q0 -76 41 -139.5t109 -93.5v469q-68 -33 -109 -96.5t-41 -139.5z" glyph-name="cent" horiz-adv-x="1064" unicode="¢"/><glyph d="M1122 547q55 0 56 -53v-107q0 -174 -116 -280.5t-290 -106.5h-622q-53 0 -54 53v148q0 55 54 55h231v227q0 84 -51 170h-185q-53 0 -53 54v106q0 53 53 53h39q-66 113 -65 236q0 184 121.5 304t310.5 120q287 0 448 -277q29 -41 -18 -71l-111 -70q-43 -25 -73 18 q-104 147 -240 146q-78 0 -128 -50.5t-50 -125.5q0 -94 98 -230h397q53 0 54 -53v-106q0 -53 -54 -54h-268q33 -78 33 -166v-231h133q68 0 109 38t41 93v107q0 53 53 53h147z" glyph-name="sterling" horiz-adv-x="1247" unicode="£"/><glyph d="M1036 274l68 -67q39 -41 0 -76l-76 -74q-37 -37 -76 0l-63 64q-121 -80 -271 -80q-147 0 -272 82l-65 -66q-37 -39 -76 0l-76 74q-37 33 0 76l70 69q-72 113 -72 256q0 139 66 248l-64 66q-37 41 0 74l76 73q39 39 76 0l57 -57q127 88 280 88q150 0 279 -86l55 55 q39 39 76 0l76 -73q39 -35 0 -74l-62 -66q68 -113 68 -248q0 -139 -74 -258zM616 262q109 0 189 80t80 190q0 109 -80 189t-189 80q-113 0 -189.5 -78t-76.5 -190.5t76.5 -191.5t189.5 -79z" glyph-name="currency" horiz-adv-x="1222" unicode="¤"/><glyph d="M1229 1516q31 0 41 -17.5t-4 -44.5l-312 -534h181q53 0 53 -54v-133q0 -53 -53 -53h-316v-92h316q53 0 53 -53v-134q0 -53 -53 -53h-316v-295q0 -53 -53 -53h-160q-53 0 -53 53v295h-313q-53 0 -54 53v134q0 53 54 53h313v92h-313q-53 0 -54 53v133q0 53 54 54h178 l-309 534q-16 27 -6 44.5t40 17.5h211q41 0 64 -35l268 -477l268 477q23 35 62 35h213z" glyph-name="yen" horiz-adv-x="1361" unicode="¥"/><glyph d="M801 244q129 -113 129 -285q0 -174 -115 -283.5t-293 -109.5q-207 0 -401 151q-39 33 -15 76l78 135q29 47 76 15q129 -96 238 -97q72 0 113.5 39t41.5 101q0 63 -52 112t-127 85t-148.5 80t-126 122t-52.5 186q0 201 168 318q-94 96 -94 244q0 170 127 286.5t297 114.5 q143 -2 258 -92q35 -29 10 -74l-69 -117q-27 -43 -76 -14q-66 37 -123 37q-66 0 -115 -40t-49 -104q0 -55 51.5 -97t125 -74.5t147.5 -72.5t125 -114t51 -178q0 -198 -180 -350zM600 397q55 23 91 75t36 106q0 59 -45 102t-111 43q-68 0 -112.5 -42t-44.5 -103 q0 -120 186 -181z" glyph-name="section" horiz-adv-x="1052" unicode="§"/><glyph d="M313 1284q0 -47 -33.5 -82t-82.5 -35q-47 0 -81 35t-34 82t34 82t81 35q49 0 82.5 -35t33.5 -82zM621 1284q0 -47 -34 -82t-83 -35q-47 0 -81 35t-34 82t34 82t81 35q49 0 83 -35t34 -82z" glyph-name="dieresis" horiz-adv-x="702" unicode="¨"/><glyph d="M854 -12q-322 0 -547 225t-225 547q0 317 225 542.5t547 225.5q317 0 542.5 -225.5t225.5 -542.5q0 -319 -225.5 -545.5t-542.5 -226.5zM854 205q231 0 391 160.5t160 394t-160 392.5t-391 159t-394 -161t-163 -390.5t163 -392t394 -162.5zM860 373q-162 0 -275.5 114.5 t-113.5 278.5t113.5 278.5t275.5 114.5q147 0 264 -106q27 -25 0 -56l-82 -92q-25 -27 -57 -2q-59 43 -123 43q-74 0 -126 -53t-52 -125t52 -125t126 -53q70 0 127 49q33 27 58 -4l79 -94q27 -29 -2 -58q-125 -110 -264 -110z" glyph-name="copyright" horiz-adv-x="1703" unicode="©"/><glyph d="M647 205l-92 -90q-37 -37 -76 2l-360 362q-37 39 0 76l358 354q37 41 76 2l92 -84q39 -39 2 -75l-235 -236l237 -235q35 -39 -2 -76zM1065 205l-92 -90q-37 -37 -76 2l-360 362q-37 39 0 76l358 354q37 41 78 2l90 -84q39 -39 2 -75l-236 -236l238 -235q35 -39 -2 -76z " glyph-name="guillemotleft" horiz-adv-x="1175" unicode="«"/><glyph d="M905 324v303h-790q-53 0 -54 55v152q0 53 54 53h995q53 0 53 -53v-510q0 -53 -53 -54h-152q-53 1 -53 54z" glyph-name="logicalnot" horiz-adv-x="1265" unicode="¬"/><glyph d="M854 1528q317 0 543.5 -225.5t226.5 -545t-226.5 -544.5t-543.5 -225q-322 0 -547 225t-225 544.5t225 545t547 225.5zM854 188q231 0 400 169t169 400.5t-168 400.5t-401 169q-236 0 -403.5 -167t-167.5 -402.5t170 -402.5t401 -167zM958 717l168 -285q10 -18 3 -30.5 t-29 -12.5h-103q-27 0 -43 25l-157 278h-31v-262q0 -41 -41 -41h-80q-41 0 -41 41v703q0 39 41 38h205q100 0 170 -70.5t70 -168.5q-1 -145 -132 -215zM766 1012v-162h84q35 0 58.5 23.5t23.5 58.5q0 33 -23.5 56.5t-58.5 23.5h-84z" glyph-name="registered" horiz-adv-x="1705" unicode="®"/><glyph d="M582 1167h-453q-47 0 -47 47v117q0 47 47 47h453q45 0 45 -47v-117q0 -47 -45 -47z" glyph-name="macron" horiz-adv-x="708" unicode="¯"/><glyph d="M375 1516q121 0 207 -85t86 -206q0 -123 -86 -208t-207 -85t-207 85t-86 208q0 121 86 206t207 85zM375 1333q-43 0 -76 -32.5t-33 -75.5q0 -45 32 -78t77 -33q43 0 75.5 33t32.5 78q0 41 -32.5 74.5t-75.5 33.5z" glyph-name="degree" horiz-adv-x="749" unicode="°"/><glyph d="M1085 903q53 0 54 -53v-129q0 -53 -54 -53h-362v-277q0 -53 -53 -53h-129q-53 0 -54 53v277h-362q-53 0 -53 53v129q0 53 53 53h362v254q0 53 54 53h129q53 0 53 -53v-254h362zM1085 0h-960q-53 0 -53 53v129q0 53 53 54h960q53 0 54 -54v-129q-1 -53 -54 -53z" glyph-name="plusminus" unicode="±"/><glyph d="M166 592q-41 0 -41 39l-2 123q0 29 18 49l285 323q41 45 39 101.5t-47 89.5q-35 27 -82 22.5t-84 -39.5q-31 -25 -57 -4l-62 52q-33 27 -8 57q82 94 203 106.5t211 -65.5q96 -82 103 -210t-79 -224l-201 -230h250q39 0 39 -41v-110q0 -39 -39 -39h-446z" glyph-name="uni00B2" horiz-adv-x="733" unicode="²"/><glyph d="M582 1114q94 -90 94 -213t-85 -211t-212 -88q-102 0 -184 61.5t-115 161.5q-10 35 26 49l95 35q33 14 53 -22q45 -92 125 -92q47 0 80 30.5t33 79.5t-35 81t-84 32h-15q-35 0 -34 37v102q0 37 34 37h17q31 0 51 19.5t20 50.5q0 29 -20 49t-51 20q-27 0 -45 -18 q-31 -20 -51 -6l-78 49q-37 23 -13 53q76 104 201 105q104 0 174 -74t70 -176q0 -84 -51 -152z" glyph-name="uni00B3" horiz-adv-x="776" unicode="³"/><glyph d="M154 1206l-48 94q-25 47 23 72l313 168q47 25 74 -22l51 -93q29 -47 -20 -73l-320 -170q-48 -27 -73 24z" glyph-name="acute" horiz-adv-x="552" unicode="´"/><glyph d="M952 1516q55 0 56 -54v-1652q0 -53 -56 -54h-104q-53 0 -53 54v1519h-125v-1519q0 -53 -54 -54h-108q-53 0 -53 54v800q-168 23 -281 151t-113 298q0 186 130.5 321.5t308.5 135.5h452z" glyph-name="paragraph" horiz-adv-x="1118" unicode="¶"/><glyph d="M315 -506q-80 0 -145.5 49t-83.5 131q-4 20 8 33.5t35 13.5h80q25 0 45 -30q23 -35 61 -35q29 0 50.5 22.5t21.5 51t-20.5 50t-51.5 21.5h-39q-45 0 -45 43v181h166v-74q68 -27 111 -88.5t43 -134.5q0 -96 -70 -165t-166 -69z" glyph-name="cedilla" horiz-adv-x="632" unicode="¸"/><glyph d="M248 602q-41 0 -41 39v711h-117q-39 0 -39 39v86q0 39 39 39h266q39 0 39 -39v-836q0 -39 -39 -39h-108z" glyph-name="uni00B9" horiz-adv-x="507" unicode="¹"/><glyph d="M109 281l237 235l-233 236q-39 39 0 75l92 84q37 39 76 0l358 -356q37 -35 0 -76l-358 -362q-41 -39 -78 -2l-92 90q-37 37 -2 76zM526 281l238 235l-234 236q-39 39 0 75l93 84q37 39 75 0l359 -356q37 -35 0 -76l-359 -362q-41 -39 -77 -2l-93 90q-37 37 -2 76z" glyph-name="guillemotright" horiz-adv-x="1175" unicode="»"/><glyph d="M307 602q-41 0 -41 39v711h-114q-39 0 -39 39v86q0 39 39 39h264q41 0 41 -39v-836q0 -39 -41 -39h-109zM301 0q-33 0 -43 18.5t6 47.5l871 1415q20 35 63 35h133q31 0 41 -18.5t-6 -47.5l-870 -1415q-20 -35 -64 -35h-131zM1305 0q-39 0 -39 39v127h-330q-41 0 -41 39 v106q0 29 18 49l375 529q18 25 49 24h76q39 0 39 -39v-534h55q39 0 39 -41v-94q0 -39 -41 -39h-53v-127q0 -39 -39 -39h-108zM1096 340h168v238z" glyph-name="onequarter" horiz-adv-x="1658" unicode="¼"/><glyph d="M307 602q-41 0 -41 39v711h-114q-39 0 -39 39v86q0 39 39 39h264q41 0 41 -39v-836q0 -39 -41 -39h-109zM301 0q-33 0 -43 18.5t6 47.5l871 1415q20 35 63 35h133q31 0 41 -18.5t-6 -47.5l-870 -1415q-20 -35 -64 -35h-131zM1169 0q-41 0 -41 39v123q0 31 17 49l285 324 q41 45 37.5 100t-48.5 88q-80 59 -164 -14q-29 -29 -55 -4l-63 51q-33 27 -9 57q82 94 202 106.5t212 -65.5q96 -82 102.5 -209t-77.5 -225l-201 -230h250q39 0 39 -40v-111q0 -39 -39 -39h-447z" glyph-name="onehalf" horiz-adv-x="1787" unicode="½"/><glyph d="M582 1114q94 -90 94 -213t-85 -211t-212 -88q-102 0 -184 61.5t-115 161.5q-10 35 26 49l95 35q33 14 53 -22q45 -92 125 -92q47 0 80 30.5t33 79.5t-35 81t-84 32h-15q-35 0 -34 37v102q0 37 34 37h17q31 0 51 19.5t20 50.5q0 29 -20 49t-51 20q-27 0 -45 -18 q-31 -20 -51 -6l-78 49q-37 23 -13 53q76 104 201 105q104 0 174 -74t70 -176q0 -84 -51 -152zM446 0q-33 0 -42 18.5t8 47.5l870 1415q20 35 64 35h131q33 0 42 -18.5t-8 -47.5l-868 -1415q-20 -35 -65 -35h-132zM1452 0q-41 0 -41 39v127h-330q-39 0 -39 39v106 q0 27 17 49l375 529q20 25 49 24h76q41 0 40 -39v-534h56q37 0 37 -41v-94q0 -39 -39 -39h-54v-127q0 -39 -40 -39h-107zM1241 340h170v238z" glyph-name="threequarters" horiz-adv-x="1792" unicode="¾"/><glyph d="M389 1370q0 61 43 103.5t102.5 42.5t100.5 -42t41 -104q0 -59 -42 -101t-99 -42q-59 0 -102.5 42t-43.5 101zM82 444q0 156 94 277t236 162v223q0 53 53 53h162q53 0 53 -53v-418q0 -53 -53 -53h-82q-78 0 -135.5 -57.5t-57.5 -137.5q0 -88 66.5 -141t149.5 -45t130 76 q27 35 62 22l158 -67q53 -23 28 -72q-61 -109 -167.5 -170t-233.5 -61q-190 0 -326.5 134.5t-136.5 327.5z" glyph-name="questiondown" horiz-adv-x="1030" unicode="¿"/><glyph d="M827 1634l-319 170q-45 25 -21 72l52 94q27 47 73 23l314 -170q45 -25 22 -72l-49 -94q-23 -50 -72 -23zM1475 59q23 -59 -41 -59l-185 2q-45 0 -59 39l-92 231h-625l-94 -231q-14 -41 -60 -41h-184q-61 0 -41 59l563 1418q14 39 60 39h127q45 0 59 -39zM580 541h411 l-205 518z" glyph-name="Agrave" horiz-adv-x="1560" unicode="À"/><glyph d="M655 1657l-49 94q-20 49 23 72l313 170q47 25 74 -23l53 -94q25 -47 -22 -72l-320 -170q-49 -26 -72 23zM1475 59q23 -59 -41 -59l-185 2q-45 0 -59 39l-92 231h-625l-94 -231q-14 -41 -60 -41h-184q-61 0 -41 59l563 1418q14 39 60 39h127q45 0 59 -39zM580 541h411 l-205 518z" glyph-name="Aacute" horiz-adv-x="1560" unicode="Á"/><glyph d="M1061 1620h-158q-37 0 -57 27l-72 86l-76 -88q-23 -25 -55 -25h-147q-29 0 -37 17.5t10 39.5l199 224q20 27 55 26h111q35 0 55 -26l198 -224q18 -23 10.5 -40t-36.5 -17zM1475 59q23 -59 -41 -59l-185 2q-45 0 -59 39l-92 231h-625l-94 -231q-14 -41 -60 -41h-184 q-61 0 -41 59l563 1418q14 39 60 39h127q45 0 59 -39zM580 541h411l-205 518z" glyph-name="Acircumflex" horiz-adv-x="1560" unicode="Â"/><glyph d="M535 1645l-93 61q-39 27 -10 66q86 109 215 108q47 0 109.5 -26.5t95.5 -26.5q53 0 90 41q33 33 64 12l100 -61q41 -29 12 -68q-100 -121 -235 -121q-63 0 -124 26.5t-83 26.5q-41 0 -78 -30q-30 -31 -63 -8zM1475 59q23 -59 -41 -59l-185 2q-45 0 -59 39l-92 231h-625 l-94 -231q-14 -41 -60 -41h-184q-61 0 -41 59l563 1418q14 39 60 39h127q45 0 59 -39zM580 541h411l-205 518z" glyph-name="Atilde" horiz-adv-x="1560" unicode="Ã"/><glyph d="M741 1735q0 -47 -33.5 -81t-83 -34t-83 34t-33.5 81q0 49 33.5 83.5t83 34.5t83 -34.5t33.5 -83.5zM1047 1735q0 -47 -34 -81t-81 -34q-49 0 -83 34t-34 81q0 49 34 83.5t83 34.5q47 0 81 -34.5t34 -83.5zM1475 59q23 -59 -41 -59l-185 2q-45 0 -59 39l-92 231h-625 l-94 -231q-14 -41 -60 -41h-184q-61 0 -41 59l563 1418q14 39 60 39h127q45 0 59 -39zM580 541h411l-205 518z" glyph-name="Adieresis" horiz-adv-x="1560" unicode="Ä"/><glyph d="M780 2062q92 0 156.5 -64.5t64.5 -156.5t-64.5 -156.5t-156.5 -64.5q-90 0 -155.5 64.5t-65.5 156.5t65.5 156.5t155.5 64.5zM780.5 1919q-32.5 0 -55.5 -22.5t-23 -55.5t23 -55.5t55.5 -22.5t55 22.5t22.5 55.5t-22.5 55.5t-55 22.5zM1475 59q23 -59 -41 -59l-185 2 q-45 0 -59 39l-92 231h-625l-94 -231q-14 -41 -60 -41h-184q-61 0 -41 59l563 1418q14 39 60 39h127q45 0 59 -39zM580 541h411l-205 518z" glyph-name="Aring" horiz-adv-x="1560" unicode="Å"/><glyph d="M1638 268q53 0 54 -53v-162q0 -53 -54 -53h-694q-53 0 -53 53v221h-395l-105 -235q-18 -39 -59 -39h-189q-29 0 -39 16.5t0 44.5l627 1416q14 39 60 39h847q53 0 54 -54v-162q0 -53 -54 -53h-479v-370h445q51 0 51 -54v-131q0 -51 -51 -51h-445v-373h479zM891 543v676 l-301 -676h301z" glyph-name="AE" horiz-adv-x="1781" unicode="Æ"/><glyph d="M1372 262q31 -41 -8 -74q-207 -184 -477 -198v-39q68 -27 110.5 -88.5t42.5 -134.5q0 -96 -68.5 -165t-164.5 -69q-80 0 -146.5 50t-85.5 130q-4 20 8.5 33.5t34.5 13.5h80q25 0 45 -30q23 -35 62 -35q29 0 50.5 22.5t21.5 51t-20.5 50t-51.5 21.5h-37q-45 0 -45 43v154 q-279 43 -465 259t-186 501q0 317 225 543.5t541 226.5q293 0 526 -217q37 -33 6 -76l-92 -113q-35 -41 -76 -6q-178 143 -362 144q-207 0 -354.5 -147.5t-147.5 -354.5t147.5 -354.5t354.5 -147.5q197 0 362 137q41 39 74 -6z" glyph-name="Ccedilla" horiz-adv-x="1492" unicode="Ç"/><glyph d="M582 1634l-320 170q-47 25 -22 72l53 94q27 47 74 23l313 -170q43 -23 22 -72l-49 -94q-26 -50 -71 -23zM897 268q53 0 53 -53v-162q0 -53 -53 -53h-731q-53 0 -53 53v1409q0 53 53 54h731q53 0 53 -54v-162q0 -53 -53 -53h-516v-370h479q53 0 53 -52v-133q0 -51 -53 -51 h-479v-373h516z" glyph-name="Egrave" horiz-adv-x="1042" unicode="È"/><glyph d="M410 1657l-50 94q-25 47 23 72l313 170q47 25 74 -23l51 -94q27 -45 -20 -72l-320 -170q-48 -26 -71 23zM897 268q53 0 53 -53v-162q0 -53 -53 -53h-731q-53 0 -53 53v1409q0 53 53 54h731q53 0 53 -54v-162q0 -53 -53 -53h-516v-370h479q53 0 53 -52v-133q0 -51 -53 -51 h-479v-373h516z" glyph-name="Eacute" horiz-adv-x="1042" unicode="É"/><glyph d="M815 1620h-158q-35 0 -59 27l-70 86l-75 -88q-23 -25 -58 -25h-145q-29 0 -38 17.5t11 39.5l199 224q20 27 55 26h111q35 0 55 -26l197 -224q20 -23 12 -40t-37 -17zM897 268q53 0 53 -53v-162q0 -53 -53 -53h-731q-53 0 -53 53v1409q0 53 53 54h731q53 0 53 -54v-162 q0 -53 -53 -53h-516v-370h479q53 0 53 -52v-133q0 -51 -53 -51h-479v-373h516z" glyph-name="Ecircumflex" horiz-adv-x="1042" unicode="Ê"/><glyph d="M496 1735q0 -47 -35 -81t-84 -34q-47 0 -81 34t-34 81q0 49 34 83.5t81 34.5q49 0 84 -34.5t35 -83.5zM801 1735q0 -47 -34 -81t-83 -34q-47 0 -81 34t-34 81q0 49 34 83.5t81 34.5q49 0 83 -34.5t34 -83.5zM897 268q53 0 53 -53v-162q0 -53 -53 -53h-731q-53 0 -53 53 v1409q0 53 53 54h731q53 0 53 -54v-162q0 -53 -53 -53h-516v-370h479q53 0 53 -52v-133q0 -51 -53 -51h-479v-373h516z" glyph-name="Edieresis" horiz-adv-x="1042" unicode="Ë"/><glyph d="M291 1628l-320 170q-49 27 -22 74l53 92q27 47 74 23l313 -168q45 -25 23 -72l-50 -94q-24 -52 -71 -25zM113 53v1409q0 53 53 54h158q53 0 53 -54v-1409q0 -53 -53 -53h-158q-53 0 -53 53z" glyph-name="Igrave" horiz-adv-x="479" unicode="Ì"/><glyph d="M119 1653l-49 94q-25 47 22 72l314 168q47 25 73 -23l51 -92q29 -47 -20 -74l-320 -170q-48 -26 -71 25zM113 53v1409q0 53 53 54h158q53 0 53 -54v-1409q0 -53 -53 -53h-158q-53 0 -53 53z" glyph-name="Iacute" horiz-adv-x="479" unicode="Í"/><glyph d="M524 1614h-157q-35 0 -60 26l-69 89l-76 -89q-20 -27 -56 -26h-147q-29 0 -38 17.5t11 39.5l199 225q18 25 55 25h111q37 0 55 -25l197 -225q20 -23 12 -40t-37 -17zM113 53v1409q0 53 53 54h158q53 0 53 -54v-1409q0 -53 -53 -53h-158q-53 0 -53 53z" glyph-name="Icircumflex" horiz-adv-x="479" unicode="Î"/><glyph d="M205 1730.5q0 -47.5 -35 -82t-82 -34.5q-49 0 -83 34.5t-34 82t34 82t83 34.5q47 0 82 -34.5t35 -82zM510 1730.5q0 -47.5 -34 -82t-83 -34.5q-47 0 -80.5 34.5t-33.5 82t33.5 82t80.5 34.5q49 0 83 -34.5t34 -82zM113 53v1409q0 53 53 54h158q53 0 53 -54v-1409 q0 -53 -53 -53h-158q-53 0 -53 53z" glyph-name="Idieresis" horiz-adv-x="479" unicode="Ï"/><glyph d="M653 1516q313 0 535.5 -222.5t222.5 -536t-222 -535.5t-536 -222h-405q-53 0 -53 53v598h-31q-51 0 -51 51v138q0 51 51 51h31v571q0 53 53 54h405zM653 268q201 0 344.5 143.5t143.5 346.5t-143.5 346t-344.5 143h-190v-356h33q53 0 53 -51v-138q0 -51 -53 -51h-33v-383 h190z" glyph-name="Eth" horiz-adv-x="1480" unicode="Ð"/><glyph d="M428 1645l-92 61q-39 27 -10 66q86 109 215 108q47 0 109.5 -26.5t94.5 -26.5q53 0 91 41q33 33 63 12l100 -61q41 -29 13 -68q-100 -121 -236 -121q-63 0 -123.5 26.5t-83.5 26.5q-41 0 -77 -30q-31 -31 -64 -8zM1024 1462q0 53 53 54h160q55 0 55 -54v-1409 q0 -53 -55 -53h-115q-43 0 -61 33l-680 979v-959q0 -53 -53 -53h-162q-53 0 -53 53v1409q0 53 53 54h110q41 0 64 -33l684 -983v962z" glyph-name="Ntilde" horiz-adv-x="1392" unicode="Ñ"/><glyph d="M895 1634l-320 170q-45 27 -20 72l53 94q25 49 74 23l313 -170q43 -25 21 -72l-47 -94q-27 -50 -74 -23zM852 1528q319 0 544.5 -225.5t225.5 -545t-225.5 -544.5t-544.5 -225q-317 0 -543.5 225t-226.5 544.5t226.5 545t543.5 225.5zM850 1262q-207 0 -353.5 -147.5 t-146.5 -356.5q0 -207 146.5 -354.5t353.5 -147.5t355.5 148.5t148.5 353.5t-148.5 354.5t-355.5 149.5z" glyph-name="Ograve" horiz-adv-x="1703" unicode="Ò"/><glyph d="M723 1657l-47 94q-23 47 20 72l316 170q47 25 71 -23l54 -94q27 -45 -21 -72l-319 -170q-47 -26 -74 23zM852 1528q319 0 544.5 -225.5t225.5 -545t-225.5 -544.5t-544.5 -225q-317 0 -543.5 225t-226.5 544.5t226.5 545t543.5 225.5zM850 1262q-207 0 -353.5 -147.5 t-146.5 -356.5q0 -207 146.5 -354.5t353.5 -147.5t355.5 148.5t148.5 353.5t-148.5 354.5t-355.5 149.5z" glyph-name="Oacute" horiz-adv-x="1703" unicode="Ó"/><glyph d="M1128 1620h-157q-33 0 -58 27l-71 86l-74 -88q-25 -25 -57 -25h-146q-29 0 -38 17.5t12 39.5l198 224q20 27 54 26h110q35 0 55 -26l199 -224q20 -23 11 -40t-38 -17zM852 1528q319 0 544.5 -225.5t225.5 -545t-225.5 -544.5t-544.5 -225q-317 0 -543.5 225t-226.5 544.5 t226.5 545t543.5 225.5zM850 1262q-207 0 -353.5 -147.5t-146.5 -356.5q0 -207 146.5 -354.5t353.5 -147.5t355.5 148.5t148.5 353.5t-148.5 354.5t-355.5 149.5z" glyph-name="Ocircumflex" horiz-adv-x="1703" unicode="Ô"/><glyph d="M604 1645l-92 61q-41 29 -10 66q86 109 213 108q49 0 110.5 -26.5t94.5 -26.5q51 0 92 41q31 31 63 12l101 -61q41 -29 10 -68q-98 -121 -236 -121q-63 0 -122.5 26.5t-82.5 26.5q-41 0 -77 -30q-33 -31 -64 -8zM852 1528q319 0 544.5 -225.5t225.5 -545t-225.5 -544.5 t-544.5 -225q-317 0 -543.5 225t-226.5 544.5t226.5 545t543.5 225.5zM850 1262q-207 0 -353.5 -147.5t-146.5 -356.5q0 -207 146.5 -354.5t353.5 -147.5t355.5 148.5t148.5 353.5t-148.5 354.5t-355.5 149.5z" glyph-name="Otilde" horiz-adv-x="1703" unicode="Õ"/><glyph d="M809 1735q0 -47 -34 -81t-83 -34q-47 0 -80.5 34t-33.5 81q0 49 33.5 83.5t80.5 34.5q49 0 83 -34.5t34 -83.5zM1116 1735q0 -47 -33.5 -81t-83.5 -34q-47 0 -80.5 34t-33.5 81q0 49 33.5 83.5t80.5 34.5q49 0 83 -34.5t34 -83.5zM852 1528q319 0 544.5 -225.5 t225.5 -545t-225.5 -544.5t-544.5 -225q-317 0 -543.5 225t-226.5 544.5t226.5 545t543.5 225.5zM850 1262q-207 0 -353.5 -147.5t-146.5 -356.5q0 -207 146.5 -354.5t353.5 -147.5t355.5 148.5t148.5 353.5t-148.5 354.5t-355.5 149.5z" glyph-name="Odieresis" horiz-adv-x="1703" unicode="Ö"/><glyph d="M1004 252q37 -39 0 -76l-89 -90q-37 -39 -75 0l-269 270l-276 -278q-37 -37 -76 0l-90 88q-39 39 0 76l279 278l-269 268q-37 39 0 76l88 88q37 39 76 0l268 -268l260 260q39 39 76 0l88 -90q37 -39 0 -76l-258 -258z" glyph-name="multiply" horiz-adv-x="1124" unicode="×"/><glyph d="M1309 1378q145 -106 229 -269t84 -351q0 -319 -225.5 -544.5t-544.5 -225.5q-190 0 -360 90l-27 -43q-23 -39 -59 -15l-66 39q-39 25 -16 62l30 49q-127 109 -199.5 261.5t-72.5 326.5q0 319 226.5 544.5t543.5 225.5q166 0 313 -66l25 39q23 39 59 15l66 -41 q37 -23 14 -62zM350 758q0 -209 148 -357l522 830q-88 31 -170 31q-207 0 -353.5 -147.5t-146.5 -356.5zM850 256q207 0 355.5 148.5t148.5 353.5q0 238 -191 391l-528 -844q98 -49 215 -49z" glyph-name="Oslash" horiz-adv-x="1703" unicode="Ø"/><glyph d="M647 1634l-317 170q-47 25 -23 72l53 94q27 47 74 23l314 -170q43 -23 22 -72l-49 -94q-27 -50 -74 -23zM606 -12q-205 0 -349 144t-144 349v981q0 53 53 54h160q53 0 53 -54v-981q0 -92 66.5 -158.5t160.5 -66.5t159.5 66.5t65.5 158.5v981q0 53 54 54h162q53 0 53 -54 v-981q0 -205 -144.5 -349t-349.5 -144z" glyph-name="Ugrave" unicode="Ù"/><glyph d="M475 1657l-47 94q-23 47 23 72l313 170q47 25 74 -23l51 -94q27 -45 -21 -72l-319 -170q-47 -26 -74 23zM606 -12q-205 0 -349 144t-144 349v981q0 53 53 54h160q53 0 53 -54v-981q0 -92 66.5 -158.5t160.5 -66.5t159.5 66.5t65.5 158.5v981q0 53 54 54h162q53 0 53 -54 v-981q0 -205 -144.5 -349t-349.5 -144z" glyph-name="Uacute" unicode="Ú"/><glyph d="M883 1620h-158q-35 0 -59 27l-70 86l-76 -88q-20 -25 -57 -25h-146q-29 0 -38 17.5t12 39.5l198 224q20 27 56 26h110q35 0 56 -26l196 -224q20 -23 12.5 -40t-36.5 -17zM606 -12q-205 0 -349 144t-144 349v981q0 53 53 54h160q53 0 53 -54v-981q0 -92 66.5 -158.5 t160.5 -66.5t159.5 66.5t65.5 158.5v981q0 53 54 54h162q53 0 53 -54v-981q0 -205 -144.5 -349t-349.5 -144z" glyph-name="Ucircumflex" unicode="Û"/><glyph d="M563 1735q0 -47 -34.5 -81t-84.5 -34q-47 0 -80.5 34t-33.5 81q0 49 33.5 83.5t80.5 34.5q49 0 84 -34.5t35 -83.5zM868 1735q0 -47 -33.5 -81t-82.5 -34q-47 0 -81 34t-34 81q0 49 34 83.5t81 34.5q49 0 82.5 -34.5t33.5 -83.5zM606 -12q-205 0 -349 144t-144 349v981 q0 53 53 54h160q53 0 53 -54v-981q0 -92 66.5 -158.5t160.5 -66.5t159.5 66.5t65.5 158.5v981q0 53 54 54h162q53 0 53 -54v-981q0 -205 -144.5 -349t-349.5 -144z" glyph-name="Udieresis" unicode="Ü"/><glyph d="M555 1657l-49 94q-20 49 22 72l314 170q47 25 73 -23l54 -94q25 -47 -23 -72l-319 -170q-45 -26 -72 23zM1229 1516q31 0 41 -17.5t-4 -44.5l-447 -766v-635q0 -53 -53 -53h-160q-53 0 -53 53v635l-444 766q-16 27 -6 44.5t40 17.5h211q41 0 64 -35l268 -477l268 477 q23 35 62 35h213z" glyph-name="Yacute" horiz-adv-x="1361" unicode="Ý"/><glyph d="M580 1235q190 0 324 -134t134 -322.5t-134 -322.5t-324 -134h-199v-269q0 -53 -53 -53h-162q-53 0 -53 53v1409q0 53 53 54h162q53 0 53 -54v-227h199zM580 590q80 0 134 54t54 134q0 78 -54.5 132.5t-133.5 54.5h-199v-375h199z" glyph-name="Thorn" horiz-adv-x="1089" unicode="Þ"/><glyph d="M854 784q156 -129 156 -335q0 -178 -126 -313.5t-290 -135.5h-74q-53 0 -53 53v148q0 53 53 53h62q72 0 123 58.5t51 134t-51.5 135t-120.5 59.5h-64q-53 0 -53 53v146q0 49 51 53l51 2q63 0 102.5 55.5t39.5 122.5q0 80 -55.5 134.5t-133.5 54.5h-155v-1209 q0 -53 -56 -53h-145q-53 0 -53 53v1409q0 53 53 54h356q182 0 312.5 -129.5t130.5 -311.5q0 -170 -111 -291z" glyph-name="germandbls" horiz-adv-x="1091" unicode="ß"/><glyph d="M330 1321q-45 25 -21 74l51 92q27 47 74 22l314 -170q47 -25 22 -69l-49 -96q-23 -49 -72 -23zM1075 1024q23 0 39 -16.5t16 -38.5v-914q0 -23 -16 -39t-39 -16h-123q-20 0 -33.5 13.5t-13.5 33.5v39q-139 -102 -303 -102q-219 0 -373.5 155.5t-154.5 374.5 q0 217 154.5 371.5t373.5 154.5q160 0 301 -100v37q0 20 13.5 33.5t33.5 13.5h125zM608.5 252q106.5 0 182 77t75.5 185.5t-74.5 183t-183 74.5t-183.5 -74.5t-75 -183t76 -185.5t182.5 -77z" glyph-name="agrave" horiz-adv-x="1230" unicode="à"/><glyph d="M477 1174l-49 96q-23 47 23 69l313 170q47 25 74 -22l53 -92q25 -49 -23 -74l-319 -170q-45 -26 -72 23zM1075 1024q23 0 39 -16.5t16 -38.5v-914q0 -23 -16 -39t-39 -16h-123q-20 0 -33.5 13.5t-13.5 33.5v39q-139 -102 -303 -102q-219 0 -373.5 155.5t-154.5 374.5 q0 217 154.5 371.5t373.5 154.5q160 0 301 -100v37q0 20 13.5 33.5t33.5 13.5h125zM608.5 252q106.5 0 182 77t75.5 185.5t-74.5 183t-183 74.5t-183.5 -74.5t-75 -183t76 -185.5t182.5 -77z" glyph-name="aacute" horiz-adv-x="1230" unicode="á"/><glyph d="M317 1137q-29 0 -37 17t11 40l198 225q23 25 56 25h110q33 0 56 -25l198 -225q18 -23 10 -40t-36 -17h-158q-37 0 -57 26l-72 86l-76 -88q-20 -25 -55 -24h-148zM1075 1024q23 0 39 -16.5t16 -38.5v-914q0 -23 -16 -39t-39 -16h-123q-20 0 -33.5 13.5t-13.5 33.5v39 q-139 -102 -303 -102q-219 0 -373.5 155.5t-154.5 374.5q0 217 154.5 371.5t373.5 154.5q160 0 301 -100v37q0 20 13.5 33.5t33.5 13.5h125zM608.5 252q106.5 0 182 77t75.5 185.5t-74.5 183t-183 74.5t-183.5 -74.5t-75 -183t76 -185.5t182.5 -77z" glyph-name="acircumflex" horiz-adv-x="1230" unicode="â"/><glyph d="M266 1223q-43 27 -12 65q86 109 215 109q49 0 110.5 -27t94.5 -27q53 0 90 41q33 33 65 13l99 -62q41 -29 12 -67q-100 -121 -235 -121q-63 0 -123 26.5t-82 26.5q-43 0 -80 -31q-31 -31 -64 -8zM1075 1024q23 0 39 -16.5t16 -38.5v-914q0 -23 -16 -39t-39 -16h-123 q-20 0 -33.5 13.5t-13.5 33.5v39q-139 -102 -303 -102q-219 0 -373.5 155.5t-154.5 374.5q0 217 154.5 371.5t373.5 154.5q160 0 301 -100v37q0 20 13.5 33.5t33.5 13.5h125zM608.5 252q106.5 0 182 77t75.5 185.5t-74.5 183t-183 74.5t-183.5 -74.5t-75 -183t76 -185.5 t182.5 -77z" glyph-name="atilde" horiz-adv-x="1230" unicode="ã"/><glyph d="M446.5 1137q-49.5 0 -83 33.5t-33.5 80.5q0 49 33.5 84t83 35t83 -35t33.5 -84q0 -47 -33.5 -80.5t-83 -33.5zM754 1137q-49 0 -83 33.5t-34 80.5q0 49 34 84t83 35q47 0 80.5 -35t33.5 -84q0 -47 -33.5 -80.5t-80.5 -33.5zM1075 1024q23 0 39 -16.5t16 -38.5v-914 q0 -23 -16 -39t-39 -16h-123q-20 0 -33.5 13.5t-13.5 33.5v39q-139 -102 -303 -102q-219 0 -373.5 155.5t-154.5 374.5q0 217 154.5 371.5t373.5 154.5q160 0 301 -100v37q0 20 13.5 33.5t33.5 13.5h125zM608.5 252q106.5 0 182 77t75.5 185.5t-74.5 183t-183 74.5 t-183.5 -74.5t-75 -183t76 -185.5t182.5 -77z" glyph-name="adieresis" horiz-adv-x="1230" unicode="ä"/><glyph d="M602 1137q-90 0 -155.5 64.5t-65.5 156.5t65.5 156.5t155.5 64.5q92 0 156.5 -64.5t64.5 -156.5t-64.5 -156.5t-156.5 -64.5zM602 1436q-33 0 -55.5 -22.5t-22.5 -55.5t22.5 -55.5t55.5 -22.5t55.5 22.5t22.5 55.5t-22.5 55.5t-55.5 22.5zM1075 1024q23 0 39 -16.5 t16 -38.5v-914q0 -23 -16 -39t-39 -16h-123q-20 0 -33.5 13.5t-13.5 33.5v39q-139 -102 -303 -102q-219 0 -373.5 155.5t-154.5 374.5q0 217 154.5 371.5t373.5 154.5q160 0 301 -100v37q0 20 13.5 33.5t33.5 13.5h125zM608.5 252q106.5 0 182 77t75.5 185.5t-74.5 183 t-183 74.5t-183.5 -74.5t-75 -183t76 -185.5t182.5 -77z" glyph-name="aring" horiz-adv-x="1230" unicode="å"/><glyph d="M1905 481q0 -53 -54 -53h-721q37 -94 113 -143t164 -49q117 0 233 81q47 25 76 -12l90 -106q35 -45 -8 -76q-180 -139 -391 -139q-158 0 -277 92v-29q0 -47 -47 -47h-131q-47 0 -47 47v39q-139 -102 -303 -102q-219 0 -373.5 155.5t-154.5 374.5q0 217 154.5 371.5 t371.5 154.5q162 0 303 -100v37q0 47 47 47h133q47 0 47 -47v-25q117 88 273 88q201 0 344.5 -153.5t157.5 -405.5zM1135 633h481q-16 78 -81 132t-159 54q-90 0 -157.5 -52t-83.5 -134zM608.5 252q106.5 0 182 77t75.5 185.5t-74.5 183t-183 74.5t-183.5 -74.5t-75 -183 t76 -185.5t182.5 -77z" glyph-name="ae" horiz-adv-x="1976" unicode="æ"/><glyph d="M961 205q35 -43 -5 -76q-127 -115 -268 -139v-39q68 -27 111 -88.5t43 -134.5q0 -96 -70 -165t-166 -69q-80 0 -146.5 50t-82.5 130q-4 20 7 33.5t34 13.5h80q25 0 45 -30q23 -35 61 -35q29 0 50.5 22.5t21.5 51t-20.5 50t-51.5 21.5h-37q-45 0 -45 43v146 q-188 31 -314 179t-126 343q0 219 153.5 373.5t370.5 154.5q193 0 350 -137q39 -37 5 -78l-97 -108q-35 -37 -78 -6q-84 63 -178 63q-106 0 -182 -76.5t-76 -183t76 -182.5t182 -76q96 0 183 66q41 37 73 -5z" glyph-name="ccedilla" horiz-adv-x="1058" unicode="ç"/><glyph d="M645 1151l-317 170q-47 25 -23 74l53 92q25 49 74 22l313 -170q45 -25 21 -69l-47 -96q-27 -50 -74 -23zM1120 481q4 -53 -53 -53h-719q35 -94 111 -143t164 -49q119 0 235 81q45 25 74 -12l90 -106q35 -45 -8 -76q-178 -139 -396 -139q-231 0 -387.5 157.5t-156.5 380.5 q0 217 152.5 367.5t373.5 150.5q217 0 361.5 -151.5t158.5 -407.5zM350 633h481q-16 78 -80.5 132t-156.5 54t-160 -52t-84 -134z" glyph-name="egrave" horiz-adv-x="1191" unicode="è"/><glyph d="M473 1174l-47 96q-25 45 23 69l313 170q47 25 74 -22l51 -92q27 -47 -21 -74l-319 -170q-47 -26 -74 23zM1120 481q4 -53 -53 -53h-719q35 -94 111 -143t164 -49q119 0 235 81q45 25 74 -12l90 -106q35 -45 -8 -76q-178 -139 -396 -139q-231 0 -387.5 157.5t-156.5 380.5 q0 217 152.5 367.5t373.5 150.5q217 0 361.5 -151.5t158.5 -407.5zM350 633h481q-16 78 -80.5 132t-156.5 54t-160 -52t-84 -134z" glyph-name="eacute" horiz-adv-x="1191" unicode="é"/><glyph d="M879 1137h-158q-33 0 -57 26l-70 86l-76 -88q-25 -25 -57 -24h-146q-29 0 -38 17t12 40l198 225q20 25 56 25h110q33 0 54 -25l198 -225q20 -23 11.5 -40t-37.5 -17zM1120 481q4 -53 -53 -53h-719q35 -94 111 -143t164 -49q119 0 235 81q45 25 74 -12l90 -106 q35 -45 -8 -76q-178 -139 -396 -139q-231 0 -387.5 157.5t-156.5 380.5q0 217 152.5 367.5t373.5 150.5q217 0 361.5 -151.5t158.5 -407.5zM350 633h481q-16 78 -80.5 132t-156.5 54t-160 -52t-84 -134z" glyph-name="ecircumflex" horiz-adv-x="1191" unicode="ê"/><glyph d="M559 1251q0 -47 -33.5 -80.5t-83.5 -33.5q-47 0 -80.5 33.5t-33.5 80.5q0 49 33.5 84t80.5 35q49 0 83 -35t34 -84zM866 1251q0 -47 -33.5 -80.5t-82.5 -33.5q-47 0 -81 33.5t-34 80.5q0 49 33.5 84t81.5 35q49 0 82.5 -35t33.5 -84zM1120 481q4 -53 -53 -53h-719 q35 -94 111 -143t164 -49q119 0 235 81q45 25 74 -12l90 -106q35 -45 -8 -76q-178 -139 -396 -139q-231 0 -387.5 157.5t-156.5 380.5q0 217 152.5 367.5t373.5 150.5q217 0 361.5 -151.5t158.5 -407.5zM350 633h481q-16 78 -80.5 132t-156.5 54t-160 -52t-84 -134z" glyph-name="edieresis" horiz-adv-x="1191" unicode="ë"/><glyph d="M279 1151l-320 170q-47 25 -22 74l53 92q27 47 73 22l314 -170q45 -23 22 -69l-49 -96q-26 -50 -71 -23zM313 0h-157q-53 0 -54 53v918q0 53 54 53h157q53 0 54 -53v-918q-1 -53 -54 -53z" glyph-name="igrave" horiz-adv-x="458" unicode="ì"/><glyph d="M106 1174l-49 96q-25 45 23 69l313 170q47 25 74 -22l51 -92q27 -49 -20 -74l-320 -170q-49 -26 -72 23zM313 0h-157q-53 0 -54 53v918q0 53 54 53h157q53 0 54 -53v-918q-1 -53 -54 -53z" glyph-name="iacute" horiz-adv-x="458" unicode="í"/><glyph d="M512 1137h-158q-35 0 -59 26l-70 86l-75 -88q-23 -25 -58 -24h-145q-29 0 -38 17t11 40l199 225q20 25 55 25h111q35 0 55 -25l197 -225q20 -23 12 -40t-37 -17zM313 0h-157q-53 0 -54 53v918q0 53 54 53h157q53 0 54 -53v-918q-1 -53 -54 -53z" glyph-name="icircumflex" horiz-adv-x="458" unicode="î"/><glyph d="M193 1251q0 -47 -35 -80.5t-84 -33.5q-47 0 -81 33.5t-34 80.5q0 49 34 84t81 35q49 0 84 -35t35 -84zM498 1251q0 -47 -34 -80.5t-83 -33.5q-47 0 -81 33.5t-34 80.5q0 49 34 84t81 35q49 0 83 -35t34 -84zM313 0h-157q-53 0 -54 53v918q0 53 54 53h157q53 0 54 -53 v-918q-1 -53 -54 -53z" glyph-name="idieresis" horiz-adv-x="458" unicode="ï"/><glyph d="M1083 760q59 -106 60 -244q0 -217 -154.5 -372.5t-372.5 -155.5q-219 0 -373.5 155.5t-154.5 372.5t152.5 370.5t365.5 155.5l-57 99l-47 -29q-41 -25 -64 18l-49 80q-23 41 19 66l43 24l-21 35q-29 45 19 74l137 80q43 29 73 -19l21 -34l47 28q43 23 64 -16l49 -80 q23 -43 -19 -65l-45 -27zM616.5 256q108.5 0 184.5 77t76 183q0 104 -76 182t-184.5 78t-185.5 -76.5t-77 -183.5q0 -109 77 -184.5t185.5 -75.5z" glyph-name="eth" horiz-adv-x="1243" unicode="ð"/><glyph d="M209 1223q-41 27 -12 65q90 109 215 109q49 0 110.5 -27t93.5 -27q51 0 93 41q29 33 63 13l100 -62q41 -29 11 -67q-98 -121 -236 -121q-63 0 -122.5 26.5t-82.5 26.5q-43 0 -77 -31q-33 -31 -66 -8zM563 1040q178 0 302 -129t124 -313v-545q0 -53 -53 -53h-162 q-53 0 -53 53v545q0 72 -51.5 124t-124.5 52q-72 0 -124 -52t-52 -124v-545q0 -53 -54 -53h-159q-53 0 -54 53v918q0 53 54 53h112q45 0 45 -47v-19q113 82 250 82z" glyph-name="ntilde" horiz-adv-x="1071" unicode="ñ"/><glyph d="M647 1151l-319 170q-47 25 -23 74l53 92q27 47 74 22l313 -170q45 -23 23 -69l-49 -96q-27 -50 -72 -23zM600 1040q219 0 373.5 -155.5t154.5 -372.5t-154.5 -372.5t-373.5 -155.5t-373.5 155.5t-154.5 372.5t154.5 372.5t373.5 155.5zM600.5 770q-108.5 0 -184.5 -76 t-76 -182t76 -183t184 -77q106 0 182 75.5t76 184.5q0 106 -74.5 182t-183 76z" glyph-name="ograve" unicode="ò"/><glyph d="M475 1174l-49 96q-25 45 23 69l313 170q47 25 74 -22l51 -92q27 -49 -21 -74l-319 -170q-49 -26 -72 23zM600 1040q219 0 373.5 -155.5t154.5 -372.5t-154.5 -372.5t-373.5 -155.5t-373.5 155.5t-154.5 372.5t154.5 372.5t373.5 155.5zM600.5 770q-108.5 0 -184.5 -76 t-76 -182t76 -183t184 -77q106 0 182 75.5t76 184.5q0 106 -74.5 182t-183 76z" glyph-name="oacute" unicode="ó"/><glyph d="M881 1137h-158q-35 0 -59 26l-70 86l-76 -88q-23 -25 -55 -24h-148q-29 0 -37 17t11 40l198 225q20 25 56 25h110q35 0 56 -25l196 -225q20 -23 12.5 -40t-36.5 -17zM600 1040q219 0 373.5 -155.5t154.5 -372.5t-154.5 -372.5t-373.5 -155.5t-373.5 155.5t-154.5 372.5 t154.5 372.5t373.5 155.5zM600.5 770q-108.5 0 -184.5 -76t-76 -182t76 -183t184 -77q106 0 182 75.5t76 184.5q0 106 -74.5 182t-183 76z" glyph-name="ocircumflex" unicode="ô"/><glyph d="M354 1161l-92 62q-39 27 -10 65q86 109 213 109q49 0 111.5 -27t95.5 -27q49 0 90 41q33 33 63 13l101 -62q41 -29 10 -67q-98 -121 -236 -121q-61 0 -121.5 26.5t-82.5 26.5q-41 0 -78 -31q-33 -31 -64 -8zM600 1040q219 0 373.5 -155.5t154.5 -372.5t-154.5 -372.5 t-373.5 -155.5t-373.5 155.5t-154.5 372.5t154.5 372.5t373.5 155.5zM600.5 770q-108.5 0 -184.5 -76t-76 -182t76 -183t184 -77q106 0 182 75.5t76 184.5q0 106 -74.5 182t-183 76z" glyph-name="otilde" unicode="õ"/><glyph d="M561 1251q0 -47 -34.5 -80.5t-82.5 -33.5q-49 0 -82.5 33.5t-33.5 80.5q0 49 33.5 84t82.5 35q47 0 82 -35t35 -84zM866 1251q0 -47 -33.5 -80.5t-82.5 -33.5q-47 0 -81 33.5t-34 80.5q0 49 33.5 84t81.5 35q49 0 82.5 -35t33.5 -84zM600 1040q219 0 373.5 -155.5 t154.5 -372.5t-154.5 -372.5t-373.5 -155.5t-373.5 155.5t-154.5 372.5t154.5 372.5t373.5 155.5zM600.5 770q-108.5 0 -184.5 -76t-76 -182t76 -183t184 -77q106 0 182 75.5t76 184.5q0 106 -74.5 182t-183 76z" glyph-name="odieresis" unicode="ö"/><glyph d="M745 946.5q0 -59.5 -43 -100.5t-102 -41t-101 41t-42 100.5t42 101.5t101 42t102 -42t43 -101.5zM1075 481h-950q-53 0 -53 54v127q0 53 53 53h950q53 0 53 -53v-127q0 -54 -53 -54zM745 246q0 -57 -43 -98.5t-102 -41.5t-101 41t-42 99q0 63 42 105t101 42t102 -43 t43 -104z" glyph-name="divide" horiz-adv-x="1189" unicode="÷"/><glyph d="M940 918q190 -158 190 -406q0 -217 -155.5 -372.5t-372.5 -155.5q-117 0 -217 47l-6 -8q-23 -35 -60 -15l-67 39q-39 25 -14 62l8 14q-172 158 -172 389q0 217 155.5 372.5t372.5 155.5q104 0 195 -36l4 6q25 39 61 14l66 -41q37 -27 14 -61zM344 512q0 -84 49 -154 l256 408q-14 4 -47 4q-106 0 -182 -76t-76 -182zM602 252q106 0 183 77t77 183q0 100 -67 174l-265 -424q37 -10 72 -10z" glyph-name="oslash" horiz-adv-x="1206" unicode="ø"/><glyph d="M588 1151l-320 170q-45 25 -20 74l51 92q29 49 74 22l313 -170q47 -25 23 -69l-47 -96q-27 -50 -74 -23zM547 -16q-184 0 -314.5 130t-130.5 314v543q0 53 54 53h159q53 0 54 -53v-543q0 -72 52 -125t126 -53q72 0 124 53t52 125v543q0 53 53 53h160q55 0 55 -53v-543 q0 -184 -131 -314t-313 -130z" glyph-name="ugrave" horiz-adv-x="1071" unicode="ù"/><glyph d="M416 1174l-47 96q-25 45 20 69l313 170q49 25 74 -22l53 -92q27 -47 -22 -74l-318 -170q-46 -26 -73 23zM547 -16q-184 0 -314.5 130t-130.5 314v543q0 53 54 53h159q53 0 54 -53v-543q0 -72 52 -125t126 -53q72 0 124 53t52 125v543q0 53 53 53h160q55 0 55 -53v-543 q0 -184 -131 -314t-313 -130z" glyph-name="uacute" horiz-adv-x="1071" unicode="ú"/><glyph d="M821 1137h-157q-37 0 -58 26l-71 86l-74 -88q-25 -25 -58 -24h-145q-31 0 -39 17t12 40l197 225q25 25 55 25h111q33 0 55 -25l199 -225q20 -23 11 -40t-38 -17zM547 -16q-184 0 -314.5 130t-130.5 314v543q0 53 54 53h159q53 0 54 -53v-543q0 -72 52 -125t126 -53 q72 0 124 53t52 125v543q0 53 53 53h160q55 0 55 -53v-543q0 -184 -131 -314t-313 -130z" glyph-name="ucircumflex" horiz-adv-x="1071" unicode="û"/><glyph d="M502 1251q0 -47 -34 -80.5t-83 -33.5q-47 0 -81 33.5t-34 80.5q0 49 34 84t81 35q49 0 83 -35t34 -84zM809 1251q0 -47 -34 -80.5t-83 -33.5q-47 0 -82 33.5t-35 80.5q0 49 35 84t82 35q49 0 83 -35t34 -84zM547 -16q-184 0 -314.5 130t-130.5 314v543q0 53 54 53h159 q53 0 54 -53v-543q0 -72 52 -125t126 -53q72 0 124 53t52 125v543q0 53 53 53h160q55 0 55 -53v-543q0 -184 -131 -314t-313 -130z" glyph-name="udieresis" horiz-adv-x="1071" unicode="ü"/><glyph d="M426 1174l-47 96q-25 45 22 69l314 170q47 25 73 -22l52 -92q27 -47 -21 -74l-319 -170q-47 -26 -74 23zM1020 1024q63 0 43 -59l-401 -969q-133 -328 -439 -412q-49 -12 -65 35l-47 139q-20 49 32 66q203 70 281 291l-348 850q-23 59 41 59h182q47 0 61 -39l207 -510 l207 510q18 39 60 39h186z" glyph-name="yacute" horiz-adv-x="1167" unicode="ý"/><glyph d="M629 -16q-143 0 -260 79v-419q0 -53 -54 -54h-159q-53 0 -54 54v1736q0 53 54 54h159q53 0 54 -54v-419q117 80 260 79q219 0 373.5 -155.5t154.5 -372.5t-154.5 -372.5t-373.5 -155.5zM624.5 770q-104.5 0 -181 -76t-76.5 -182t76.5 -182t181 -76t181.5 76t77 182 t-77 182t-181.5 76z" glyph-name="thorn" horiz-adv-x="1228" unicode="þ"/><glyph d="M512 1251q0 -47 -34 -80.5t-83 -33.5q-47 0 -80.5 33.5t-33.5 80.5q0 49 33.5 84t80.5 35q49 0 83 -35t34 -84zM819 1251q0 -47 -33.5 -80.5t-83.5 -33.5q-47 0 -80.5 33.5t-33.5 80.5q0 49 33.5 84t80.5 35q49 0 83 -35t34 -84zM1020 1024q63 0 43 -59l-401 -969 q-133 -328 -439 -412q-49 -12 -65 35l-47 139q-20 49 32 66q203 70 281 291l-348 850q-23 59 41 59h182q47 0 61 -39l207 -510l207 510q18 39 60 39h186z" glyph-name="ydieresis" horiz-adv-x="1167" unicode="ÿ"/><glyph d="M1014 1620h-453q-47 0 -47 45v119q0 47 47 47h453q47 0 47 -47v-119q0 -45 -47 -45zM1475 59q23 -59 -41 -59l-185 2q-45 0 -59 39l-92 231h-625l-94 -231q-14 -41 -60 -41h-184q-61 0 -41 59l563 1418q14 39 60 39h127q45 0 59 -39zM580 541h411l-205 518z" glyph-name="Amacron" horiz-adv-x="1560" unicode="Ā"/><glyph d="M383 1137q-47 0 -47 45v118q0 47 47 48h453q47 0 47 -48v-118q0 -45 -47 -45h-453zM1075 1024q23 0 39 -16.5t16 -38.5v-914q0 -23 -16 -39t-39 -16h-123q-20 0 -33.5 13.5t-13.5 33.5v39q-139 -102 -303 -102q-219 0 -373.5 155.5t-154.5 374.5q0 217 154.5 371.5 t373.5 154.5q160 0 301 -100v37q0 20 13.5 33.5t33.5 13.5h125zM608.5 252q106.5 0 182 77t75.5 185.5t-74.5 183t-183 74.5t-183.5 -74.5t-75 -183t76 -185.5t182.5 -77z" glyph-name="amacron" horiz-adv-x="1230" unicode="ā"/><glyph d="M778.5 1618q-108.5 0 -183.5 66.5t-75 162.5v39q0 47 47 47h72q45 0 45 -45v-20q0 -37 27.5 -61.5t66.5 -24.5q37 0 64.5 24.5t27.5 61.5v20q0 45 45 45h74q47 0 47 -45v-41q0 -96 -74.5 -162.5t-183 -66.5zM1475 59q23 -59 -41 -59l-185 2q-45 0 -59 39l-92 231h-625 l-94 -231q-14 -41 -60 -41h-184q-61 0 -41 59l563 1418q14 39 60 39h127q45 0 59 -39zM580 541h411l-205 518z" glyph-name="Abreve" horiz-adv-x="1560" unicode="Ă"/><glyph d="M600.5 1135q-108.5 0 -183.5 66.5t-75 162.5v39q0 47 47 47h72q45 0 45 -45v-21q0 -37 27.5 -61.5t66.5 -24.5q37 0 64.5 25t27.5 61v21q0 45 45 45l74 2q47 0 47 -47v-41q0 -96 -74.5 -162.5t-183 -66.5zM1075 1024q23 0 39 -16.5t16 -38.5v-914q0 -23 -16 -39t-39 -16 h-123q-20 0 -33.5 13.5t-13.5 33.5v39q-139 -102 -303 -102q-219 0 -373.5 155.5t-154.5 374.5q0 217 154.5 371.5t373.5 154.5q160 0 301 -100v37q0 20 13.5 33.5t33.5 13.5h125zM608.5 252q106.5 0 182 77t75.5 185.5t-74.5 183t-183 74.5t-183.5 -74.5t-75 -183 t76 -185.5t182.5 -77z" glyph-name="abreve" horiz-adv-x="1230" unicode="ă"/><glyph d="M1530 -313q23 -33 -23 -47q-53 -18 -102 -19q-102 0 -172 71.5t-70 176.5q0 80 39 154q-4 2 -12 18l-92 231h-625l-94 -231q-14 -41 -60 -41h-184q-61 0 -41 59l563 1418q14 39 60 39h127q45 0 59 -39l572 -1418q23 -59 -41 -59h-86q-45 -70 -45 -133q0 -70 49 -105.5 t114 -23.5q31 4 43 -17zM580 541h411l-205 518z" glyph-name="Aogonek" horiz-adv-x="1568" unicode="Ą"/><glyph d="M1235 -313q23 -33 -21 -47q-55 -18 -102 -19q-104 0 -174 71.5t-70 176.5q0 80 41 158q-4 12 -4 20v39q-139 -102 -303 -102q-219 0 -373.5 155.5t-154.5 374.5q0 217 154.5 371.5t373.5 154.5q160 0 301 -100v37q0 20 13.5 33.5t33.5 13.5h125q23 0 39 -16.5t16 -38.5 v-914q0 -23 -16 -39t-39 -16h-22q-45 -70 -45 -133q0 -70 49 -105.5t117 -23.5q31 4 40 -17zM608.5 252q106.5 0 182 77t75.5 185.5t-74.5 183t-183 74.5t-183.5 -74.5t-75 -183t76 -185.5t182.5 -77z" glyph-name="aogonek" horiz-adv-x="1230" unicode="ą"/><glyph d="M684 1657l-49 94q-25 47 22 72l314 170q47 25 73 -23l52 -94q27 -45 -21 -72l-319 -170q-49 -26 -72 23zM842 -12q-319 0 -544.5 226t-225.5 543.5t225 544t541 226.5q293 0 526 -217q37 -33 6 -76l-92 -113q-35 -41 -76 -6q-178 143 -362 144q-207 0 -354.5 -147.5 t-147.5 -354.5t147.5 -354.5t354.5 -147.5q197 0 362 137q41 39 74 -6l96 -125q31 -41 -8 -74q-227 -200 -522 -200z" glyph-name="Cacute" horiz-adv-x="1492" unicode="Ć"/><glyph d="M481 1174l-49 96q-25 45 23 69l313 170q47 25 74 -22l51 -92q27 -49 -21 -74l-319 -170q-49 -26 -72 23zM604 -16q-215 0 -368.5 155.5t-153.5 372.5q0 219 153.5 373.5t370.5 154.5q193 0 350 -137q39 -37 5 -78l-97 -108q-35 -37 -78 -6q-84 63 -178 63 q-106 0 -182 -76.5t-76 -183t76 -182.5t182 -76q96 0 183 66q41 37 73 -5l97 -112q35 -43 -5 -76q-162 -145 -352 -145z" glyph-name="cacute" horiz-adv-x="1058" unicode="ć"/><glyph d="M1116 1868l-198 -223q-18 -25 -56 -25h-110q-35 0 -54 25l-198 223q-20 25 -11 42t37 17h146q33 0 57 -26l74 -89l71 86q25 29 58 29h158q29 0 37.5 -17t-11.5 -42zM842 -12q-319 0 -544.5 226t-225.5 543.5t225 544t541 226.5q293 0 526 -217q37 -33 6 -76l-92 -113 q-35 -41 -76 -6q-178 143 -362 144q-207 0 -354.5 -147.5t-147.5 -354.5t147.5 -354.5t354.5 -147.5q197 0 362 137q41 39 74 -6l96 -125q31 -41 -8 -74q-227 -200 -522 -200z" glyph-name="Ccaron" horiz-adv-x="1492" unicode="Č"/><glyph d="M913 1384l-198 -223q-18 -25 -56 -24h-110q-35 0 -53 24l-199 223q-20 25 -11 42.5t38 17.5h145q33 0 57 -27l74 -88l72 86q23 29 57 29h158q29 0 37.5 -17.5t-11.5 -42.5zM604 -16q-215 0 -368.5 155.5t-153.5 372.5q0 219 153.5 373.5t370.5 154.5q193 0 350 -137 q39 -37 5 -78l-97 -108q-35 -37 -78 -6q-84 63 -178 63q-106 0 -182 -76.5t-76 -183t76 -182.5t182 -76q96 0 183 66q41 37 73 -5l97 -112q35 -43 -5 -76q-162 -145 -352 -145z" glyph-name="ccaron" horiz-adv-x="1058" unicode="č"/><glyph d="M768 1620h-455q-45 0 -45 45v119q0 47 45 47h455q45 0 45 -47v-119q0 -45 -45 -45zM897 268q53 0 53 -53v-162q0 -53 -53 -53h-731q-53 0 -53 53v1409q0 53 53 54h731q53 0 53 -54v-162q0 -53 -53 -53h-516v-370h479q53 0 53 -52v-133q0 -51 -53 -51h-479v-373h516z" glyph-name="Emacron" horiz-adv-x="1042" unicode="Ē"/><glyph d="M831 1137h-452q-47 0 -47 45v118q0 47 47 48h452q47 0 48 -48v-118q-1 -45 -48 -45zM1120 481q4 -53 -53 -53h-719q35 -94 111 -143t164 -49q119 0 235 81q45 25 74 -12l90 -106q35 -45 -8 -76q-178 -139 -396 -139q-231 0 -387.5 157.5t-156.5 380.5q0 217 152.5 367.5 t373.5 150.5q217 0 361.5 -151.5t158.5 -407.5zM350 633h481q-16 78 -80.5 132t-156.5 54t-160 -52t-84 -134z" glyph-name="emacron" horiz-adv-x="1191" unicode="ē"/><glyph d="M645 1735q0 -47 -33.5 -81t-83 -34t-83 34t-33.5 81q0 49 33.5 83.5t83 34.5t83 -34.5t33.5 -83.5zM897 268q53 0 53 -53v-162q0 -53 -53 -53h-731q-53 0 -53 53v1409q0 53 53 54h731q53 0 53 -54v-162q0 -53 -53 -53h-516v-370h479q53 0 53 -52v-133q0 -51 -53 -51h-479 v-373h516z" glyph-name="Edotaccent" horiz-adv-x="1042" unicode="Ė"/><glyph d="M711 1251q0 -47 -35 -80.5t-82 -33.5q-49 0 -83 33.5t-34 80.5q0 49 34 84t83 35q47 0 82 -35t35 -84zM1120 481q4 -53 -53 -53h-719q35 -94 111 -143t164 -49q119 0 235 81q45 25 74 -12l90 -106q35 -45 -8 -76q-178 -139 -396 -139q-231 0 -387.5 157.5t-156.5 380.5 q0 217 152.5 367.5t373.5 150.5q217 0 361.5 -151.5t158.5 -407.5zM350 633h481q-16 78 -80.5 132t-156.5 54t-160 -52t-84 -134z" glyph-name="edotaccent" horiz-adv-x="1191" unicode="ė"/><glyph d="M1102 -313q23 -33 -21 -47q-55 -18 -102 -19q-104 0 -174 71.5t-70 176.5q0 68 29 131h-598q-53 0 -53 53v1409q0 53 53 54h731q53 0 53 -54v-162q0 -53 -53 -53h-516v-370h479q53 0 53 -52v-133q0 -51 -53 -51h-479v-373h516q53 0 53 -53v-162q0 -37 -26 -47 q-49 -74 -50 -139q0 -70 49.5 -105.5t116.5 -23.5q31 4 41 -17z" glyph-name="Eogonek" horiz-adv-x="1040" unicode="Ę"/><glyph d="M1120 481q4 -53 -53 -53h-719q35 -94 111 -143t164 -49q119 0 235 81q45 25 74 -12l90 -106q35 -45 -8 -76q-121 -96 -271 -127q-43 -68 -43 -129q0 -70 49.5 -105.5t116.5 -23.5q31 4 41 -17l21 -34q23 -33 -21 -47q-55 -18 -102 -19q-104 0 -174 71.5t-70 176.5 q0 55 23 117q-217 12 -363.5 167.5t-146.5 368.5q0 217 152.5 367.5t373.5 150.5q217 0 361.5 -151.5t158.5 -407.5zM350 633h481q-16 78 -80.5 132t-156.5 54t-160 -52t-84 -134z" glyph-name="eogonek" horiz-adv-x="1191" unicode="ę"/><glyph d="M842 1868l-199 -223q-18 -25 -55 -25h-111q-35 0 -53 25l-199 223q-20 25 -11 42t38 17h145q33 0 58 -26l73 -89l72 86q23 29 57 29h158q29 0 38 -17t-11 -42zM897 268q53 0 53 -53v-162q0 -53 -53 -53h-731q-53 0 -53 53v1409q0 53 53 54h731q53 0 53 -54v-162 q0 -53 -53 -53h-516v-370h479q53 0 53 -52v-133q0 -51 -53 -51h-479v-373h516z" glyph-name="Ecaron" horiz-adv-x="1042" unicode="Ě"/><glyph d="M907 1384l-198 -223q-18 -25 -56 -24h-110q-37 0 -56 24l-196 223q-20 25 -12 42.5t36 17.5h148q35 0 55 -27l76 -88l72 86q23 29 57 29h158q29 0 36.5 -17.5t-10.5 -42.5zM1120 481q4 -53 -53 -53h-719q35 -94 111 -143t164 -49q119 0 235 81q45 25 74 -12l90 -106 q35 -45 -8 -76q-178 -139 -396 -139q-231 0 -387.5 157.5t-156.5 380.5q0 217 152.5 367.5t373.5 150.5q217 0 361.5 -151.5t158.5 -407.5zM350 633h481q-16 78 -80.5 132t-156.5 54t-160 -52t-84 -134z" glyph-name="ecaron" horiz-adv-x="1191" unicode="ě"/><glyph d="M477 1614h-452q-47 0 -48 47v117q0 47 48 47h452q45 0 45 -47v-117q0 -47 -45 -47zM113 53v1409q0 53 53 54h158q53 0 53 -54v-1409q0 -53 -53 -53h-158q-53 0 -53 53z" glyph-name="Imacron" horiz-adv-x="479" unicode="Ī"/><glyph d="M465 1137h-455q-45 0 -45 45v118q0 47 45 48h455q45 0 45 -48v-118q0 -45 -45 -45zM313 0h-157q-53 0 -54 53v918q0 53 54 53h157q53 0 54 -53v-918q-1 -53 -54 -53z" glyph-name="imacron" horiz-adv-x="458" unicode="ī"/><glyph d="M537 -313q23 -33 -21 -47q-55 -18 -102 -19q-104 0 -174 71.5t-70 176.5q0 68 29 131h-33q-53 0 -53 53v1409q0 53 53 54h158q53 0 53 -54v-1409q0 -18 -4 -26q-63 -86 -64 -160q0 -70 49.5 -105.5t116.5 -23.5q31 4 41 -17z" glyph-name="Iogonek" horiz-adv-x="479" unicode="Į"/><glyph d="M225 1137q-49 0 -82.5 33.5t-33.5 80.5q0 49 33.5 84t82.5 35t83 -35t34 -84q0 -47 -34 -80.5t-83 -33.5zM432 -313q23 -33 -20 -47q-55 -18 -103 -19q-104 0 -172.5 71.5t-68.5 176.5q0 84 38 158q-4 16 -4 26v918q0 53 54 53h157q53 0 54 -53v-918q0 -53 -54 -53h-63 q-45 -70 -45 -133q0 -70 49 -105.5t117 -23.5q31 4 41 -17z" glyph-name="iogonek" horiz-adv-x="458" unicode="į"/><glyph d="M313 0h-157q-53 0 -54 53v918q0 53 54 53h157q53 0 54 -53v-918q-1 -53 -54 -53z" glyph-name="dotlessi" horiz-adv-x="458" unicode="ı"/><glyph d="M221 1669l-47 94q-25 47 23 72l313 168q47 25 74 -23l51 -92q29 -47 -21 -73l-319 -170q-49 -27 -74 24zM862 0h-696q-53 0 -53 53v1409q0 53 53 54h162q53 0 53 -54v-1194h481q55 0 56 -53v-162q-1 -53 -56 -53z" glyph-name="Lacute" horiz-adv-x="976" unicode="Ĺ"/><glyph d="M176 1595l-49 95q-25 47 23 71l313 168q47 25 74 -22l51 -92q29 -47 -21 -74l-319 -170q-49 -27 -72 24zM496 268q45 0 45 -53v-162q0 -53 -56 -53h-18q-188 0 -275.5 91t-87.5 292v997q0 53 56 54h162q53 0 53 -54v-1001q0 -51 26.5 -81t73.5 -30h21z" glyph-name="lacute" horiz-adv-x="593" unicode="ĺ"/><glyph d="M944 268q55 0 55 -53v-162q0 -53 -55 -53h-696q-53 0 -53 53v445l-29 -15q-23 -12 -38 -3t-15 34v164q0 35 30 53l52 29v702q0 53 53 54h162q53 0 53 -54v-555l340 187q23 12 38 2.5t15 -33.5v-168q0 -35 -31 -53l-362 -197v-377h481z" glyph-name="Lslash" horiz-adv-x="1058" unicode="Ł"/><glyph d="M565 268q43 0 43 -53v-162q0 -53 -53 -53h-18q-188 0 -275.5 91t-87.5 292v111l-18 -11q-23 -12 -38.5 -3t-15.5 34v164q0 35 31 53l41 23v626q0 53 53 54h162q53 0 53 -54v-477l109 60q23 12 38 2.5t15 -33.5v-168q0 -35 -31 -53l-131 -72v-260q0 -51 28 -81t73 -30h22z " glyph-name="lslash" horiz-adv-x="663" unicode="ł"/><glyph d="M549 1657l-49 94q-25 47 22 72l314 170q47 25 73 -23l52 -94q27 -45 -21 -72l-319 -170q-49 -26 -72 23zM1024 1462q0 53 53 54h160q55 0 55 -54v-1409q0 -53 -55 -53h-115q-43 0 -61 33l-680 979v-959q0 -53 -53 -53h-162q-53 0 -53 53v1409q0 53 53 54h110q41 0 64 -33 l684 -983v962z" glyph-name="Nacute" horiz-adv-x="1392" unicode="Ń"/><glyph d="M420 1174l-47 96q-25 45 20 69l314 170q49 27 73 -22l54 -92q27 -47 -23 -74l-317 -170q-47 -26 -74 23zM563 1040q178 0 302 -129t124 -313v-545q0 -53 -53 -53h-162q-53 0 -53 53v545q0 72 -51.5 124t-124.5 52q-72 0 -124 -52t-52 -124v-545q0 -53 -54 -53h-159 q-53 0 -54 53v918q0 53 54 53h112q45 0 45 -47v-19q113 82 250 82z" glyph-name="nacute" horiz-adv-x="1071" unicode="ń"/><glyph d="M981 1868l-199 -223q-18 -25 -53 -25h-111q-37 0 -55 25l-198 223q-20 25 -11.5 42t37.5 17h146q33 0 57 -26l76 -89l69 86q25 29 58 29h157q31 0 39 -17t-12 -42zM1024 1462q0 53 53 54h160q55 0 55 -54v-1409q0 -53 -55 -53h-115q-43 0 -61 33l-680 979v-959 q0 -53 -53 -53h-162q-53 0 -53 53v1409q0 53 53 54h110q41 0 64 -33l684 -983v962z" glyph-name="Ncaron" horiz-adv-x="1392" unicode="Ň"/><glyph d="M434 1161l-198 223q-18 25 -10.5 42.5t36.5 17.5h148q35 0 55 -27l76 -88l71 86q23 29 58 29h157q29 0 37 -17.5t-10 -42.5l-199 -223q-18 -25 -55 -24h-111q-37 -1 -55 24zM563 1040q178 0 302 -129t124 -313v-545q0 -53 -53 -53h-162q-53 0 -53 53v545q0 72 -51.5 124 t-124.5 52q-72 0 -124 -52t-52 -124v-545q0 -53 -54 -53h-159q-53 0 -54 53v918q0 53 54 53h112q45 0 45 -47v-19q113 82 250 82z" glyph-name="ncaron" horiz-adv-x="1071" unicode="ň"/><glyph d="M1081 1620h-452q-47 0 -47 45v119q0 47 47 47h452q47 0 47 -47v-119q0 -45 -47 -45zM852 1528q319 0 544.5 -225.5t225.5 -545t-225.5 -544.5t-544.5 -225q-317 0 -543.5 225t-226.5 544.5t226.5 545t543.5 225.5zM850 1262q-207 0 -353.5 -147.5t-146.5 -356.5 q0 -207 146.5 -354.5t353.5 -147.5t355.5 148.5t148.5 353.5t-148.5 354.5t-355.5 149.5z" glyph-name="Omacron" horiz-adv-x="1703" unicode="Ō"/><glyph d="M834 1137h-453q-47 0 -47 45v118q0 47 47 48h453q45 0 45 -48v-118q0 -45 -45 -45zM600 1040q219 0 373.5 -155.5t154.5 -372.5t-154.5 -372.5t-373.5 -155.5t-373.5 155.5t-154.5 372.5t154.5 372.5t373.5 155.5zM600.5 770q-108.5 0 -184.5 -76t-76 -182t76 -183 t184 -77q106 0 182 75.5t76 184.5q0 106 -74.5 182t-183 76z" glyph-name="omacron" unicode="ō"/><glyph d="M655 1614l-61 59q-37 39 -4 78l237 264q39 41 76 4l68 -59q39 -35 4 -74l-244 -268q-37 -43 -76 -4zM983 1614l-61 59q-39 39 -4 78l237 264q39 41 76 4l65 -59q41 -37 4 -74l-241 -268q-37 -43 -76 -4zM852 1528q319 0 544.5 -225.5t225.5 -545t-225.5 -544.5 t-544.5 -225q-317 0 -543.5 225t-226.5 544.5t226.5 545t543.5 225.5zM850 1262q-207 0 -353.5 -147.5t-146.5 -356.5q0 -207 146.5 -354.5t353.5 -147.5t355.5 148.5t148.5 353.5t-148.5 354.5t-355.5 149.5z" glyph-name="Ohungarumlaut" horiz-adv-x="1703" unicode="Ő"/><glyph d="M406 1130l-62 60q-37 41 -2 78l238 264q35 43 73 4l68 -59q37 -35 4 -74l-242 -268q-38 -44 -77 -5zM733 1130l-61 60q-37 39 -4 78l239 264q35 43 74 4l68 -59q37 -35 4 -74l-244 -268q-37 -44 -76 -5zM600 1040q219 0 373.5 -155.5t154.5 -372.5t-154.5 -372.5 t-373.5 -155.5t-373.5 155.5t-154.5 372.5t154.5 372.5t373.5 155.5zM600.5 770q-108.5 0 -184.5 -76t-76 -182t76 -183t184 -77q106 0 182 75.5t76 184.5q0 106 -74.5 182t-183 76z" glyph-name="ohungarumlaut" unicode="ő"/><glyph d="M2103 268q55 0 56 -53v-162q0 -53 -56 -53h-692q-55 0 -55 53v129q-211 -201 -504 -200q-319 0 -544.5 226t-225.5 545.5t225 545t545 225.5q295 0 504 -199v137q0 53 53 54h694q55 0 56 -54v-159q0 -55 -56 -56h-481v-370h446q51 0 52 -54v-131q0 -53 -52 -53h-446v-371 h481zM1354 754q0 211 -145.5 356t-356.5 145q-207 0 -354.5 -146t-147.5 -355q0 -211 146.5 -356.5t355.5 -145.5t355.5 148.5t146.5 353.5z" glyph-name="OE" horiz-adv-x="2248" unicode="Œ"/><glyph d="M74 512q0 217 155.5 372.5t372.5 155.5q233 0 387 -174q152 174 389 174q215 0 360.5 -151.5t162.5 -407.5q0 -53 -54 -53h-721q37 -94 113 -143t164 -49q117 0 233 81q47 25 76 -12l90 -106q35 -45 -8 -76q-180 -139 -395 -139q-246 0 -404 182q-156 -182 -393 -182 q-217 0 -372.5 155.5t-155.5 372.5zM1130 633h482q-16 78 -81 132t-159 54q-90 0 -158 -52t-84 -134zM344 512q0 -109 76 -184.5t182.5 -75.5t183 77t76.5 183t-75.5 182t-184.5 76q-106 0 -182 -76t-76 -182z" glyph-name="oe" horiz-adv-x="1972" unicode="œ"/><glyph d="M356 1653l-47 94q-25 47 23 72l313 168q47 25 74 -23l51 -92q29 -47 -20 -74l-320 -170q-49 -26 -74 25zM1094 61q16 -27 6 -44t-41 -17h-193q-41 0 -61 37l-326 567h-98v-551q0 -53 -53 -53h-162q-55 0 -55 53v1409q0 53 55 54h414q188 0 321 -133.5t133 -321.5 q0 -141 -77.5 -256t-202.5 -166zM381 1247v-375h199q78 0 133 54.5t55 134.5q0 78 -55.5 132t-132.5 54h-199z" glyph-name="Racute" horiz-adv-x="1181" unicode="Ŕ"/><glyph d="M231 1171l-47 95q-25 45 21 71l315 168q47 25 72 -22l53 -92q29 -47 -20 -74l-320 -170q-49 -27 -74 24zM616 1024q55 0 56 -53v-148q0 -53 -56 -53h-71q-74 0 -125 -47t-51 -121v-549q0 -53 -54 -53h-159q-53 0 -54 53v918q0 53 54 53h112q45 0 45 -47v-19q82 66 213 66 h90z" glyph-name="racute" horiz-adv-x="720" unicode="ŕ"/><glyph d="M371 1638l-197 226q-20 23 -12 40t37 17h147q35 0 55 -27l76 -88l72 88q20 27 57 27h158q29 0 37 -17.5t-10 -39.5l-199 -226q-18 -25 -55 -24h-111q-37 -1 -55 24zM1094 61q16 -27 6 -44t-41 -17h-193q-41 0 -61 37l-326 567h-98v-551q0 -53 -53 -53h-162q-55 0 -55 53 v1409q0 53 55 54h414q188 0 321 -133.5t133 -321.5q0 -141 -77.5 -256t-202.5 -166zM381 1247v-375h199q78 0 133 54.5t55 134.5q0 78 -55.5 132t-132.5 54h-199z" glyph-name="Rcaron" horiz-adv-x="1181" unicode="Ř"/><glyph d="M301 1133q-37 0 -55 24l-197 225q-20 23 -12 40.5t37 17.5h147q35 0 55 -27l76 -88l72 88q20 27 57 27h158q29 0 37 -17.5t-10 -40.5l-199 -225q-18 -25 -55 -24h-111zM616 1024q55 0 56 -53v-148q0 -53 -56 -53h-71q-74 0 -125 -47t-51 -121v-549q0 -53 -54 -53h-159 q-53 0 -54 53v918q0 53 54 53h112q45 0 45 -47v-19q82 66 213 66h90z" glyph-name="rcaron" horiz-adv-x="720" unicode="ř"/><glyph d="M381 1657l-47 94q-23 47 20 72l316 170q47 25 71 -23l54 -94q27 -45 -21 -72l-319 -170q-47 -26 -74 23zM543 -16q-205 0 -414 155q-47 33 -23 78l82 143q29 47 74 17q145 -102 266 -103q80 0 131.5 44t51.5 114q0 33 -14.5 62.5t-33 50t-56.5 45t-62.5 38t-77.5 39 t-76 38.5q-307 166 -295 421q8 182 142.5 295t326.5 107q152 -2 289 -86q47 -27 16 -70l-77 -119q-27 -39 -72 -18q-84 47 -166 47q-80 0 -132 -45t-52 -115q0 -20 6 -38.5t14 -33t26.5 -30.5t30 -25.5t40 -25t41 -21.5t46 -22.5t46.5 -22.5q379 -174 378 -473 q0 -188 -129.5 -317t-326.5 -129z" glyph-name="Sacute" horiz-adv-x="1077" unicode="Ś"/><glyph d="M311 1174l-47 96q-25 45 21 69l313 170q49 27 74 -22l53 -92q27 -47 -23 -74l-317 -170q-47 -26 -74 23zM711 899l-58 -98q-25 -47 -73 -21q-90 41 -138 41q-43 0 -69.5 -18.5t-26.5 -48.5q0 -18 12 -33q20 -25 144 -72q133 -47 216 -132t83 -206q0 -135 -104.5 -231 t-270.5 -96q-154 0 -309 88q-43 25 -21 71l58 119q20 43 71 25q115 -55 199 -56q49 0 75.5 22.5t26.5 55.5q0 35 -37.5 61.5t-138.5 67.5q-49 20 -80.5 37t-82 53.5t-77 91t-26.5 123.5q0 133 99.5 215t248.5 82q127 0 258 -67q48 -25 21 -74z" glyph-name="sacute" horiz-adv-x="858" unicode="ś"/><glyph d="M999 430q0 -166 -101 -288t-265 -150v-41q68 -27 110.5 -88.5t42.5 -134.5q0 -96 -69.5 -165t-165.5 -69q-80 0 -145.5 49t-83.5 131q-4 20 8 33.5t35 13.5h79q25 0 45 -30q23 -35 62 -35q29 0 50.5 22.5t21.5 51t-20.5 50t-51.5 21.5h-39q-45 0 -45 43v146 q-164 20 -338 149q-47 33 -23 78l82 143q29 47 74 17q145 -102 266 -103q80 0 131.5 44t51.5 114q0 33 -14.5 62.5t-33 50t-56.5 45t-62.5 38t-77.5 39t-76 38.5q-307 166 -295 421q8 182 142.5 295t326.5 107q152 -2 289 -86q47 -27 16 -70l-77 -119q-27 -39 -72 -18 q-84 47 -166 47q-80 0 -132 -45t-52 -115q0 -20 6 -38.5t14 -33t26.5 -30.5t30 -25.5t40 -25t41 -21.5t46 -22.5t46.5 -22.5q378 -174 378 -473z" glyph-name="Scedilla" horiz-adv-x="1077" unicode="Ş"/><glyph d="M801 311q0 -113 -74 -200.5t-199 -116.5v-43q68 -27 111 -88.5t43 -134.5q0 -96 -69.5 -165t-166.5 -69q-80 0 -146.5 50t-84.5 130q-4 20 8.5 33.5t34.5 13.5h80q25 0 45 -30q23 -35 61 -35q29 0 50.5 22.5t21.5 51t-20.5 50t-51.5 21.5h-36q-45 0 -46 43v144 q-125 16 -245 84q-43 25 -21 71l58 119q20 43 71 25q115 -55 199 -56q49 0 75.5 22.5t26.5 55.5q0 35 -37.5 61.5t-138.5 67.5q-49 20 -80.5 37t-82 53.5t-77 91t-26.5 123.5q0 133 99.5 215t248.5 82q127 0 258 -67q47 -25 21 -74l-58 -98q-25 -47 -73 -21q-90 41 -138 41 q-43 0 -69.5 -18.5t-26.5 -49t30 -49t109 -49.5q10 -4 17 -6q133 -47 216 -132t83 -206z" glyph-name="scedilla" horiz-adv-x="858" unicode="ş"/><glyph d="M815 1868l-199 -223q-18 -25 -55 -25h-110q-37 0 -56 25l-196 223q-20 25 -12 42t36 17h148q35 0 55 -26l76 -89l71 86q23 29 58 29h157q29 0 37 -17t-10 -42zM543 -16q-205 0 -414 155q-47 33 -23 78l82 143q29 47 74 17q145 -102 266 -103q80 0 131.5 44t51.5 114 q0 33 -14.5 62.5t-33 50t-56.5 45t-62.5 38t-77.5 39t-76 38.5q-307 166 -295 421q8 182 142.5 295t326.5 107q152 -2 289 -86q47 -27 16 -70l-77 -119q-27 -39 -72 -18q-84 47 -166 47q-80 0 -132 -45t-52 -115q0 -20 6 -38.5t14 -33t26.5 -30.5t30 -25.5t40 -25t41 -21.5 t46 -22.5t46.5 -22.5q379 -174 378 -473q0 -188 -129.5 -317t-326.5 -129z" glyph-name="Scaron" horiz-adv-x="1077" unicode="Š"/><glyph d="M743 1384l-196 -223q-18 -25 -55 -24h-111q-37 0 -55 24l-199 223q-18 25 -10 42.5t37 17.5h147q35 0 55 -27l76 -88l72 86q23 29 57 29h158q29 0 36.5 -17.5t-12.5 -42.5zM711 899l-58 -98q-25 -47 -73 -21q-90 41 -138 41q-43 0 -69.5 -18.5t-26.5 -48.5q0 -18 12 -33 q20 -25 144 -72q133 -47 216 -132t83 -206q0 -135 -104.5 -231t-270.5 -96q-154 0 -309 88q-43 25 -21 71l58 119q20 43 71 25q115 -55 199 -56q49 0 75.5 22.5t26.5 55.5q0 35 -37.5 61.5t-138.5 67.5q-49 20 -80.5 37t-82 53.5t-77 91t-26.5 123.5q0 133 99.5 215 t248.5 82q127 0 258 -67q48 -25 21 -74z" glyph-name="scaron" horiz-adv-x="858" unicode="š"/><glyph d="M954 1516q53 0 54 -54v-162q0 -53 -54 -53h-286v-1194q0 -53 -54 -53v-49q68 -27 111 -88.5t43 -134.5q0 -96 -68.5 -165t-167.5 -69q-80 0 -145 49t-84 131q-4 20 8.5 33.5t34.5 13.5h80q25 0 45 -30q23 -35 61 -35q29 0 50.5 22.5t21.5 51t-20.5 50t-51.5 21.5h-38 q-43 0 -43 43v156q-49 4 -50 53v1194h-286q-53 0 -54 53v162q0 53 54 54h839z" glyph-name="Tcommaaccent" horiz-adv-x="1058" unicode="Ţ"/><glyph d="M633 791h-262v-394q0 -55 35.5 -92t91.5 -37h125q53 0 53 -53v-162q0 -53 -53 -53h-105v-49q68 -27 111 -88.5t43 -134.5q0 -96 -70 -165t-166 -69q-80 0 -145.5 49t-83.5 131q-4 20 8 33.5t35 13.5h80q25 0 45 -30q23 -35 61 -35q29 0 50.5 22.5t21.5 51t-20.5 50 t-51.5 21.5h-39q-45 0 -45 43v174q-250 68 -250 381v897q0 53 54 54h161q53 0 54 -54v-272h262q51 0 51 -51v-131q0 -51 -51 -51z" glyph-name="tcommaaccent" horiz-adv-x="735" unicode="ţ"/><glyph d="M836 1620h-455q-45 0 -45 45v119q0 47 45 47h455q45 0 45 -47v-119q0 -45 -45 -45zM606 -12q-205 0 -349 144t-144 349v981q0 53 53 54h160q53 0 53 -54v-981q0 -92 66.5 -158.5t160.5 -66.5t159.5 66.5t65.5 158.5v981q0 53 54 54h162q53 0 53 -54v-981 q0 -205 -144.5 -349t-349.5 -144z" glyph-name="Umacron" unicode="Ū"/><glyph d="M774 1137h-452q-47 0 -48 45v118q0 47 48 48h452q47 0 47 -48v-118q0 -45 -47 -45zM547 -16q-184 0 -314.5 130t-130.5 314v543q0 53 54 53h159q53 0 54 -53v-543q0 -72 52 -125t126 -53q72 0 124 53t52 125v543q0 53 53 53h160q55 0 55 -53v-543q0 -184 -131 -314 t-313 -130z" glyph-name="umacron" horiz-adv-x="1071" unicode="ū"/><glyph d="M602 2062q92 0 156.5 -64.5t64.5 -156.5t-64.5 -156.5t-156.5 -64.5t-157.5 64.5t-65.5 156.5t65.5 156.5t157.5 64.5zM602 1919q-33 0 -55.5 -22.5t-22.5 -55.5t22.5 -55.5t55.5 -22.5t55.5 22.5t22.5 55.5t-22.5 55.5t-55.5 22.5zM606 -12q-205 0 -349 144t-144 349 v981q0 53 53 54h160q53 0 53 -54v-981q0 -92 66.5 -158.5t160.5 -66.5t159.5 66.5t65.5 158.5v981q0 53 54 54h162q53 0 53 -54v-981q0 -205 -144.5 -349t-349.5 -144z" glyph-name="Uring" unicode="Ů"/><glyph d="M541 1579q92 0 157.5 -64.5t65.5 -156.5t-65.5 -156.5t-157.5 -64.5q-90 0 -156 64.5t-66 156.5t66 156.5t156 64.5zM541 1436q-31 0 -53.5 -22.5t-22.5 -55.5t22.5 -55.5t53.5 -22.5q33 0 56.5 22.5t23.5 55.5t-23.5 55.5t-56.5 22.5zM547 -16q-184 0 -314.5 130 t-130.5 314v543q0 53 54 53h159q53 0 54 -53v-543q0 -72 52 -125t126 -53q72 0 124 53t52 125v543q0 53 53 53h160q55 0 55 -53v-543q0 -184 -131 -314t-313 -130z" glyph-name="uring" horiz-adv-x="1071" unicode="ů"/><glyph d="M408 1614l-62 59q-37 41 -2 78l238 264q35 43 73 4l68 -59q39 -35 4 -74l-242 -268q-38 -43 -77 -4zM735 1614l-61 59q-37 39 -4 78l237 264q39 41 76 4l68 -59q39 -35 4 -74l-244 -268q-37 -43 -76 -4zM606 -12q-205 0 -349 144t-144 349v981q0 53 53 54h160 q53 0 53 -54v-981q0 -92 66.5 -158.5t160.5 -66.5t159.5 66.5t65.5 158.5v981q0 53 54 54h162q53 0 53 -54v-981q0 -205 -144.5 -349t-349.5 -144z" glyph-name="Uhungarumlaut" unicode="Ű"/><glyph d="M348 1130l-61 60q-39 39 -4 78l237 264q39 41 76 4l66 -59q39 -35 4 -74l-242 -268q-37 -44 -76 -5zM676 1130l-62 60q-39 39 -4 78l238 264q37 43 76 4l65 -59q39 -35 4 -74l-241 -268q-37 -44 -76 -5zM547 -16q-184 0 -314.5 130t-130.5 314v543q0 53 54 53h159 q53 0 54 -53v-543q0 -72 52 -125t126 -53q72 0 124 53t52 125v543q0 53 53 53h160q55 0 55 -53v-543q0 -184 -131 -314t-313 -130z" glyph-name="uhungarumlaut" horiz-adv-x="1095" unicode="ű"/><glyph d="M1047 1516q53 0 53 -54v-981q0 -160 -94.5 -289t-241.5 -178q-55 -82 -55 -147q0 -70 50 -105.5t115 -23.5q31 4 44 -17l20 -34q23 -33 -23 -47q-55 -18 -102 -19q-102 0 -172 71.5t-70 176.5q0 57 23 119q-201 4 -341 148.5t-140 344.5v981q0 53 53 54h160q53 0 53 -54 v-981q0 -92 66.5 -158.5t160.5 -66.5t159.5 66.5t65.5 158.5v981q0 53 54 54h162z" glyph-name="Uogonek" unicode="Ų"/><glyph d="M991 428q0 -135 -74.5 -245.5t-195.5 -162.5q-59 -86 -59 -153q0 -70 50 -105.5t115 -23.5q31 4 43 -17l21 -34q23 -33 -23 -47q-55 -18 -102 -19q-102 0 -172 71.5t-70 176.5q0 61 21 115q-182 0 -312.5 130t-130.5 314v543q0 53 54 53h159q53 0 54 -53v-543 q0 -72 52 -125t126 -53q72 0 124 53t52 125v543q0 53 53 53h160q55 0 55 -53v-543z" glyph-name="uogonek" horiz-adv-x="1071" unicode="ų"/><glyph d="M1235 1620h-158q-33 0 -57 27l-72 86l-74 -88q-25 -25 -57 -25h-145q-29 0 -38 17.5t11 39.5l199 224q20 27 53 26h111q35 0 55 -26l199 -224q20 -23 11 -40t-38 -17zM1782 1516q27 0 39 -16.5t4 -43.5l-395 -1413q-12 -43 -58 -43h-127q-47 0 -57 45l-234 879l-229 -879 q-12 -45 -59 -45h-125q-45 0 -58 43l-395 1413q-8 27 4 43.5t39 16.5h188q45 0 58 -43l250 -887l229 872q8 35 49 35h103q37 0 49 -35l229 -872l248 887q12 43 57 43h191z" glyph-name="Wcircumflex" horiz-adv-x="1902" unicode="Ŵ"/><glyph d="M1128 1137h-157q-37 0 -58 26l-71 86l-76 -88q-20 -25 -55 -24h-148q-29 0 -37 17t11 40l198 225q23 25 56 25h110q33 0 55 -25l197 -225q20 -23 12 -40t-37 -17zM758 956q12 33 49 33l84 -2q37 0 49 -33l203 -516l205 545q14 41 57 41h176q61 0 39 -59l-358 -924 q-16 -41 -60 -41h-94q-43 0 -57 41l-201 526l-203 -526q-16 -41 -59 -41h-92q-43 0 -60 41l-362 924q-20 59 41 59h178q43 0 57 -41l205 -545z" glyph-name="wcircumflex" horiz-adv-x="1689" unicode="ŵ"/><glyph d="M961 1620h-158q-37 0 -58 27l-71 86l-76 -88q-20 -25 -55 -25h-148q-29 0 -37 17.5t11 39.5l198 224q20 27 56 26h110q35 0 55 -26l199 -224q18 -23 10.5 -40t-36.5 -17zM1229 1516q31 0 41 -17.5t-4 -44.5l-447 -766v-635q0 -53 -53 -53h-160q-53 0 -53 53v635l-444 766 q-16 27 -6 44.5t40 17.5h211q41 0 64 -35l268 -477l268 477q23 35 62 35h213z" glyph-name="Ycircumflex" horiz-adv-x="1361" unicode="Ŷ"/><glyph d="M831 1137h-157q-33 0 -58 26l-69 86l-76 -88q-25 -25 -57 -24h-146q-29 0 -38 17t12 40l198 225q23 25 56 25h110q33 0 53 -25l199 -225q20 -23 11 -40t-38 -17zM1020 1024q63 0 43 -59l-401 -969q-133 -328 -439 -412q-49 -12 -65 35l-47 139q-20 49 32 66 q203 70 281 291l-348 850q-23 59 41 59h182q47 0 61 -39l207 -510l207 510q18 39 60 39h186z" glyph-name="ycircumflex" horiz-adv-x="1167" unicode="ŷ"/><glyph d="M641 1735q0 -47 -34 -81t-83 -34t-82.5 34t-33.5 81q0 49 33.5 83.5t82.5 34.5t83 -34.5t34 -83.5zM946 1735q0 -47 -33.5 -81t-81.5 -34q-49 0 -82.5 34t-33.5 81q0 49 33.5 83.5t82.5 34.5q47 0 81 -34.5t34 -83.5zM1229 1516q31 0 41 -17.5t-4 -44.5l-447 -766v-635 q0 -53 -53 -53h-160q-53 0 -53 53v635l-444 766q-16 27 -6 44.5t40 17.5h211q41 0 64 -35l268 -477l268 477q23 35 62 35h213z" glyph-name="Ydieresis" horiz-adv-x="1361" unicode="Ÿ"/><glyph d="M457 1669l-47 94q-25 47 22 72l313 168q47 25 74 -23l51 -92q29 -47 -20 -73l-320 -170q-48 -27 -73 24zM1124 268q53 0 54 -53v-162q0 -53 -54 -53h-962q-53 0 -53 53v180q0 31 22 66l676 967h-682q-53 0 -53 53v143q0 53 53 54h954q55 0 56 -54v-157q0 -33 -23 -66 l-678 -971h690z" glyph-name="Zacute" horiz-adv-x="1239" unicode="Ź"/><glyph d="M348 1174l-49 96q-23 47 23 69l313 170q47 25 74 -22l53 -92q25 -49 -23 -74l-317 -170q-47 -26 -74 23zM864 266q53 0 54 -53v-160q0 -53 -54 -53h-733q-53 0 -53 53v174q0 39 28 66l469 491h-452q-51 0 -51 52v137q0 51 51 51h721q53 0 53 -53v-150q0 -41 -27 -65 l-450 -490h444z" glyph-name="zacute" horiz-adv-x="978" unicode="ź"/><glyph d="M694 1747q0 -47 -33.5 -82t-83 -35t-83 35t-33.5 82t33.5 82t83 35t83 -35t33.5 -82zM1124 268q53 0 54 -53v-162q0 -53 -54 -53h-962q-53 0 -53 53v180q0 31 22 66l676 967h-682q-53 0 -53 53v143q0 53 53 54h954q55 0 56 -54v-157q0 -33 -23 -66l-678 -971h690z" glyph-name="Zdotaccent" horiz-adv-x="1239" unicode="Ż"/><glyph d="M584 1251q0 -47 -34 -80.5t-83 -33.5q-47 0 -81 33.5t-34 80.5q0 49 34 84t81 35q49 0 83 -35t34 -84zM864 266q53 0 54 -53v-160q0 -53 -54 -53h-733q-53 0 -53 53v174q0 39 28 66l469 491h-452q-51 0 -51 52v137q0 51 51 51h721q53 0 53 -53v-150q0 -41 -27 -65 l-450 -490h444z" glyph-name="zdotaccent" horiz-adv-x="978" unicode="ż"/><glyph d="M891 1880l-199 -225q-18 -25 -55 -25h-111q-37 0 -55 25l-197 225q-20 23 -12 40t37 17h147q35 0 56 -26l76 -88l71 88q20 27 58 26h157q29 0 38 -17t-11 -40zM1124 268q53 0 54 -53v-162q0 -53 -54 -53h-962q-53 0 -53 53v180q0 31 22 66l676 967h-682q-53 0 -53 53v143 q0 53 53 54h954q55 0 56 -54v-157q0 -33 -23 -66l-678 -971h690z" glyph-name="Zcaron" horiz-adv-x="1239" unicode="Ž"/><glyph d="M780 1384l-196 -223q-18 -25 -56 -24h-110q-37 0 -56 24l-198 223q-18 25 -10 42.5t36 17.5h148q35 0 55 -27l76 -88l72 86q23 29 57 29h158q29 0 36.5 -17.5t-12.5 -42.5zM864 266q53 0 54 -53v-160q0 -53 -54 -53h-733q-53 0 -53 53v174q0 39 28 66l469 491h-452 q-51 0 -51 52v137q0 51 51 51h721q53 0 53 -53v-150q0 -41 -27 -65l-450 -490h444z" glyph-name="zcaron" horiz-adv-x="978" unicode="ž"/><glyph d="M700 1165q-53 0 -91 -37.5t-38 -93.5v-188h238q51 0 51 -51v-129q0 -53 -51 -54h-238v-655q0 -172 -107.5 -269.5t-260.5 -97.5h-78q-53 0 -53 54v163q0 53 53 54h78q41 0 70.5 27.5t29.5 68.5v1077q0 186 110.5 293t286.5 107h107q53 0 53 -54v-159q0 -55 -53 -56h-107z " glyph-name="florin" horiz-adv-x="921" unicode="ƒ"/><glyph d="M508 72q0 -332 -277 -473q-51 -29 -77 18l-82 137q-29 43 22 72q143 92 144 246v899q0 53 53 53h162q55 0 55 -53v-899z" glyph-name="uni0237" horiz-adv-x="595" unicode="ȷ"/><glyph d="M721 1167h-158q-37 0 -57 27l-72 88l-74 -88q-25 -27 -57 -27h-145q-29 0 -38 17.5t11 40.5l199 225q18 25 53 25h111q37 0 55 -25l199 -225q20 -23 11 -40.5t-38 -17.5z" glyph-name="circumflex" horiz-adv-x="878" unicode="ˆ"/><glyph d="M748 1417l-199 -225q-18 -25 -55 -25h-111q-35 0 -53 25l-199 225q-20 23 -11 40.5t38 17.5h145q33 0 57 -27l74 -88l72 88q20 27 57 27h158q29 0 38 -17.5t-11 -40.5z" glyph-name="caron" horiz-adv-x="878" unicode="ˇ"/><glyph d="M340 1165q-109 0 -183.5 66.5t-74.5 163.5v39q0 47 47 47h72q45 0 45 -45v-21q0 -37 27.5 -61.5t66.5 -24.5q37 0 64.5 24.5t27.5 61.5v21q0 45 45 45l74 2q47 0 47 -47v-41q0 -96 -74.5 -163t-183.5 -67z" glyph-name="breve" horiz-adv-x="677" unicode="˘"/><glyph d="M313 1284q0 -47 -33.5 -82t-82.5 -35q-47 0 -81 35t-34 82t34 82t81 35q49 0 82.5 -35t33.5 -82z" glyph-name="dotaccent" horiz-adv-x="395" unicode="˙"/><glyph d="M303 1610q92 0 156.5 -64.5t64.5 -156.5q0 -90 -64.5 -156t-156.5 -66q-90 0 -155.5 65.5t-65.5 156.5q0 92 65.5 156.5t155.5 64.5zM303 1466q-33 0 -55.5 -22.5t-22.5 -55t22.5 -55t55.5 -22.5t55.5 22.5t22.5 55t-22.5 55t-55.5 22.5z" glyph-name="ring" horiz-adv-x="606" unicode="˚"/><glyph d="M324 -391q-102 0 -172 71.5t-70 176.5q0 86 41 157h162q-63 -82 -64 -159q0 -70 49 -106t115 -23q31 4 43 -17l21 -35q23 -33 -23 -47q-55 -18 -102 -18z" glyph-name="ogonek" horiz-adv-x="548" unicode="˛"/><glyph d="M211 1192l-92 63q-43 29 -10 64q86 109 213 108q49 0 111.5 -25.5t94.5 -25.5q51 0 90 39q31 35 64 12l100 -61q43 -27 11 -66q-100 -123 -236 -122q-63 0 -122.5 27.5t-82.5 27.5q-35 0 -78 -31q-34 -30 -63 -10z" glyph-name="tilde" horiz-adv-x="905" unicode="˜"/><glyph d="M195 1163l-62 60q-37 37 -4 75l240 267q35 39 73 4l68 -60q39 -35 4 -75l-244 -269q-36 -41 -75 -2zM522 1163l-61 60q-41 37 -4 75l237 267q39 39 76 4l66 -60q41 -37 4 -75l-242 -269q-37 -41 -76 -2z" glyph-name="hungarumlaut" horiz-adv-x="847" unicode="˝"/><glyph d="M-227 1182l-320 170q-47 25 -20 73l51 93q29 49 74 22l313 -168q47 -25 23 -72l-48 -94q-24 -51 -73 -24z" glyph-name="gravecomb" horiz-adv-x="0" unicode="̀"/><glyph d="M-399 1206l-47 94q-25 47 22 72l313 168q47 25 74 -22l51 -93q29 -47 -20 -73l-320 -170q-48 -27 -73 24z" glyph-name="acutecomb" horiz-adv-x="0" unicode="́"/><glyph d="M-158 1167h-157q-37 0 -58 27l-71 88l-74 -88q-25 -27 -57 -27h-146q-29 0 -38 17.5t11 40.5l199 225q18 25 53 25h111q37 0 55 -25l199 -225q20 -23 11 -40.5t-38 -17.5z" glyph-name="uni0302" horiz-adv-x="0" unicode="̂"/><glyph d="M-694 1192l-92 63q-43 29 -11 64q86 109 213 108q49 0 111.5 -25.5t95.5 -25.5q51 0 90 39q31 35 64 12l100 -61q43 -27 10 -66q-100 -123 -235 -122q-63 0 -122.5 27.5t-82.5 27.5q-35 0 -78 -31q-34 -30 -63 -10z" glyph-name="tildecomb" horiz-adv-x="0" unicode="̃"/><glyph d="M-127 1167h-453q-47 0 -47 47v117q0 47 47 47h453q45 0 45 -47v-117q0 -47 -45 -47z" glyph-name="uni0304" horiz-adv-x="0" unicode="̄"/><glyph d="M-337.5 1165q-108.5 0 -183.5 66.5t-75 163.5v39q0 47 47 47h72q45 0 45 -45v-21q0 -37 27.5 -61.5t66.5 -24.5q37 0 64.5 24.5t27.5 61.5v21q0 45 45 45l74 2q47 0 47 -47v-41q0 -96 -74.5 -163t-183 -67z" glyph-name="uni0306" horiz-adv-x="0" unicode="̆"/><glyph d="M-82 1284q0 -47 -34 -82t-83 -35q-47 0 -80.5 35t-33.5 82t33.5 82t80.5 35q49 0 83 -35t34 -82z" glyph-name="uni0307" horiz-adv-x="0" unicode="̇"/><glyph d="M-389 1284q0 -47 -34 -82t-83 -35q-47 0 -81 35t-34 82t34 82t81 35q49 0 83 -35t34 -82zM-82 1284q0 -47 -34 -82t-83 -35q-47 0 -80.5 35t-33.5 82t33.5 82t80.5 35q49 0 83 -35t34 -82z" glyph-name="uni0308" horiz-adv-x="0" unicode="̈"/><glyph d="M-303 1610q92 0 156.5 -64.5t64.5 -156.5q0 -90 -64.5 -156t-156.5 -66q-90 0 -155.5 65.5t-65.5 156.5q0 92 65.5 156.5t155.5 64.5zM-303 1466q-33 0 -55.5 -22.5t-22.5 -55t22.5 -55t55.5 -22.5t55.5 22.5t22.5 55t-22.5 55t-55.5 22.5z" glyph-name="uni030A" horiz-adv-x="0" unicode="̊"/><glyph d="M-653 1163l-62 60q-37 37 -4 75l240 267q35 39 73 4l68 -60q39 -35 4 -75l-244 -269q-36 -41 -75 -2zM-326 1163l-61 60q-41 37 -4 75l237 267q39 39 76 4l66 -60q41 -37 4 -75l-242 -269q-37 -41 -76 -2z" glyph-name="uni030B" horiz-adv-x="0" unicode="̋"/><glyph d="M-131 1417l-199 -225q-18 -25 -55 -25h-111q-35 0 -53 25l-199 225q-20 23 -11 40.5t38 17.5h146q33 0 57 -27l74 -88l71 88q20 27 58 27h157q29 0 38 -17.5t-11 -40.5z" glyph-name="uni030C" horiz-adv-x="0" unicode="̌"/><glyph d="M-317 -506q-80 0 -145.5 49t-84.5 131q-4 20 8.5 33.5t34.5 13.5h80q25 0 45 -30q23 -35 62 -35q29 0 50 22.5t21 51t-20.5 50t-50.5 21.5h-39q-45 0 -45 43v181h165v-74q68 -27 111 -88.5t43 -134.5q0 -96 -69.5 -165t-165.5 -69z" glyph-name="uni0327" horiz-adv-x="0" unicode="̧"/><glyph d="M-225 -391q-102 0 -172 71.5t-70 176.5q0 86 41 157h162q-63 -82 -64 -159q0 -70 49.5 -106t114.5 -23q31 4 43 -17l21 -35q23 -33 -23 -47q-55 -18 -102 -18z" glyph-name="uni0328" horiz-adv-x="0" unicode="̨"/><glyph d="M-127 459h-453q-47 0 -47 45v119q0 47 47 47h453q45 0 45 -47v-119q0 -45 -45 -45z" glyph-name="uni0335" horiz-adv-x="0" unicode="̵"/><glyph d="M-838 53l551 1426q12 37 54 37h114q27 0 37 -14.5t0 -39.5l-553 -1425q-12 -37 -53 -37h-113q-25 0 -36 14t-1 39z" glyph-name="uni0338" horiz-adv-x="0" unicode="̸"/><glyph d="M969 53v1194h-600v-1194q0 -53 -54 -53h-159q-53 0 -54 53v1409q0 53 54 54h1026q53 0 53 -54v-1409q0 -53 -53 -53h-160q-53 0 -53 53z" glyph-name="Pi" horiz-adv-x="1327" unicode="Π"/><glyph d="M1755 242q53 0 53 -54v-135q0 -53 -53 -53h-538q-53 0 -54 53v160q0 41 37 63q117 72 184.5 196t67.5 263q0 219 -148.5 375t-357.5 156q-211 0 -358.5 -156t-147.5 -375q0 -141 67.5 -264t182.5 -195q39 -20 39 -63v-160q0 -53 -53 -53h-541q-53 0 -53 53v135 q0 53 53 54h205q-170 223 -170 493q0 332 227.5 566.5t548.5 234.5q319 0 546.5 -234.5t227.5 -566.5q0 -270 -170 -493h205z" glyph-name="Omega" horiz-adv-x="1890" unicode="Ω"/><glyph d="M723 971q0 53 55 53h160q53 0 53 -53v-543q0 -184 -130 -314t-314 -130q-100 0 -178 45v-385q0 -53 -54 -54h-159q-53 0 -54 54v1327q0 53 54 53h159q53 0 54 -53v-543q0 -74 52 -125t126 -51q72 0 124 51t52 125v543z" glyph-name="mu" horiz-adv-x="1062" unicode="μ"/><glyph d="M1210 264h66q53 0 53 -53v-158q0 -53 -53 -53l-66 -2q-150 0 -256 106.5t-106 257.5v396h-258l-162 -711q-10 -47 -59 -47h-166q-59 0 -47 59l161 699h-161q-53 0 -54 53v160q0 53 54 53h903q53 0 53 -53v-609q0 -41 28.5 -69.5t69.5 -28.5z" glyph-name="pi" horiz-adv-x="1400" unicode="π"/><glyph d="M1001 1634l-319 170q-45 27 -20 72l53 94q25 49 73 23l314 -170q43 -25 20 -72l-47 -94q-27 -50 -74 -23zM1782 1516q27 0 39 -16.5t4 -43.5l-395 -1413q-12 -43 -58 -43h-127q-47 0 -57 45l-234 879l-229 -879q-12 -45 -59 -45h-125q-45 0 -58 43l-395 1413 q-8 27 4 43.5t39 16.5h188q45 0 58 -43l250 -887l229 872q8 35 49 35h103q37 0 49 -35l229 -872l248 887q12 43 57 43h191z" glyph-name="Wgrave" horiz-adv-x="1902" unicode="Ẁ"/><glyph d="M895 1151l-320 170q-47 25 -22 74l53 92q27 47 74 22l313 -170q45 -23 23 -69l-49 -96q-27 -50 -72 -23zM758 956q12 33 49 33l84 -2q37 0 49 -33l203 -516l205 545q14 41 57 41h176q61 0 39 -59l-358 -924q-16 -41 -60 -41h-94q-43 0 -57 41l-201 526l-203 -526 q-16 -41 -59 -41h-92q-43 0 -60 41l-362 924q-20 59 41 59h178q43 0 57 -41l205 -545z" glyph-name="wgrave" horiz-adv-x="1689" unicode="ẁ"/><glyph d="M829 1657l-47 94q-23 47 21 72l315 170q47 25 72 -23l53 -94q27 -45 -20 -72l-320 -170q-47 -26 -74 23zM1782 1516q27 0 39 -16.5t4 -43.5l-395 -1413q-12 -43 -58 -43h-127q-47 0 -57 45l-234 879l-229 -879q-12 -45 -59 -45h-125q-45 0 -58 43l-395 1413q-8 27 4 43.5 t39 16.5h188q45 0 58 -43l250 -887l229 872q8 35 49 35h103q37 0 49 -35l229 -872l248 887q12 43 57 43h191z" glyph-name="Wacute" horiz-adv-x="1902" unicode="Ẃ"/><glyph d="M723 1174l-49 96q-25 45 22 69l314 170q47 25 73 -22l52 -92q27 -49 -21 -74l-319 -170q-49 -26 -72 23zM758 956q12 33 49 33l84 -2q37 0 49 -33l203 -516l205 545q14 41 57 41h176q61 0 39 -59l-358 -924q-16 -41 -60 -41h-94q-43 0 -57 41l-201 526l-203 -526 q-16 -41 -59 -41h-92q-43 0 -60 41l-362 924q-20 59 41 59h178q43 0 57 -41l205 -545z" glyph-name="wacute" horiz-adv-x="1689" unicode="ẃ"/><glyph d="M915 1735q0 -47 -33.5 -81t-82.5 -34q-47 0 -81 34t-34 81q0 49 34 83.5t81 34.5q49 0 82.5 -34.5t33.5 -83.5zM1223 1735q0 -47 -34 -81t-83 -34q-47 0 -81 34t-34 81q0 49 34 83.5t81 34.5q49 0 83 -34.5t34 -83.5zM1782 1516q27 0 39 -16.5t4 -43.5l-395 -1413 q-12 -43 -58 -43h-127q-47 0 -57 45l-234 879l-229 -879q-12 -45 -59 -45h-125q-45 0 -58 43l-395 1413q-8 27 4 43.5t39 16.5h188q45 0 58 -43l250 -887l229 872q8 35 49 35h103q37 0 49 -35l229 -872l248 887q12 43 57 43h191z" glyph-name="Wdieresis" horiz-adv-x="1902" unicode="Ẅ"/><glyph d="M809 1251q0 -47 -34 -80.5t-83 -33.5t-83 33.5t-34 80.5q0 49 34 84t83 35t83 -35t34 -84zM1114 1251q0 -47 -33.5 -80.5t-83.5 -33.5q-47 0 -80.5 33.5t-33.5 80.5q0 49 33.5 84t80.5 35q49 0 83 -35t34 -84zM758 956q12 33 49 33l84 -2q37 0 49 -33l203 -516l205 545 q14 41 57 41h176q61 0 39 -59l-358 -924q-16 -41 -60 -41h-94q-43 0 -57 41l-201 526l-203 -526q-16 -41 -59 -41h-92q-43 0 -60 41l-362 924q-20 59 41 59h178q43 0 57 -41l205 -545z" glyph-name="wdieresis" horiz-adv-x="1689" unicode="ẅ"/><glyph d="M727 1634l-319 170q-45 25 -21 72l51 94q27 47 74 23l313 -170q47 -25 23 -72l-49 -94q-23 -50 -72 -23zM1229 1516q31 0 41 -17.5t-4 -44.5l-447 -766v-635q0 -53 -53 -53h-160q-53 0 -53 53v635l-444 766q-16 27 -6 44.5t40 17.5h211q41 0 64 -35l268 -477l268 477 q23 35 62 35h213z" glyph-name="Ygrave" horiz-adv-x="1361" unicode="Ỳ"/><glyph d="M598 1151l-317 170q-47 25 -23 74l53 92q25 49 74 22l313 -170q45 -25 21 -69l-47 -96q-27 -50 -74 -23zM1020 1024q63 0 43 -59l-401 -969q-133 -328 -439 -412q-49 -12 -65 35l-47 139q-20 49 32 66q203 70 281 291l-348 850q-23 59 41 59h182q47 0 61 -39l207 -510 l207 510q18 39 60 39h186z" glyph-name="ygrave" horiz-adv-x="1167" unicode="ỳ"/><glyph d="M1335 481h-1179q-53 0 -54 54v157q0 53 54 53h1179q55 0 56 -53v-157q-1 -54 -56 -54z" glyph-name="endash" horiz-adv-x="1490" unicode="–"/><glyph d="M229 1114q-51 0 -59 47l-74 295q-8 27 5.5 43.5t41.5 16.5h111q49 0 59 -48l76 -294q12 -59 -45 -60h-115z" glyph-name="quoteleft" horiz-adv-x="475" unicode="‘"/><glyph d="M305 1161q-8 -47 -57 -47h-115q-61 0 -45 60l74 294q12 47 59 48h113q59 0 47 -60z" glyph-name="quoteright" horiz-adv-x="475" unicode="’"/><glyph d="M229 1114q-51 0 -59 47l-74 295q-8 27 5.5 43.5t41.5 16.5h111q49 0 59 -48l76 -294q12 -59 -45 -60h-115zM543 1114q-51 0 -60 47l-73 295q-16 59 47 60h110q49 0 60 -48l75 -294q12 -59 -45 -60h-114z" glyph-name="quotedblleft" horiz-adv-x="788" unicode="“"/><glyph d="M305 1161q-8 -47 -57 -47h-115q-61 0 -45 60l74 294q12 47 59 48h113q59 0 47 -60zM618 1161q-8 -47 -57 -47h-115q-59 0 -47 60l76 294q10 47 60 48h112q61 0 45 -60z" glyph-name="quotedblright" horiz-adv-x="788" unicode="”"/><glyph d="M295 -125q-8 -45 -57 -45h-115q-29 0 -41 15.5t-4 41.5l74 297q12 47 59 47h113q59 0 47 -59zM608 -125q-8 -45 -57 -45h-115q-27 0 -40 15.5t-7 41.5l76 297q10 47 59 47h113q61 0 45 -59z" glyph-name="quotedblbase" horiz-adv-x="778" unicode="„"/><glyph d="M1096 999q53 0 53 -53v-133q0 -53 -53 -53h-371v-1110q0 -53 -55 -53h-131q-55 0 -56 53v1110h-368q-53 0 -54 53v133q0 53 54 53h368v463q0 53 56 54h131q55 0 55 -54v-463h371z" glyph-name="dagger" unicode="†"/><glyph d="M1096 649q53 0 53 -55v-133q0 -53 -53 -53h-371v-758q0 -53 -55 -53h-131q-55 0 -56 53v758h-368q-53 0 -54 53v133q0 55 54 55h368v111h-368q-53 0 -54 53v133q0 53 54 53h368v463q0 53 56 54h131q55 0 55 -54v-463h371q53 0 53 -53v-133q0 -53 -53 -53h-371v-111h371z " glyph-name="daggerdbl" unicode="‡"/><glyph d="M635 504q0 -113 -81 -193t-195.5 -80t-195.5 80t-81 193q0 117 81 196.5t195.5 79.5t195.5 -79.5t81 -196.5z" glyph-name="bullet" horiz-adv-x="716" unicode="•"/><glyph d="M428 823q-143 0 -244.5 101.5t-101.5 245t101.5 246t244.5 102.5t246.5 -102.5t103.5 -246t-103.5 -245t-246.5 -101.5zM514 0h-125q-31 0 -42 18.5t5 44.5l744 1416q23 37 63 37h125q31 0 41 -18.5t-4 -45.5l-743 -1415q-21 -37 -64 -37zM428 1307q-55 0 -94 -40 t-39 -98q0 -53 39 -93t94 -40q57 0 97 40t40 93q0 57 -40 97.5t-97 40.5zM1247.5 -2q-143.5 0 -246 102.5t-102.5 245.5q0 145 101.5 246.5t246.5 101.5q143 0 245.5 -102.5t102.5 -245.5t-102 -245.5t-245.5 -102.5zM2009 -2q-141 0 -244.5 102.5t-103.5 245.5t103.5 245.5 t244.5 102.5q145 0 246.5 -101t101.5 -247q0 -143 -101.5 -245.5t-246.5 -102.5zM1247 481q-57 0 -97 -39t-40 -96q0 -55 41 -95t96.5 -40t95 41t39.5 94q0 57 -40 96t-95 39zM2009 481q-55 0 -95 -39t-40 -96q0 -53 40 -94t95 -41q57 0 96 40t39 95q0 57 -39 96t-96 39z " glyph-name="perthousand" horiz-adv-x="2408" unicode="‰"/><glyph d="M647 205l-92 -90q-37 -37 -76 2l-360 362q-37 41 0 76l358 354q37 41 76 2l92 -84q39 -39 2 -75l-235 -236l237 -235q35 -39 -2 -76z" glyph-name="guilsinglleft" horiz-adv-x="757" unicode="‹"/><glyph d="M109 281l237 235l-233 236q-39 39 0 75l92 84q37 39 76 0l358 -356q37 -35 0 -76l-358 -362q-41 -39 -78 -2l-92 90q-37 37 -2 76z" glyph-name="guilsinglright" horiz-adv-x="757" unicode="›"/><glyph d="M268 0h-133q-31 0 -41 18.5t6 47.5l871 1415q20 35 63 35h131q33 0 43.5 -18.5t-6.5 -47.5l-870 -1415q-21 -35 -64 -35z" glyph-name="fraction" horiz-adv-x="1290" unicode="⁄"/><glyph d="M412 614q-121 0 -210 88.5t-89 212.5v312q0 125 89 213t210 88q125 0 213 -88t88 -213v-312q0 -125 -88 -213t-213 -88zM297 1227v-312q0 -47 34 -81.5t81 -34.5q49 0 82.5 34.5t33.5 81.5v312q0 47 -33.5 81.5t-82.5 34.5q-47 0 -81 -34.5t-34 -81.5z" glyph-name="uni2070" horiz-adv-x="825" unicode="⁰"/><glyph d="M682 942q39 0 39 -41v-94q0 -39 -39 -39h-53v-127q0 -39 -41 -39h-107q-41 0 -41 39v127h-329q-39 0 -39 39v106q0 31 16 50l375 528q18 25 49 25h76q41 0 41 -39v-535h53zM270 942h170v238z" glyph-name="uni2074" horiz-adv-x="792" unicode="⁴"/><glyph d="M369 1243q133 0 224 -92t91 -225t-93 -228.5t-220 -95.5q-135 0 -242 111q-27 27 4 55l86 74q27 23 53 -4q45 -39 98.5 -39t91.5 36.5t38 92.5q0 53 -38 91t-93 38q-33 0 -58 -13q-31 -12 -51 3l-98 71q-25 18 -21 49l49 312q6 37 43 37h345q39 0 38 -39v-109 q0 -39 -38 -39h-226l-12 -90q21 4 29 4z" glyph-name="uni2075" horiz-adv-x="755" unicode="⁵"/><glyph d="M457 1241q121 -10 204.5 -101t81.5 -216q0 -131 -94 -225.5t-227 -92.5q-131 0 -225.5 95.5t-94.5 226.5q0 86 37 147l250 410q18 35 55 14l91 -55q35 -18 14 -53zM422 793q57 -2 96 37.5t39 95t-39 95.5t-94 40q-53 0 -93 -40t-40 -93q0 -55 39 -95t92 -40z" glyph-name="uni2076" horiz-adv-x="835" unicode="⁶"/><glyph d="M582 1352q0 -23 -11 -49l-231 -668q-12 -33 -45 -33h-119q-47 0 -31 45l234 680h-289q-39 0 -39 39v111q0 39 39 39h451q41 0 41 -39v-125z" glyph-name="uni2077" horiz-adv-x="661" unicode="⁷"/><glyph d="M588 1120q96 -86 96 -213q0 -121 -85 -207t-206 -86t-206 86t-85 207q0 129 97 213q-57 68 -58 158q0 104 74 177t176 73q104 0 178 -73t74 -177q0 -88 -55 -158zM393 1354q-33 0 -54.5 -22.5t-21.5 -53.5q0 -33 21.5 -54.5t54.5 -21.5t54.5 21.5t21.5 54.5 q0 31 -21.5 53.5t-54.5 22.5zM391 788q51 0 85 35t34 84q0 47 -35 82t-84 35q-47 0 -81 -35t-34 -82q0 -51 34 -85t81 -34z" glyph-name="uni2078" horiz-adv-x="784" unicode="⁸"/><glyph d="M406 1526q131 0 224 -94.5t93 -227.5q0 -86 -37 -147l-250 -410q-20 -35 -53 -14l-92 55q-33 20 -12 53l90 150q-121 10 -205 101t-82 216q0 133 95.5 226.5t228.5 91.5zM401 1071q55 0 94.5 40t39.5 95.5t-38 95t-93.5 39.5t-95.5 -39.5t-40 -93.5q0 -55 38 -95t95 -42z " glyph-name="uni2079" horiz-adv-x="825" unicode="⁹"/><glyph d="M1319 111q16 -53 -35 -68q-152 -53 -305 -53q-242 0 -434.5 132t-280.5 347h-129q-53 0 -53 53v119q0 53 53 53h76q-2 23 -2 64t2 63h-76q-53 0 -53 53v119q0 53 53 54h131q88 215 281.5 348t435.5 133q145 0 281 -55q47 -18 30 -70l-49 -146q-16 -51 -67 -32 q-111 35 -197 35q-123 0 -228.5 -58.5t-174.5 -154.5h395q53 0 53 -54v-119q0 -53 -53 -53h-490q-6 -35 -6 -65q0 -20 4 -62h492q53 0 53 -53v-119q0 -53 -53 -53h-400q70 -98 173.5 -155.5t226.5 -57.5q109 0 229 43q51 20 68 -33z" glyph-name="Euro" horiz-adv-x="1406" unicode="€"/><glyph d="M502 1516q39 0 39 -39v-80q0 -41 -39 -41h-127v-570q0 -39 -41 -38h-78q-39 0 -39 38v570h-127q-39 0 -39 41v80q0 39 39 39h412zM1358 1516q41 0 41 -39v-691q0 -39 -41 -38h-80q-39 0 -39 38v357l-168 -342q-14 -27 -41 -27h-29q-27 0 -40 27l-170 342v-357 q0 -39 -39 -38h-80q-39 0 -39 38v691q0 39 39 39h59q33 0 47 -29l238 -486l237 486q12 29 45 29h60z" glyph-name="trademark" horiz-adv-x="1468" unicode="™"/><glyph d="M1098 508q0 -221 -146.5 -370.5t-361.5 -149.5q-211 0 -359.5 148.5t-148.5 359.5t148.5 359.5t359.5 148.5q131 0 239 -70v82q0 94 -68.5 162.5t-166.5 68.5h-213q-53 0 -53 56v159q0 53 53 54h176q231 0 385 -138.5t156 -361.5v-508zM590 256q98 0 168.5 69.5t70.5 170 t-70.5 171t-168.5 70.5q-100 0 -171 -70.5t-71 -171t71 -170t171 -69.5z" glyph-name="partialdiff" horiz-adv-x="1198" unicode="∂"/><glyph d="M1137 272q10 -37 10 -65v-154q0 -53 -53 -53h-949q-53 0 -53 53v154q0 37 10 65l416 1201q14 43 62 43h79q45 0 60 -43zM344 240h549l-275 790z" glyph-name="uni2206" horiz-adv-x="1228" unicode="∆"/><glyph d="M1542 1516q53 0 53 -54v-162q0 -53 -53 -53h-199v-1597q0 -53 -53 -53h-164q-53 0 -53 53v1597h-467v-1597q0 -53 -53 -53h-164q-53 0 -53 53v1597h-201q-53 0 -53 53v162q0 53 53 54h1407z" glyph-name="product" horiz-adv-x="1667" unicode="∏"/><glyph d="M1024 -287h-899q-53 0 -53 54v178q0 33 20 65l416 619l-416 590q-20 29 -20 65v178q0 53 53 54h899q53 0 53 -54v-159q0 -55 -53 -56h-625l412 -581q25 -37 0 -74l-420 -610h633q53 0 53 -56v-159q0 -54 -53 -54z" glyph-name="summation" horiz-adv-x="1138" unicode="∑"/><glyph d="M1331 1516q63 0 41 -60l-571 -1415q-14 -41 -60 -41h-79q-45 0 -60 41l-285 741h-202q-53 0 -54 54v135q0 53 54 53h323q47 0 62 -41l207 -532l413 1026q14 39 60 39h151z" glyph-name="radical" horiz-adv-x="1458" unicode="√"/><glyph d="M1405 965q170 0 292 -128t122 -309q0 -178 -122 -305t-292 -127q-221 0 -455 250q-227 -250 -454 -250q-170 0 -292 127t-122 305.5t122 307.5t290 129q229 0 456 -250q234 250 455 250zM496 332q133 0 303 198q-170 199 -303 199q-74 0 -126.5 -57.5t-52.5 -141.5 q0 -82 53.5 -140t125.5 -58zM1403 332q74 0 126 58.5t52 139.5q0 84 -52 141.5t-126 57.5q-131 0 -301 -199q170 -198 301 -198z" glyph-name="infinity" horiz-adv-x="1888" unicode="∞"/><glyph d="M190 -406h-65q-53 0 -53 56v135q0 53 53 53h65q53 0 89 36t36 87v1153q0 180 118 291t284 111h67q53 0 54 -54v-135q0 -53 -54 -53h-67q-68 0 -115 -46t-47 -114v-1153q0 -166 -106.5 -266.5t-258.5 -100.5z" glyph-name="integral" horiz-adv-x="899" unicode="∫"/><glyph d="M1055 639q-217 -117 -490 -51q-4 0 -28.5 6t-36 9t-39 8t-46 8.5t-47 6.5t-51 3t-50 -2t-54.5 -6.5t-51 -12.5q-59 -16 -60 41v105q0 43 41 59q82 27 166 28t139.5 -9.5t159.5 -36.5q217 -55 422 43q27 12 44.5 1.5t17.5 -38.5v-101q0 -45 -37 -61zM1055 309 q-217 -115 -490 -53l-37 10q-37 8 -51 11.5t-53 10.5t-64.5 8t-61.5 2t-69.5 -4t-66.5 -15q-59 -16 -60 40v103q0 45 41 61q82 27 166 28t140.5 -10.5t158.5 -37.5q219 -53 422 45q27 12 44.5 2t17.5 -39v-100q0 -46 -37 -62z" glyph-name="approxequal" horiz-adv-x="1183" unicode="≈"/><glyph d="M1100 627h-340l-51 -107h391q53 0 53 -55v-127q0 -53 -53 -53h-508l-152 -305q-23 -51 -71 -25l-88 45q-47 23 -25 72l104 213h-204q-53 0 -54 53v127q0 55 54 55h321l53 107h-374q-53 0 -54 53v125q0 55 54 55h489l143 287q23 49 72 22l86 -45q47 -23 25 -69l-97 -195 h226q53 0 53 -55v-125q0 -53 -53 -53z" glyph-name="notequal" horiz-adv-x="1245" unicode="≠"/><glyph d="M938 330l-788 303q-35 16 -35 51v68q0 39 35 51l788 303q59 23 59 -41v-131q0 -45 -39 -60l-395 -155l395 -158q39 -14 39 -59v-131q0 -64 -59 -41zM102 53v115q0 55 54 55h788q53 0 53 -55v-115q0 -53 -53 -53h-788q-54 0 -54 53z" glyph-name="lessequal" horiz-adv-x="1089" unicode="≤"/><glyph d="M92 371v131q0 43 41 59l393 158l-393 155q-41 14 -41 60v131q0 63 60 41l788 -303q35 -12 35 -51v-68q0 -35 -35 -51l-788 -303q-60 -22 -60 41zM934 0h-789q-53 0 -53 53v115q0 55 53 55h789q53 0 53 -55v-115q0 -53 -53 -53z" glyph-name="greaterequal" horiz-adv-x="1089" unicode="≥"/><glyph d="M625 0h-70q-33 0 -51 29l-412 692q-23 37 0 74l412 692q18 29 51 29h70q33 0 49 -29l411 -692q20 -37 0 -74l-411 -692q-16 -29 -49 -29zM352 758l238 -402l237 402l-237 401z" glyph-name="lozenge" horiz-adv-x="1167" unicode="◊"/><glyph d="M125 0q-53 0 -53 53v998q0 182 108.5 282.5t286.5 100.5h111q53 0 53 -54v-135q0 -53 -53 -53h-111q-55 0 -93 -38t-38 -91v-39h405v27q0 182 110 282.5t288 100.5h108q53 0 53 -54v-135q0 -53 -53 -53h-108q-55 0 -93 -38t-38 -91v-39h241q51 0 51 -51v-123 q0 -51 -51 -51h-241l-2 -746q0 -53 -54 -53h-155q-55 0 -56 53v746h-405v-746q0 -53 -53 -53h-158z" glyph-name="f_f.dlig" horiz-adv-x="1361"/><glyph d="M125 0q-53 0 -53 53v998q0 182 108.5 282.5t286.5 100.5h111q53 0 53 -54v-135q0 -53 -53 -53h-111q-55 0 -93 -38t-38 -91v-39h405v27q0 182 110 282.5t288 100.5h108q53 0 53 -54v-135q0 -53 -53 -53h-108q-55 0 -93 -38t-38 -91v-39h663q53 0 53 -53v-918 q0 -53 -53 -53h-158q-53 0 -53 53v746h-452l-2 -746q0 -53 -54 -53h-155q-55 0 -56 53v746h-405v-746q0 -53 -53 -53h-158zM1434 1253q0 59 48 106.5t107 47.5q70 0 115 -46t45 -108q0 -72 -44 -114.5t-116 -42.5q-61 0 -108 44.5t-47 112.5z" glyph-name="f_f_i.dlig" horiz-adv-x="1826"/><glyph d="M125 0q-53 0 -53 53v998q0 182 108.5 282.5t286.5 100.5h111q53 0 53 -54v-135q0 -53 -53 -53h-111q-55 0 -93 -38t-38 -91v-39h657q55 0 56 -53v-918q0 -53 -56 -53h-155q-53 0 -54 53v748h-448v-748q0 -53 -53 -53h-158zM913 1096q-61 0 -108 45t-47 112q0 59 48 106.5 t107 47.5q70 0 115 -46t45 -108q0 -72 -44 -114.5t-116 -42.5z" glyph-name="f_i.dlig" horiz-adv-x="1208"/><glyph d="M102 399v897q0 53 54 54h161q53 0 54 -54v-272h442v272q0 53 53 54h162q55 0 55 -54v-272h263q51 0 51 -51v-131q0 -51 -51 -51h-263v-394q0 -55 36 -92t89 -37h125q55 0 56 -53v-162q0 -53 -56 -53h-131q-182 0 -285.5 102.5t-103.5 296.5v392h-442v-394q0 -55 35.5 -92 t91.5 -37h125q53 0 53 -53v-162q0 -53 -53 -53h-134q-182 0 -284.5 102t-102.5 297z" glyph-name="t_t.dlig" horiz-adv-x="1447"/></font>
</defs>
</svg>
